SplineFontDB: 3.2
FontName: Giphurs-Regular
FullName: Giphurs Regular
FamilyName: Giphurs
Weight: Regular
Copyright: Copyright 2023 The Giphurs Project Authors (https://github.com/Corne2Plum3/Giphurs)
UComments: "2023-01-20: Finally found a name for the font lol+AAoA-2022-06-21: Created with FontForge (http://fontforge.org)"
Version: 0.950
ItalicAngle: 0
UnderlinePosition: -204
UnderlineWidth: 102
Ascent: 1668
Descent: 380
InvalidEm: 0
UFOAscent: 1668
UFODescent: -380
LayerCount: 2
Layer: 0 0 "Arri+AOgA-re" 1
Layer: 1 0 "public.default" 0 "glyphs"
StyleMap: 0x0040
FSType: 0
OS2Version: 0
OS2_WeightWidthSlopeOnly: 0
OS2_UseTypoMetrics: 0
CreationTime: 1655845567
ModificationTime: 1720296404
PfmFamily: 16
TTFWeight: 400
TTFWidth: 5
LineGap: 0
VLineGap: 0
OS2TypoAscent: 2218
OS2TypoAOffset: 0
OS2TypoDescent: -578
OS2TypoDOffset: 0
OS2TypoLinegap: 0
OS2WinAscent: 2218
OS2WinAOffset: 0
OS2WinDescent: 578
OS2WinDOffset: 0
HheadAscent: 2218
HheadAOffset: 0
HheadDescent: -578
HheadDOffset: 0
OS2CapHeight: 1480
OS2XHeight: 1040
OS2Vendor: 'PfEd'
Lookup: 1 0 0 "c2sc_CapitalesverspetitescapitalesdansLatinlookup0" { "c2sc_CapitalesverspetitescapitalesdansLatinlookup0 subtable"  } ['c2sc' ('latn' <'dflt' > 'grek' <'dflt' > ) ]
Lookup: 1 0 0 "smcpBasdecasseverspetitescapitalesdansLatinlookup0" { "smcpBasdecasseverspetitescapitalesdansLatinlookup0 subtable"  } ['smcp' ('latn' <'dflt' > 'grek' <'dflt' > ) ]
Lookup: 1 0 0 "cv01Alternativedigit11" { "cv01Alternativedigit11 subtable"  } ['cv01' ('latn' <'dflt' > 'grek' <'dflt' > 'cyrl' <'dflt' > 'copt' <'dflt' > 'DFLT' <'dflt' > ) ]
Lookup: 1 0 0 "cv02Alternativedigit21" { "cv02Alternativedigit21 subtable"  } ['cv02' ('latn' <'dflt' > 'grek' <'dflt' > 'cyrl' <'dflt' > 'copt' <'dflt' > 'DFLT' <'dflt' > ) ]
Lookup: 1 0 0 "cv03Alternativedigit31" { "cv03Alternativedigit31 subtable"  } ['cv03' ('latn' <'dflt' > 'grek' <'dflt' > 'cyrl' <'dflt' > 'copt' <'dflt' > 'DFLT' <'dflt' > ) ]

StartChar: o
Encoding: 111 111 0
GlifName: o
Width: 1196
VWidth: 0
GlyphClass: 2
Flags: HW
AnchorPoint: "top_center" 598 1040 basechar 0
AnchorPoint: "bottom_center" 598 0 basechar 0
AnchorPoint: "top_right" 1048 1040 basechar 0
AnchorPoint: "bottom_right" 738 0 basechar 0
LayerCount: 2
Fore
SplineSet
280 520 m 256
 280 300 407 140 598 140 c 256
 789 140 916 300 916 520 c 256
 916 740 789 900 598 900 c 256
 407 900 280 740 280 520 c 256
100 520 m 256
 100 832 317 1060 598 1060 c 256
 879 1060 1096 832 1096 520 c 256
 1096 208 879 -20 598 -20 c 256
 317 -20 100 208 100 520 c 256
EndSplineSet
Substitution2: "smcpBasdecasseverspetitescapitalesdansLatinlookup0 subtable" o.sc
EndChar

StartChar: n
Encoding: 110 110 1
GlifName: n
Width: 1156
VWidth: 0
GlyphClass: 2
Flags: HW
AnchorPoint: "top_center" 578 1040 basechar 0
AnchorPoint: "bottom_center" 578 0 basechar 0
LayerCount: 2
Fore
SplineSet
836 0 m 257
 836 572 l 258
 836 791 758 900 578 900 c 256
 398 900 320 791 320 572 c 258
 320 0 l 257
 140 0 l 257
 140 1040 l 257
 308 1040 l 257
 308 920 l 257
 393 1005 493 1060 618 1060 c 256
 888 1060 1016 892 1016 572 c 257
 1016 0 l 257
 836 0 l 257
EndSplineSet
Substitution2: "smcpBasdecasseverspetitescapitalesdansLatinlookup0 subtable" n.sc
EndChar

StartChar: u
Encoding: 117 117 2
GlifName: u
Width: 1156
VWidth: 0
GlyphClass: 2
Flags: HW
AnchorPoint: "bottom_right" 1036 0 basechar 0
AnchorPoint: "top_right" 1016 1040 basechar 0
AnchorPoint: "bottom_center" 578 0 basechar 0
AnchorPoint: "top_center" 578 1040 basechar 0
LayerCount: 2
Fore
SplineSet
320 1040 m 257
 320 468 l 258
 320 249 398 140 578 140 c 256
 758 140 836 249 836 468 c 258
 836 1040 l 257
 1016 1040 l 257
 1016 168 l 257
 1016 66 1036 0 1036 0 c 257
 864 0 l 257
 864 0 848 60 848 120 c 257
 763 35 663 -20 538 -20 c 256
 268 -20 140 148 140 468 c 257
 140 1040 l 257
 320 1040 l 257
EndSplineSet
Substitution2: "ss04StyleSet4lookups56 subtable" u.cv25
Substitution2: "cv25CharacterVariants25lookups66 subtable" u.cv25
Substitution2: "smcpBasdecasseverspetitescapitalesdansLatinlookup0 subtable" u.sc
EndChar

StartChar: d
Encoding: 100 100 3
GlifName: d
Width: 1184
VWidth: 0
GlyphClass: 2
Flags: HW
AnchorPoint: "top_right" 1044 1480 basechar 0
AnchorPoint: "top_center" 954 1380 basechar 0
AnchorPoint: "bottom_center" 578 0 basechar 0
AnchorPoint: "bottom_cedilla" 578 -20 basechar 0
LayerCount: 2
Fore
SplineSet
876 520 m 256
 876 750 758 900 578 900 c 256
 398 900 280 750 280 520 c 256
 280 290 398 140 578 140 c 256
 758 140 876 290 876 520 c 256
1044 168 m 257
 1044 66 1064 0 1064 0 c 257
 892 0 l 257
 892 0 876 60 876 120 c 257
 791 35 703 -20 578 -20 c 256
 297 -20 100 208 100 520 c 256
 100 832 297 1060 578 1060 c 256
 703 1060 779 1005 864 920 c 257
 864 1480 l 257
 1044 1480 l 257
 1044 168 l 257
EndSplineSet
Substitution2: "smcpBasdecasseverspetitescapitalesdansLatinlookup0 subtable" d.sc
EndChar

StartChar: b
Encoding: 98 98 4
GlifName: b
Width: 1184
VWidth: 0
GlyphClass: 2
Flags: HW
AnchorPoint: "top_center" 230 1380 basechar 0
AnchorPoint: "bottom_center" 606 0 basechar 0
LayerCount: 2
Fore
SplineSet
308 520 m 256
 308 290 426 140 606 140 c 256
 786 140 904 290 904 520 c 256
 904 750 786 900 606 900 c 256
 426 900 308 750 308 520 c 256
140 168 m 257
 140 1480 l 257
 320 1480 l 257
 320 920 l 257
 405 1005 481 1060 606 1060 c 256
 887 1060 1084 832 1084 520 c 256
 1084 208 887 -20 606 -20 c 256
 481 -20 397 35 312 120 c 257
 312 0 l 257
 140 0 l 257
 140 0 140 66 140 168 c 257
EndSplineSet
Substitution2: "smcpBasdecasseverspetitescapitalesdansLatinlookup0 subtable" b.sc
EndChar

StartChar: p
Encoding: 112 112 5
GlifName: p
Width: 1184
VWidth: 0
GlyphClass: 2
Flags: HW
AnchorPoint: "top_center" 606 1040 basechar 0
AnchorPoint: "bottom_center" 230 -360 basechar 0
LayerCount: 2
Fore
SplineSet
308 520 m 256
 308 290 426 140 606 140 c 256
 786 140 904 290 904 520 c 256
 904 750 786 900 606 900 c 256
 426 900 308 750 308 520 c 256
140 872 m 257
 140 974 140 1040 140 1040 c 257
 312 1040 l 257
 312 920 l 257
 397 1005 481 1060 606 1060 c 256
 887 1060 1084 832 1084 520 c 256
 1084 208 887 -20 606 -20 c 256
 481 -20 405 35 320 120 c 257
 320 -440 l 257
 140 -440 l 257
 140 872 l 257
EndSplineSet
Substitution2: "smcpBasdecasseverspetitescapitalesdansLatinlookup0 subtable" p.sc
EndChar

StartChar: q
Encoding: 113 113 6
GlifName: q
Width: 1184
VWidth: 0
GlyphClass: 2
Flags: HW
AnchorPoint: "top_center" 578 1040 basechar 0
AnchorPoint: "bottom_center" 954 -360 basechar 0
LayerCount: 2
Fore
SplineSet
876 520 m 256
 876 750 758 900 578 900 c 256
 398 900 280 750 280 520 c 256
 280 290 398 140 578 140 c 256
 758 140 876 290 876 520 c 256
1044 872 m 257
 1044 -440 l 257
 864 -440 l 257
 864 120 l 257
 779 35 703 -20 578 -20 c 256
 297 -20 100 208 100 520 c 256
 100 832 297 1060 578 1060 c 256
 703 1060 787 1005 872 920 c 257
 872 1040 l 257
 1044 1040 l 257
 1044 1040 1044 974 1044 872 c 257
EndSplineSet
Substitution2: "smcpBasdecasseverspetitescapitalesdansLatinlookup0 subtable" q.sc
EndChar

StartChar: h
Encoding: 104 104 7
GlifName: h
Width: 1156
VWidth: 0
GlyphClass: 2
Flags: HW
AnchorPoint: "top_center" 230 1380 basechar 0
AnchorPoint: "bottom_center" 598 0 basechar 0
AnchorPoint: "bottom_cedilla" 230 -20 basechar 0
LayerCount: 2
Fore
SplineSet
836 0 m 257
 836 572 l 258
 836 791 758 900 578 900 c 256
 398 900 320 791 320 572 c 258
 320 0 l 257
 140 0 l 257
 140 1480 l 257
 312 1480 l 257
 312 920 l 257
 397 1005 493 1060 618 1060 c 256
 888 1060 1016 892 1016 572 c 257
 1016 0 l 257
 836 0 l 257
EndSplineSet
Substitution2: "smcpBasdecasseverspetitescapitalesdansLatinlookup0 subtable" h.sc
EndChar

StartChar: m
Encoding: 109 109 8
GlifName: m
Width: 1672
VWidth: 0
GlyphClass: 2
Flags: HW
AnchorPoint: "top_center" 836 1040 basechar 0
AnchorPoint: "bottom_center" 836 0 basechar 0
LayerCount: 2
Fore
SplineSet
746 0 m 257
 746 572 l 258
 746 791 693 900 533 900 c 256
 373 900 320 791 320 572 c 258
 320 0 l 257
 140 0 l 257
 140 1040 l 257
 308 1040 l 257
 308 920 l 257
 393 1005 440 1060 565 1060 c 256
 702 1060 804 1007 864 892 c 257
 930 1003 1037 1060 1171 1060 c 256
 1401 1060 1532 912 1532 572 c 258
 1532 0 l 257
 1352 0 l 257
 1352 572 l 258
 1352 791 1299 900 1139 900 c 256
 979 900 926 791 926 572 c 258
 926 0 l 257
 746 0 l 257
EndSplineSet
Substitution2: "smcpBasdecasseverspetitescapitalesdansLatinlookup0 subtable" m.sc
EndChar

StartChar: e
Encoding: 101 101 9
GlifName: e
Width: 1196
VWidth: 0
GlyphClass: 2
Flags: HW
AnchorPoint: "top_center" 598 1040 basechar 0
AnchorPoint: "bottom_center" 598 0 basechar 0
AnchorPoint: "bottom_right" 752 0 basechar 0
AnchorPoint: "bottom_cedilla" 598 -20 basechar 0
LayerCount: 2
Fore
SplineSet
174 600 m 257
 980 600 l 257
 910 440 l 257
 174 440 l 257
 174 600 l 257
910 340 m 257
 1063 252 l 257
 980 74 797 -20 598 -20 c 256
 317 -20 100 208 100 520 c 256
 100 832 317 1060 598 1060 c 256
 879 1060 1096 832 1096 520 c 256
 1096 493 1094 466 1091 440 c 257
 910 440 l 257
 914 466 916 492 916 520 c 256
 916 740 789 900 598 900 c 256
 407 900 280 740 280 520 c 256
 280 300 407 140 598 140 c 256
 739 140 861 207 910 340 c 257
EndSplineSet
Substitution2: "smcpBasdecasseverspetitescapitalesdansLatinlookup0 subtable" e.sc
EndChar

StartChar: c
Encoding: 99 99 10
GlifName: c
Width: 1142
VWidth: 0
GlyphClass: 2
Flags: HW
AnchorPoint: "bottom_cedilla" 598 -20 basechar 0
AnchorPoint: "bottom_center" 598 0 basechar 0
AnchorPoint: "top_center" 598 1040 basechar 0
LayerCount: 2
Fore
SplineSet
280 520 m 256
 280 300 407 140 598 140 c 256
 739 140 840 207 889 340 c 257
 1042 252 l 257
 959 74 797 -20 598 -20 c 256
 317 -20 100 208 100 520 c 256
 100 832 317 1060 598 1060 c 256
 797 1060 959 966 1042 788 c 257
 889 700 l 257
 840 833 739 900 598 900 c 256
 407 900 280 740 280 520 c 256
EndSplineSet
Substitution2: "smcpBasdecasseverspetitescapitalesdansLatinlookup0 subtable" c.sc
EndChar

StartChar: f
Encoding: 102 102 11
GlifName: f
Width: 815
VWidth: 0
GlyphClass: 2
Flags: HW
AnchorPoint: "bottom_center" 350 -0 basechar 0
AnchorPoint: "top_center" 510 1380 basechar 0
LayerCount: 2
Fore
SplineSet
720 1305 m 257
 694 1324 643 1340 600 1340 c 256
 498 1340 440 1282 440 1180 c 258
 440 1040 l 257
 720 1040 l 257
 720 880 l 257
 440 880 l 257
 440 0 l 257
 260 0 l 257
 260 880 l 257
 50 880 l 257
 50 1040 l 257
 260 1040 l 257
 260 1180 l 258
 260 1380 400 1500 600 1500 c 256
 656 1500 720 1486 765 1468 c 257
 720 1305 l 257
EndSplineSet
Substitution2: "ss08StyleSet8lookups60 subtable" f.ss08
Substitution2: "smcpBasdecasseverspetitescapitalesdansLatinlookup0 subtable" f.sc
EndChar

StartChar: r
Encoding: 114 114 12
GlifName: r
Width: 842
VWidth: 0
GlyphClass: 2
Flags: HW
AnchorPoint: "top_center" 488 1040 basechar 0
AnchorPoint: "bottom_center" 230 -0 basechar 0
LayerCount: 2
Fore
SplineSet
744 849 m 257
 701 883 649 900 578 900 c 256
 398 900 320 791 320 572 c 258
 320 0 l 257
 140 0 l 257
 140 1040 l 257
 308 1040 l 257
 308 920 l 257
 393 1005 493 1060 618 1060 c 256
 686 1060 741 1049 792 1028 c 257
 744 849 l 257
EndSplineSet
Substitution2: "smcpBasdecasseverspetitescapitalesdansLatinlookup0 subtable" r.sc
EndChar

StartChar: t
Encoding: 116 116 13
GlifName: t
Width: 815
VWidth: 0
GlyphClass: 2
Flags: HW
AnchorPoint: "top_center" 350 1380 basechar 0
AnchorPoint: "bottom_center" 480 0 basechar 0
AnchorPoint: "bottom_cedilla" 533 -20 basechar 0
LayerCount: 2
Fore
SplineSet
122 1028 m 257
 212 1028 272 1092 272 1182 c 257
 272 1320 l 257
 440 1320 l 257
 440 1040 l 257
 720 1040 l 257
 720 880 l 257
 440 880 l 257
 440 300 l 258
 440 198 498 140 600 140 c 256
 643 140 694 156 720 175 c 257
 765 12 l 257
 720 -6 656 -20 600 -20 c 256
 400 -20 260 101 260 300 c 258
 260 880 l 257
 50 880 l 257
 50 1028 l 257
 122 1028 l 257
EndSplineSet
Substitution2: "ss08StyleSet8lookups60 subtable" t.ss08
Substitution2: "smcpBasdecasseverspetitescapitalesdansLatinlookup0 subtable" t.sc
EndChar

StartChar: v
Encoding: 118 118 14
GlifName: v
Width: 1060
VWidth: 0
GlyphClass: 2
Flags: HW
AnchorPoint: "top_center" 530 1040 basechar 0
AnchorPoint: "bottom_center" 530 0 basechar 0
LayerCount: 2
Fore
SplineSet
530 224 m 257
 798 1040 l 257
 990 1040 l 257
 629 0 l 257
 431 0 l 257
 70 1040 l 257
 262 1040 l 257
 530 224 l 257
EndSplineSet
Substitution2: "smcpBasdecasseverspetitescapitalesdansLatinlookup0 subtable" v.sc
EndChar

StartChar: w
Encoding: 119 119 15
GlifName: w
Width: 1594
VWidth: 0
GlyphClass: 2
Flags: HW
AnchorPoint: "top_center" 796 1040 basechar 0
AnchorPoint: "bottom_center" 796 0 basechar 0
LayerCount: 2
Fore
SplineSet
391 0 m 257
 70 1040 l 257
 260 1040 l 257
 483 250 l 257
 706 1040 l 257
 886 1040 l 257
 1109 250 l 257
 1332 1040 l 257
 1524 1040 l 257
 1201 0 l 257
 1017 0 l 257
 800 770 l 257
 575 0 l 257
 391 0 l 257
EndSplineSet
Substitution2: "smcpBasdecasseverspetitescapitalesdansLatinlookup0 subtable" w.sc
EndChar

StartChar: x
Encoding: 120 120 16
GlifName: x
Width: 1092
VWidth: 0
GlyphClass: 2
Flags: HW
AnchorPoint: "top_center" 546 1040 basechar 0
AnchorPoint: "bottom_center" 546 0 basechar 0
LayerCount: 2
Fore
SplineSet
407 520 m 257
 70 1040 l 257
 278 1040 l 257
 546 613 l 257
 814 1040 l 257
 1022 1040 l 257
 684 520 l 257
 1022 0 l 257
 814 0 l 257
 544 430 l 257
 280 0 l 257
 70 0 l 257
 407 520 l 257
EndSplineSet
Substitution2: "Single Substitution lookup 62 subtable" multiply
Substitution2: "smcpBasdecasseverspetitescapitalesdansLatinlookup0 subtable" x.sc
EndChar

StartChar: y
Encoding: 121 121 17
GlifName: y
Width: 1077
VWidth: 0
GlyphClass: 2
Flags: HW
AnchorPoint: "top_center" 530 1040 basechar 0
AnchorPoint: "bottom_center" 294 -360 basechar 0
LayerCount: 2
Fore
SplineSet
552 -255 m 257
 507 -385 393 -460 235 -460 c 256
 179 -460 115 -446 70 -428 c 257
 115 -265 l 257
 141 -284 192 -300 235 -300 c 256
 312 -300 364 -267 385 -206 c 257
 458 0 l 257
 93 1040 l 257
 282 1040 l 257
 550 224 l 257
 818 1040 l 257
 1007 1040 l 257
 642 0 l 257
 552 -255 l 257
EndSplineSet
Substitution2: "smcpBasdecasseverspetitescapitalesdansLatinlookup0 subtable" y.sc
EndChar

StartChar: l
Encoding: 108 108 20
GlifName: l
Width: 509
VWidth: 0
GlyphClass: 2
Flags: HW
AnchorPoint: "top_center" 230 1380 basechar 0
AnchorPoint: "bottom_center" 290 0 basechar 0
LayerCount: 2
Fore
SplineSet
462 156 m 257
 504 4 l 257
 482 -9 442 -20 410 -20 c 256
 240 -20 140 60 140 230 c 258
 140 440 l 257
 140 578 l 257
 140 1480 l 257
 320 1480 l 257
 320 578 l 257
 320 440 l 257
 320 230 l 258
 320 170 350 140 410 140 c 256
 426 140 450 149 462 156 c 257
EndSplineSet
Substitution2: "ss08StyleSet8lookups60 subtable" l.ss08
Substitution2: "smcpBasdecasseverspetitescapitalesdansLatinlookup0 subtable" l.sc
EndChar

StartChar: k
Encoding: 107 107 21
GlifName: k
Width: 1059
VWidth: 0
GlyphClass: 2
Flags: HW
AnchorPoint: "top_center" 230 1380 basechar 0
AnchorPoint: "bottom_center" 568 -0 basechar 0
LayerCount: 2
Fore
SplineSet
417 562 m 257
 526 702 l 257
 1024 0 l 257
 816 0 l 257
 417 562 l 257
320 340 m 257
 320 0 l 257
 140 0 l 257
 140 1480 l 257
 320 1480 l 257
 320 572 l 257
 788 1040 l 257
 848 1040 960 1040 1020 1040 c 257
 320 340 l 257
EndSplineSet
Substitution2: "smcpBasdecasseverspetitescapitalesdansLatinlookup0 subtable" k.sc
EndChar

StartChar: s
Encoding: 115 115 22
GlifName: s
Width: 1020
VWidth: 0
GlyphClass: 2
Flags: HW
AnchorPoint: "bottom_right" 676 0 basechar 0
AnchorPoint: "bottom_center" 514 0 basechar 0
AnchorPoint: "top_center" 514 1040 basechar 0
LayerCount: 2
Fore
SplineSet
514 1060 m 256
 733 1060 861 953 900 808 c 257
 743 720 l 257
 712 836 646 900 514 900 c 256
 382 900 320 840 320 760 c 256
 320 680 368 642 514 608 c 256
 748 554 920 477 920 281 c 256
 920 85 744 -20 514 -20 c 256
 284 -20 139 108 100 253 c 257
 257 341 l 257
 288 225 364 141 514 141 c 256
 664 141 740 191 740 281 c 256
 740 371 660 404 514 438 c 256
 280 492 140 585 140 760 c 256
 140 935 295 1060 514 1060 c 256
EndSplineSet
Substitution2: "smcpBasdecasseverspetitescapitalesdansLatinlookup0 subtable" s.sc
EndChar

StartChar: a
Encoding: 97 97 23
GlifName: a
Width: 1140
VWidth: 0
GlyphClass: 2
Flags: HW
AnchorPoint: "bottom_right" 1033 0 basechar 0
AnchorPoint: "top_center" 540 1040 basechar 0
AnchorPoint: "bottom_center" 540 0 basechar 0
AnchorPoint: "top_right" 980 1040 basechar 0
LayerCount: 2
Fore
SplineSet
500 -20 m 256
 245 -20 100 140 100 340 c 256
 100 540 285 700 540 700 c 256
 755 700 890 540 890 340 c 256
 890 140 725 -20 500 -20 c 256
800 340 m 256
 800 460 720 540 540 540 c 256
 360 540 280 460 280 340 c 256
 280 220 360 140 540 140 c 256
 690 140 800 220 800 340 c 256
980 227 m 258
 980 167 1010 138 1070 138 c 257
 1028 -20 l 257
 884 -7 800 72 800 227 c 257
 820 256 l 257
 820 449 l 257
 800 468 l 257
 800 640 l 258
 800 820 707 901 539 901 c 256
 359 901 222 795 222 795 c 257
 140 936 l 257
 140 936 285 1060 540 1060 c 256
 786 1060 980 958 980 608 c 257
 980 227 l 258
EndSplineSet
Substitution2: "ss04StyleSet4lookups56 subtable" a.cv23
Substitution2: "cv23CharacterVariants23lookups64 subtable" a.cv23
Substitution2: "smcpBasdecasseverspetitescapitalesdansLatinlookup0 subtable" a.sc
EndChar

StartChar: g
Encoding: 103 103 24
GlifName: g
Width: 1085
VWidth: 0
GlyphClass: 2
Flags: HW
AnchorPoint: "top_center" 520 1040 basechar 0
AnchorPoint: "bottom_center" 520 -361 basechar 0
LayerCount: 2
Fore
SplineSet
571 941 m 257
 656 1026 736 1081 861 1081 c 256
 929 1081 985 1071 1035 1049 c 257
 987 870 l 257
 944 904 890 921 819 921 c 256
 763 921 739 910 702 889 c 257
 571 941 l 257
520 420 m 257
 520 300 l 257
 362 300 320 260 320 220 c 256
 320 180 412 160 520 160 c 257
 520 0 l 257
 280 0 141 80 141 210 c 256
 141 370 380 420 520 420 c 257
1035 -110 m 256
 1035 -290 881 -460 520 -460 c 256
 159 -460 50 -325 50 -164 c 256
 50 37 260 120 520 120 c 257
 520 30 l 257
 272 30 230 -89 230 -164 c 256
 230 -240 272 -300 520 -300 c 256
 768 -300 855 -220 855 -120 c 256
 855 -40 718 0 520 0 c 257
 520 160 l 257
 841 160 1035 70 1035 -110 c 256
320 680 m 256
 320 560 400 460 520 460 c 256
 640 460 720 560 720 680 c 256
 720 800 640 900 520 900 c 256
 400 900 320 800 320 680 c 256
140 680 m 256
 140 899 301 1060 520 1060 c 256
 739 1060 900 899 900 680 c 256
 900 461 739 300 520 300 c 256
 301 300 140 461 140 680 c 256
EndSplineSet
Substitution2: "ss04StyleSet4lookups56 subtable" g.cv24
Substitution2: "cv24CharacterVariants24lookups65 subtable" g.cv24
Substitution2: "smcpBasdecasseverspetitescapitalesdansLatinlookup0 subtable" g.sc
EndChar

StartChar: z
Encoding: 122 122 25
GlifName: z
Width: 1020
VWidth: 0
GlyphClass: 2
Flags: HW
AnchorPoint: "top_center" 512 1040 basechar 0
AnchorPoint: "bottom_center" 512 0 basechar 0
LayerCount: 2
Fore
SplineSet
140 1040 m 257
 880 1040 l 257
 880 896 l 257
 736 880 l 257
 140 880 l 257
 140 1040 l 257
880 160 m 257
 880 0 l 257
 140 0 l 257
 140 144 l 257
 284 160 l 257
 880 160 l 257
344 160 m 257
 140 144 l 257
 676 880 l 257
 880 896 l 257
 344 160 l 257
EndSplineSet
Substitution2: "smcpBasdecasseverspetitescapitalesdansLatinlookup0 subtable" z.sc
EndChar

StartChar: A
Encoding: 65 65 27
GlifName: A_
Width: 1356
VWidth: 0
GlyphClass: 2
Flags: HW
AnchorPoint: "greek_v" 310 1040 basechar 0
AnchorPoint: "greek_kt" 66 1040 basechar 0
AnchorPoint: "greek_k" 232 1040 basechar 0
AnchorPoint: "greek_t" 106 1040 basechar 0
AnchorPoint: "bottom_right" 1286 0 basechar 0
AnchorPoint: "top_center" 678 1380 basechar 0
AnchorPoint: "bottom_center" 678 -0 basechar 0
AnchorPoint: "bottom_ypogegrammeni" 678 -90 basechar 0
LayerCount: 2
Fore
SplineSet
304 604 m 257
 1030 604 l 257
 1030 436 l 257
 304 436 l 257
 304 604 l 257
678 1230 m 257
 266 0 l 257
 70 0 l 257
 580 1480 l 257
 776 1480 l 257
 1286 0 l 257
 1090 0 l 257
 678 1230 l 257
EndSplineSet
Substitution2: "c2sc_CapitalesverspetitescapitalesdansLatinlookup0 subtable" a.sc
EndChar

StartChar: V
Encoding: 86 86 28
GlifName: V_
Width: 1356
VWidth: 0
GlyphClass: 2
Flags: HW
AnchorPoint: "top_center" 678 1380 basechar 0
AnchorPoint: "bottom_center" 678 -0 basechar 0
LayerCount: 2
Fore
SplineSet
678 250 m 257
 1090 1480 l 257
 1286 1480 l 257
 776 0 l 257
 580 0 l 257
 70 1480 l 257
 266 1480 l 257
 678 250 l 257
EndSplineSet
Substitution2: "c2sc_CapitalesverspetitescapitalesdansLatinlookup0 subtable" v.sc
EndChar

StartChar: H
Encoding: 72 72 29
GlifName: H_
Width: 1398
VWidth: 0
GlyphClass: 2
Flags: HW
AnchorPoint: "top_center" 699 1380 basechar 0
AnchorPoint: "bottom_center" 699 0 basechar 0
AnchorPoint: "bottom_cedilla" 235 -20 basechar 0
AnchorPoint: "bottom_ypogegrammeni" 699 -90 basechar 0
AnchorPoint: "greek_v" -40 1040 basechar 0
AnchorPoint: "greek_kt" -284 1040 basechar 0
AnchorPoint: "greek_k" -118 1040 basechar 0
AnchorPoint: "greek_t" -244 1040 basechar 0
LayerCount: 2
Fore
SplineSet
140 1480 m 257
 330 1480 l 257
 330 824 l 257
 1068 824 l 257
 1068 1480 l 257
 1258 1480 l 257
 1258 0 l 257
 1068 0 l 257
 1068 656 l 257
 330 656 l 257
 330 0 l 257
 140 0 l 257
 140 1480 l 257
EndSplineSet
Substitution2: "c2sc_CapitalesverspetitescapitalesdansLatinlookup0 subtable" h.sc
EndChar

StartChar: O
Encoding: 79 79 30
GlifName: O_
Width: 1602
VWidth: 0
GlyphClass: 2
Flags: HW
AnchorPoint: "greek_t" -65 1040 basechar 0
AnchorPoint: "greek_k" 61 1040 basechar 0
AnchorPoint: "greek_kt" -105 1040 basechar 0
AnchorPoint: "greek_v" 139 1040 basechar 0
AnchorPoint: "bottom_right" 968 0 basechar 0
AnchorPoint: "bottom_center" 801 0 basechar 0
AnchorPoint: "top_right" 1380 1480 basechar 0
AnchorPoint: "top_center" 801 1380 basechar 0
LayerCount: 2
Fore
SplineSet
290 740 m 256
 290 390 511 148 801 148 c 256
 1091 148 1312 390 1312 740 c 256
 1312 1090 1091 1332 801 1332 c 256
 511 1332 290 1090 290 740 c 256
100 740 m 256
 100 1179 406 1500 801 1500 c 256
 1196 1500 1502 1179 1502 740 c 256
 1502 301 1196 -20 801 -20 c 256
 406 -20 100 301 100 740 c 256
EndSplineSet
Substitution2: "c2sc_CapitalesverspetitescapitalesdansLatinlookup0 subtable" o.sc
EndChar

StartChar: E
Encoding: 69 69 31
GlifName: E_
Width: 1208
VWidth: 0
GlyphClass: 2
Flags: HW
AnchorPoint: "greek_v" -40 1040 basechar 0
AnchorPoint: "greek_t" -244 1040 basechar 0
AnchorPoint: "greek_k" -118 1040 basechar 0
AnchorPoint: "greek_kt" -284 1040 basechar 0
AnchorPoint: "top_center" 604 1380 basechar 0
AnchorPoint: "bottom_center" 604 0 basechar 0
AnchorPoint: "bottom_right" 1068 0 basechar 0
AnchorPoint: "bottom_cedilla" 604 -20 basechar 0
LayerCount: 2
Fore
SplineSet
973 824 m 257
 973 656 l 257
 330 656 l 257
 330 168 l 257
 1068 168 l 257
 1068 0 l 257
 140 0 l 257
 140 1480 l 257
 1068 1480 l 257
 1068 1312 l 257
 330 1312 l 257
 330 824 l 257
 973 824 l 257
EndSplineSet
Substitution2: "c2sc_CapitalesverspetitescapitalesdansLatinlookup0 subtable" e.sc
EndChar

StartChar: F
Encoding: 70 70 32
GlifName: F_
Width: 1138
VWidth: 0
GlyphClass: 2
Flags: HW
AnchorPoint: "top_center" 604 1380 basechar 0
AnchorPoint: "bottom_center" 235 0 basechar 0
LayerCount: 2
Fore
SplineSet
330 168 m 257
 330 0 l 257
 140 0 l 257
 140 1480 l 257
 1068 1480 l 257
 1068 1312 l 257
 330 1312 l 257
 330 824 l 257
 973 824 l 257
 973 656 l 257
 330 656 l 257
 330 168 l 257
EndSplineSet
Substitution2: "c2sc_CapitalesverspetitescapitalesdansLatinlookup0 subtable" f.sc
EndChar

StartChar: P
Encoding: 80 80 33
GlifName: P_
Width: 1188
VWidth: 0
GlyphClass: 2
Flags: HW
AnchorPoint: "greek_v" -40 1040 basechar 0
AnchorPoint: "greek_kt" -284 1040 basechar 0
AnchorPoint: "greek_k" -118 1040 basechar 0
AnchorPoint: "greek_t" -244 1040 basechar 0
AnchorPoint: "bottom_center" 235 0 basechar 0
AnchorPoint: "top_center" 598 1380 basechar 0
LayerCount: 2
Fore
SplineSet
330 1312 m 257
 330 740 l 257
 612 740 l 257
 777 740 898 861 898 1026 c 256
 898 1191 777 1312 612 1312 c 257
 330 1312 l 257
140 0 m 257
 140 1480 l 257
 612 1480 l 257
 867 1480 1088 1281 1088 1026 c 256
 1088 771 867 572 612 572 c 257
 330 572 l 257
 330 0 l 257
 140 0 l 257
EndSplineSet
Substitution2: "c2sc_CapitalesverspetitescapitalesdansLatinlookup0 subtable" p.sc
EndChar

StartChar: N
Encoding: 78 78 34
GlifName: N_
Width: 1398
VWidth: 0
GlyphClass: 2
Flags: HW
AnchorPoint: "top_center" 699 1380 basechar 0
AnchorPoint: "bottom_center" 699 0 basechar 0
LayerCount: 2
Fore
SplineSet
330 1480 m 257
 1068 320 l 257
 1068 1480 l 257
 1258 1480 l 257
 1258 0 l 257
 1068 0 l 257
 330 1160 l 257
 330 0 l 257
 140 0 l 257
 140 1480 l 257
 330 1480 l 257
EndSplineSet
Substitution2: "c2sc_CapitalesverspetitescapitalesdansLatinlookup0 subtable" n.sc
EndChar

StartChar: L
Encoding: 76 76 35
GlifName: L_
Width: 1208
VWidth: 0
GlyphClass: 2
Flags: HW
AnchorPoint: "top_center" 235 1380 basechar 0
AnchorPoint: "bottom_center" 604 0 basechar 0
LayerCount: 2
Fore
SplineSet
330 1480 m 257
 330 168 l 257
 1068 168 l 257
 1068 0 l 257
 140 0 l 257
 140 1480 l 257
 330 1480 l 257
EndSplineSet
Substitution2: "c2sc_CapitalesverspetitescapitalesdansLatinlookup0 subtable" l.sc
EndChar

StartChar: I
Encoding: 73 73 36
GlifName: I_
Width: 806
VWidth: 0
GlyphClass: 2
Flags: HW
AnchorPoint: "greek_v" -40 1040 basechar 0
AnchorPoint: "greek_kt" -284 1040 basechar 0
AnchorPoint: "greek_k" -118 1040 basechar 0
AnchorPoint: "greek_t" -244 1040 basechar 0
AnchorPoint: "bottom_right" 498 0 basechar 0
AnchorPoint: "bottom_center" 403 0 basechar 0
AnchorPoint: "top_center" 403 1380 basechar 0
LayerCount: 2
Fore
SplineSet
140 1480 m 257
 666 1480 l 257
 666 1312 l 257
 498 1312 l 257
 498 168 l 257
 666 168 l 257
 666 0 l 257
 140 0 l 257
 140 168 l 257
 308 168 l 257
 308 1312 l 257
 140 1312 l 257
 140 1480 l 257
EndSplineSet
Substitution2: "ss03StyleSet3lookups55 subtable" I.cv22
Substitution2: "cv22CharacterVariants22lookups63 subtable" I.cv22
Substitution2: "c2sc_CapitalesverspetitescapitalesdansLatinlookup0 subtable" i.sc
EndChar

StartChar: D
Encoding: 68 68 37
GlifName: D_
Width: 1378
VWidth: 0
GlyphClass: 2
Flags: HW
AnchorPoint: "top_center" 662 1380 basechar 0
AnchorPoint: "bottom_center" 662 0 basechar 0
AnchorPoint: "bottom_cedilla" 567 -20 basechar 0
LayerCount: 2
Fore
SplineSet
330 1312 m 257
 330 168 l 257
 612 168 l 257
 882 168 1088 407 1088 740 c 256
 1088 1073 882 1312 612 1312 c 257
 330 1312 l 257
612 0 m 257
 330 0 l 257
 140 0 l 257
 140 1480 l 257
 612 1480 l 257
 992 1480 1278 1190 1278 740 c 256
 1278 290 992 0 612 0 c 257
EndSplineSet
Substitution2: "c2sc_CapitalesverspetitescapitalesdansLatinlookup0 subtable" d.sc
EndChar

StartChar: B
Encoding: 66 66 38
GlifName: B_
Width: 1282
VWidth: 0
GlyphClass: 2
Flags: HW
AnchorPoint: "top_center" 599 1380 basechar 0
AnchorPoint: "bottom_center" 599 0 basechar 0
LayerCount: 2
Fore
SplineSet
706 1480 m 257
 926 1480 1118 1330 1118 1110 c 256
 1118 890 926 740 706 740 c 257
 706 908 l 257
 831 908 928 987 928 1112 c 256
 928 1237 831 1312 706 1312 c 257
 330 1312 l 257
 330 1480 l 257
 706 1480 l 257
330 168 m 257
 706 168 l 257
 871 168 992 289 992 454 c 256
 992 619 871 740 706 740 c 257
 330 740 l 257
 330 168 l 257
140 1480 m 257
 330 1480 l 257
 330 908 l 257
 706 908 l 257
 961 908 1182 709 1182 454 c 256
 1182 199 961 0 706 0 c 257
 140 0 l 257
 140 1480 l 257
EndSplineSet
Substitution2: "c2sc_CapitalesverspetitescapitalesdansLatinlookup0 subtable" b.sc
EndChar

StartChar: T
Encoding: 84 84 39
GlifName: T_
Width: 1398
VWidth: 0
GlyphClass: 2
Flags: HW
AnchorPoint: "top_center" 699 1380 basechar 0
AnchorPoint: "bottom_center" 699 0 basechar 0
AnchorPoint: "bottom_cedilla" 699 -20 basechar 0
LayerCount: 2
Fore
SplineSet
794 0 m 257
 604 0 l 257
 604 1312 l 257
 140 1312 l 257
 140 1480 l 257
 1258 1480 l 257
 1258 1312 l 257
 794 1312 l 257
 794 0 l 257
EndSplineSet
Substitution2: "c2sc_CapitalesverspetitescapitalesdansLatinlookup0 subtable" t.sc
EndChar

StartChar: R
Encoding: 82 82 40
GlifName: R_
Width: 1188
VWidth: 0
GlyphClass: 2
Flags: HW
AnchorPoint: "top_center" 598 1380 basechar 0
AnchorPoint: "bottom_center" 598 0 basechar 0
LayerCount: 2
Fore
SplineSet
500 617 m 257
 630 740 l 257
 1128 0 l 257
 914 0 l 257
 500 617 l 257
330 1312 m 257
 330 740 l 257
 612 740 l 257
 777 740 898 861 898 1026 c 256
 898 1191 777 1312 612 1312 c 257
 330 1312 l 257
140 0 m 257
 140 1480 l 257
 612 1480 l 257
 867 1480 1088 1281 1088 1026 c 256
 1088 771 867 572 612 572 c 257
 330 572 l 257
 330 0 l 257
 140 0 l 257
EndSplineSet
Substitution2: "c2sc_CapitalesverspetitescapitalesdansLatinlookup0 subtable" r.sc
EndChar

StartChar: C
Encoding: 67 67 41
GlifName: C_
Width: 1514
VWidth: 0
GlyphClass: 2
Flags: HW
AnchorPoint: "top_center" 801 1380 basechar 0
AnchorPoint: "bottom_center" 801 0 basechar 0
AnchorPoint: "bottom_cedilla" 801 -20 basechar 0
LayerCount: 2
Fore
SplineSet
1253 1028 m 257
 1170 1215 1002 1332 801 1332 c 256
 511 1332 290 1090 290 740 c 256
 290 390 511 148 801 148 c 256
 1002 148 1170 265 1253 452 c 257
 1414 360 l 257
 1296 128 1069 -20 801 -20 c 256
 406 -20 100 301 100 740 c 256
 100 1179 406 1500 801 1500 c 256
 1069 1500 1296 1352 1414 1120 c 257
 1253 1028 l 257
EndSplineSet
Substitution2: "c2sc_CapitalesverspetitescapitalesdansLatinlookup0 subtable" c.sc
EndChar

StartChar: G
Encoding: 71 71 42
GlifName: G_
Width: 1562
VWidth: 0
GlyphClass: 2
Flags: HW
AnchorPoint: "bottom_center" 801 0 basechar 0
AnchorPoint: "top_center" 801 1380 basechar 0
LayerCount: 2
Fore
SplineSet
1253 1029 m 257
 1170 1216 1002 1332 801 1332 c 256
 511 1332 290 1090 290 740 c 256
 290 390 511 148 801 148 c 256
 1002 148 1170 264 1253 451 c 257
 1414 360 l 257
 1296 128 1069 -20 801 -20 c 256
 406 -20 100 301 100 740 c 256
 100 1179 406 1500 801 1500 c 256
 1069 1500 1296 1352 1414 1120 c 257
 1253 1029 l 257
801 740 m 257
 1422 740 l 257
 1422 0 l 257
 1240 0 l 257
 1240 227 l 257
 1232 253 l 257
 1232 572 l 257
 801 572 l 257
 801 740 l 257
EndSplineSet
Substitution2: "ss03StyleSet3lookups55 subtable" G.cv21
Substitution2: "cv21CharacterVariants21lookups62 subtable" G.cv21
Substitution2: "c2sc_CapitalesverspetitescapitalesdansLatinlookup0 subtable" g.sc
EndChar

StartChar: Q
Encoding: 81 81 43
GlifName: Q_
Width: 1602
VWidth: 0
GlyphClass: 2
Flags: HW
AnchorPoint: "bottom_center" 801 0 basechar 0
AnchorPoint: "top_center" 801 1380 basechar 0
LayerCount: 2
Fore
SplineSet
290 740 m 256
 290 390 511 148 801 148 c 256
 1091 148 1312 390 1312 740 c 256
 1312 1090 1091 1332 801 1332 c 256
 511 1332 290 1090 290 740 c 256
100 740 m 256
 100 1179 406 1500 801 1500 c 256
 1196 1500 1502 1179 1502 740 c 256
 1502 301 1196 -20 801 -20 c 256
 406 -20 100 301 100 740 c 256
1502 64 m 257
 1374 -64 l 257
 858 452 l 257
 986 580 l 257
 1502 64 l 257
EndSplineSet
Substitution2: "c2sc_CapitalesverspetitescapitalesdansLatinlookup0 subtable" q.sc
EndChar

StartChar: U
Encoding: 85 85 44
GlifName: U_
Width: 1398
VWidth: 0
GlyphClass: 2
Flags: HW
AnchorPoint: "bottom_right" 861 0 basechar 0
AnchorPoint: "bottom_center" 699 0 basechar 0
AnchorPoint: "top_right" 1258 1480 basechar 0
AnchorPoint: "top_center" 699 1380 basechar 0
LayerCount: 2
Fore
SplineSet
330 1480 m 257
 330 600 l 257
 330 350 449 148 699 148 c 256
 949 148 1068 350 1068 600 c 257
 1068 1480 l 257
 1258 1480 l 257
 1258 600 l 257
 1258 240 1059 -20 699 -20 c 256
 339 -20 140 240 140 600 c 257
 140 1480 l 257
 330 1480 l 257
EndSplineSet
Substitution2: "c2sc_CapitalesverspetitescapitalesdansLatinlookup0 subtable" u.sc
EndChar

StartChar: M
Encoding: 77 77 45
GlifName: M_
Width: 1588
VWidth: 0
GlyphClass: 2
Flags: HW
AnchorPoint: "top_center" 794 1380 basechar 0
AnchorPoint: "bottom_center" 794 0 basechar 0
LayerCount: 2
Fore
SplineSet
789 410 m 257
 1258 1480 l 257
 1343 1248 l 257
 863 160 l 257
 715 160 l 257
 237 1248 l 257
 330 1480 l 257
 789 410 l 257
1448 1480 m 257
 1448 0 l 257
 1258 0 l 257
 1258 1258 l 257
 1258 1480 l 257
 1448 1480 l 257
140 1480 m 257
 330 1480 l 257
 330 1304 l 257
 330 0 l 257
 140 0 l 257
 140 1480 l 257
EndSplineSet
Substitution2: "c2sc_CapitalesverspetitescapitalesdansLatinlookup0 subtable" m.sc
EndChar

StartChar: Z
Encoding: 90 90 46
GlifName: Z_
Width: 1300
VWidth: 0
GlyphClass: 2
Flags: HW
AnchorPoint: "top_center" 699 1380 basechar 0
AnchorPoint: "bottom_center" 696 0 basechar 0
LayerCount: 2
Fore
SplineSet
242 0 m 257
 140 152 l 257
 1038 1480 l 257
 1140 1328 l 257
 242 0 l 257
292 168 m 257
 1160 168 l 257
 1160 0 l 257
 790 0 510 0 140 0 c 257
 140 152 l 257
 292 168 l 257
160 1480 m 257
 530 1480 770 1480 1140 1480 c 257
 1140 1328 l 257
 986 1312 l 257
 160 1312 l 257
 160 1480 l 257
EndSplineSet
Substitution2: "c2sc_CapitalesverspetitescapitalesdansLatinlookup0 subtable" z.sc
EndChar

StartChar: X
Encoding: 88 88 47
GlifName: X_
Width: 1392
VWidth: 0
GlyphClass: 2
Flags: HW
AnchorPoint: "bottom_center" 696 0 basechar 0
AnchorPoint: "top_center" 696 1380 basechar 0
LayerCount: 2
Fore
SplineSet
694 617 m 257
 284 0 l 257
 70 0 l 257
 568 740 l 257
 70 1480 l 257
 284 1480 l 257
 696 858 l 257
 1108 1480 l 257
 1322 1480 l 257
 824 740 l 257
 1322 0 l 257
 1108 0 l 257
 694 617 l 257
EndSplineSet
Substitution2: "c2sc_CapitalesverspetitescapitalesdansLatinlookup0 subtable" x.sc
EndChar

StartChar: Y
Encoding: 89 89 48
GlifName: Y_
Width: 1392
VWidth: 0
GlyphClass: 2
Flags: HW
AnchorPoint: "greek_v" -80 1040 basechar 0
AnchorPoint: "greek_t" -284 1040 basechar 0
AnchorPoint: "greek_k" -158 1040 basechar 0
AnchorPoint: "greek_kt" -324 1040 basechar 0
AnchorPoint: "bottom_center" 696 0 basechar 0
AnchorPoint: "top_center" 696 1380 basechar 0
LayerCount: 2
Fore
SplineSet
601 0 m 257
 601 740 l 257
 791 740 l 257
 791 0 l 257
 601 0 l 257
755 628 m 257
 621 666 l 257
 70 1480 l 257
 284 1480 l 257
 696 858 l 257
 1108 1480 l 257
 1322 1480 l 257
 755 628 l 257
EndSplineSet
Substitution2: "c2sc_CapitalesverspetitescapitalesdansLatinlookup0 subtable" y.sc
EndChar

StartChar: W
Encoding: 87 87 49
GlifName: W_
Width: 1984
VWidth: 0
GlyphClass: 2
Flags: HW
AnchorPoint: "top_center" 992 1380 basechar 0
AnchorPoint: "bottom_center" 992 0 basechar 0
LayerCount: 2
Fore
SplineSet
1404 280 m 257
 1718 1480 l 257
 1914 1480 l 257
 1502 0 l 257
 1306 0 l 257
 992 1150 l 257
 678 0 l 257
 482 0 l 257
 70 1480 l 257
 266 1480 l 257
 580 280 l 257
 906 1480 l 257
 1078 1480 l 257
 1404 280 l 257
EndSplineSet
Substitution2: "c2sc_CapitalesverspetitescapitalesdansLatinlookup0 subtable" w.sc
EndChar

StartChar: J
Encoding: 74 74 50
GlifName: J_
Width: 1168
VWidth: 0
GlyphClass: 2
Flags: HW
AnchorPoint: "top_center" 933 1380 basechar 0
AnchorPoint: "bottom_center" 564 0 basechar 0
LayerCount: 2
Fore
SplineSet
293 491 m 257
 291 474 290 458 290 440 c 256
 290 260 384 148 564 148 c 256
 744 148 838 260 838 440 c 257
 838 1480 l 257
 1028 1480 l 257
 1028 440 l 257
 1028 170 834 -20 564 -20 c 256
 294 -20 100 170 100 440 c 257
 293 491 l 257
EndSplineSet
Substitution2: "c2sc_CapitalesverspetitescapitalesdansLatinlookup0 subtable" j.sc
EndChar

StartChar: K
Encoding: 75 75 51
GlifName: K_
Width: 1356
VWidth: 0
GlyphClass: 2
Flags: HW
AnchorPoint: "top_center" 699 1380 basechar 0
AnchorPoint: "bottom_center" 699 0 basechar 0
LayerCount: 2
Fore
SplineSet
549 794 m 257
 679 917 l 257
 1296 0 l 257
 1082 0 l 257
 549 794 l 257
330 490 m 257
 330 0 l 257
 140 0 l 257
 140 1480 l 257
 330 1480 l 257
 330 730 l 257
 1056 1480 l 257
 1116 1480 1236 1480 1296 1480 c 257
 330 490 l 257
EndSplineSet
Substitution2: "c2sc_CapitalesverspetitescapitalesdansLatinlookup0 subtable" k.sc
EndChar

StartChar: S
Encoding: 83 83 52
GlifName: S_
Width: 1220
VWidth: 0
GlyphClass: 2
Flags: HW
AnchorPoint: "top_center" 610 1380 basechar 0
AnchorPoint: "bottom_center" 610 0 basechar 0
LayerCount: 2
Fore
SplineSet
610 1332 m 260
 400 1332 335 1212 335 1084 c 256
 335 956 465 876 610 837 c 256
 900 759 1120 656 1120 396 c 256
 1120 136 916 -20 610 -20 c 256
 329 -20 127 158 100 396 c 257
 286 446 l 257
 286 289 409 148 610 148 c 256
 830 148 930 255 930 396 c 256
 930 537 803 601 610 653 c 256
 320 731 145 854 145 1084 c 256
 145 1314 319 1500 610 1500 c 256
 891 1500 1073 1332 1100 1094 c 257
 913 1044 l 257
 913 1201 811 1332 610 1332 c 260
EndSplineSet
Substitution2: "c2sc_CapitalesverspetitescapitalesdansLatinlookup0 subtable" s.sc
EndChar

StartChar: eight
Encoding: 56 56 53
GlifName: eight
Width: 1232
VWidth: 0
GlyphClass: 2
Flags: HW
LayerCount: 2
Fore
SplineSet
105 418 m 256
 105 569 186 702 320 781 c 257
 212 854 148 969 148 1098 c 256
 148 1321 340 1500 615 1500 c 256
 890 1500 1082 1321 1082 1098 c 256
 1082 969 1018 854 910 781 c 257
 1045 702 1127 570 1127 418 c 256
 1127 175 915 -20 615 -20 c 256
 315 -20 105 175 105 418 c 256
338 1094 m 256
 338 957 440 856 615 856 c 256
 790 856 892 957 892 1094 c 256
 892 1231 790 1332 615 1332 c 256
 440 1332 338 1231 338 1094 c 256
615 696 m 256
 415 696 295 578 295 422 c 256
 295 266 415 148 615 148 c 256
 815 148 937 266 937 422 c 256
 937 578 815 696 615 696 c 256
EndSplineSet
Substitution2: "tnumTabularNumbers subtable" eight.tnum
Substitution2: "pnumProportionalNumbers subtable" eight.pnum
Substitution2: "dnomDenominators subtable" eight.dnom
Substitution2: "numrNumerators subtable" eight.numr
Substitution2: "onumOldstyleFigures subtable" eight.onum
Substitution2: "subsSubscriptnumbers subtable" eight.subscript
Substitution2: "supsSupscriptnumbers subtable" eight.superior
Substitution2: "ss02Alternativenumbersset2 subtable" eight.cv18
Substitution2: "ss01Alternativenumbersset1 subtable" eight.cv08
Substitution2: "cv18Alternativedigit82 subtable" eight.cv18
Substitution2: "cv08Alternativedigit81 subtable" eight.cv08
EndChar

StartChar: six
Encoding: 54 54 54
GlifName: six
Width: 1232
VWidth: 0
GlyphClass: 2
Flags: HW
LayerCount: 2
Fore
SplineSet
756 1500 m 256
 966 1500 1087 1380 1087 1380 c 257
 1000 1227 l 257
 1000 1227 912 1332 717 1332 c 256
 493 1332 287 1096 287 696 c 256
 287 336 374 282 374 282 c 257
 228 200 l 257
 228 200 105 366 105 696 c 256
 105 1216 396 1500 756 1500 c 256
321 486 m 256
 321 282 451 148 629 148 c 256
 807 148 937 282 937 486 c 256
 937 690 807 824 629 824 c 256
 451 824 321 690 321 486 c 256
153 486 m 257
 225 486 l 257
 225 769 338 992 629 992 c 256
 920 992 1127 777 1127 486 c 256
 1127 195 920 -20 629 -20 c 256
 338 -20 153 195 153 486 c 257
EndSplineSet
Substitution2: "tnumTabularNumbers subtable" six.tnum
Substitution2: "pnumProportionalNumbers subtable" six.pnum
Substitution2: "dnomDenominators subtable" six.dnom
Substitution2: "numrNumerators subtable" six.numr
Substitution2: "onumOldstyleFigures subtable" six.onum
Substitution2: "subsSubscriptnumbers subtable" six.subscript
Substitution2: "supsSupscriptnumbers subtable" six.superior
Substitution2: "ss02Alternativenumbersset2 subtable" six.cv16
Substitution2: "ss01Alternativenumbersset1 subtable" six.cv06
Substitution2: "cv16Alternativedigit62 subtable" six.cv16
Substitution2: "cv06Alternativedigit61 subtable" six.cv06
EndChar

StartChar: nine
Encoding: 57 57 55
GlifName: nine
Width: 1232
VWidth: 0
GlyphClass: 2
Flags: HW
LayerCount: 2
Fore
SplineSet
476 -20 m 256
 266 -20 145 100 145 100 c 257
 232 253 l 257
 232 253 320 148 515 148 c 256
 739 148 945 384 945 784 c 256
 945 1144 858 1198 858 1198 c 257
 1004 1280 l 257
 1004 1280 1127 1114 1127 784 c 256
 1127 264 836 -20 476 -20 c 256
911 994 m 256
 911 1198 781 1332 603 1332 c 256
 425 1332 295 1198 295 994 c 256
 295 790 425 656 603 656 c 256
 781 656 911 790 911 994 c 256
1079 994 m 257
 1007 994 l 257
 1007 711 894 488 603 488 c 256
 312 488 105 703 105 994 c 256
 105 1285 312 1500 603 1500 c 256
 894 1500 1079 1285 1079 994 c 257
EndSplineSet
Substitution2: "tnumTabularNumbers subtable" nine.tnum
Substitution2: "pnumProportionalNumbers subtable" nine.pnum
Substitution2: "dnomDenominators subtable" nine.dnom
Substitution2: "numrNumerators subtable" nine.numr
Substitution2: "onumOldstyleFigures subtable" nine.onum
Substitution2: "subsSubscriptnumbers subtable" nine.subscript
Substitution2: "supsSupscriptnumbers subtable" nine.superior
Substitution2: "ss02Alternativenumbersset2 subtable" nine.cv19
Substitution2: "ss01Alternativenumbersset1 subtable" nine.cv09
Substitution2: "cv19Alternativedigit92 subtable" nine.cv19
Substitution2: "cv09Alternativedigit91 subtable" nine.cv09
EndChar

StartChar: three
Encoding: 51 51 56
GlifName: three
Width: 1232
VWidth: 0
GlyphClass: 2
Flags: HW
LayerCount: 2
Fore
SplineSet
615 856 m 258
 790 856 892 957 892 1094 c 256
 892 1231 790 1332 615 1332 c 256
 440 1332 336 1207 336 1070 c 257
 149 1120 l 257
 175 1321 340 1500 615 1500 c 256
 890 1500 1082 1320 1082 1098 c 256
 1082 969 1018 854 910 781 c 257
 1045 702 1127 570 1127 418 c 256
 1127 175 915 -20 615 -20 c 256
 334 -20 132 158 105 396 c 257
 292 446 l 257
 292 290 415 148 615 148 c 256
 815 148 937 266 937 422 c 256
 937 578 815 696 615 696 c 258
 520 696 l 257
 520 856 l 257
 615 856 l 258
EndSplineSet
Substitution2: "tnumTabularNumbers subtable" three.tnum
Substitution2: "pnumProportionalNumbers subtable" three.pnum
Substitution2: "dnomDenominators subtable" three.dnom
Substitution2: "numrNumerators subtable" three.numr
Substitution2: "onumOldstyleFigures subtable" three.onum
Substitution2: "subsSubscriptnumbers subtable" three.subscript
Substitution2: "supsSupscriptnumbers subtable" three.superior
Substitution2: "ss02Alternativenumbersset2 subtable" three.cv13
Substitution2: "ss01Alternativenumbersset1 subtable" three.cv03
Substitution2: "cv13Alternativedigit32 subtable" three.cv13
Substitution2: "cv03Alternativedigit31 subtable" three.cv03
EndChar

StartChar: zero
Encoding: 48 48 57
GlifName: zero
Width: 1232
VWidth: 0
GlyphClass: 2
Flags: HW
LayerCount: 2
Fore
SplineSet
295 740 m 256
 295 340 425 148 616 148 c 256
 807 148 937 340 937 740 c 256
 937 1140 807 1332 616 1332 c 256
 425 1332 295 1140 295 740 c 256
105 740 m 256
 105 1240 316 1500 616 1500 c 256
 916 1500 1127 1240 1127 740 c 256
 1127 240 916 -20 616 -20 c 256
 316 -20 105 240 105 740 c 256
EndSplineSet
Substitution2: "tnumTabularNumbers subtable" zero.tnum
Substitution2: "pnumProportionalNumbers subtable" zero.pnum
Substitution2: "dnomDenominators subtable" zero.dnom
Substitution2: "numrNumerators subtable" zero.numr
Substitution2: "onumOldstyleFigures subtable" zero.onum
Substitution2: "subsSubscriptnumbers subtable" zero.subscript
Substitution2: "supsSupscriptnumbers subtable" zero.superior
Substitution2: "zeroSlashedZerolookups61 subtable" zero.zero
Substitution2: "ss02Alternativenumbersset2 subtable" zero.cv20
Substitution2: "ss01Alternativenumbersset1 subtable" zero.cv10
Substitution2: "cv20Alternativedigit02 subtable" zero.cv20
Substitution2: "cv10Alternativedigit01 subtable" zero.cv10
EndChar

StartChar: two
Encoding: 50 50 58
GlifName: two
Width: 1232
VWidth: 0
GlyphClass: 2
Flags: HW
LayerCount: 2
Fore
SplineSet
321 949 m 257
 128 1000 l 257
 128 1300 336 1500 616 1500 c 256
 896 1500 1104 1320 1104 1040 c 257
 914 1040 l 257
 914 1220 796 1332 616 1332 c 256
 436 1332 318 1180 318 1000 c 256
 318 982 319 966 321 949 c 257
120 0 m 257
 120 160 131 388 616 668 c 256
 772 758 914 860 914 1040 c 257
 1104 1040 l 257
 1104 749 858 608 616 468 c 256
 313 293 310 90 310 0 c 257
 254 0 176 0 120 0 c 257
212 168 m 257
 1112 168 l 257
 1112 0 l 257
 310 0 l 257
 212 168 l 257
EndSplineSet
Substitution2: "tnumTabularNumbers subtable" two.tnum
Substitution2: "pnumProportionalNumbers subtable" two.pnum
Substitution2: "dnomDenominators subtable" two.dnom
Substitution2: "numrNumerators subtable" two.numr
Substitution2: "onumOldstyleFigures subtable" two.onum
Substitution2: "subsSubscriptnumbers subtable" two.subscript
Substitution2: "supsSupscriptnumbers subtable" two.superior
Substitution2: "ss02Alternativenumbersset2 subtable" two.cv12
Substitution2: "ss01Alternativenumbersset1 subtable" two.cv02
Substitution2: "cv12Alternativedigit22 subtable" two.cv12
Substitution2: "cv02Alternativedigit21 subtable" two.cv02
EndChar

StartChar: seven
Encoding: 55 55 59
GlifName: seven
Width: 1232
VWidth: 0
GlyphClass: 2
Flags: HW
LayerCount: 2
Fore
SplineSet
889 1312 m 257
 1107 1328 l 257
 1107 1328 612 837 539 0 c 257
 480 0 406 0 347 0 c 257
 417 840 889 1312 889 1312 c 257
125 1312 m 257
 125 1480 l 257
 1107 1480 l 257
 1107 1328 l 257
 889 1312 l 257
 125 1312 l 257
EndSplineSet
Substitution2: "tnumTabularNumbers subtable" seven.tnum
Substitution2: "pnumProportionalNumbers subtable" seven.pnum
Substitution2: "dnomDenominators subtable" seven.dnom
Substitution2: "numrNumerators subtable" seven.numr
Substitution2: "onumOldstyleFigures subtable" seven.onum
Substitution2: "subsSubscriptnumbers subtable" seven.subscript
Substitution2: "supsSupscriptnumbers subtable" seven.superior
Substitution2: "ss07StyleSet7lookups59 subtable" seven.ss07
Substitution2: "ss02Alternativenumbersset2 subtable" seven.cv17
Substitution2: "ss01Alternativenumbersset1 subtable" seven.cv07
Substitution2: "cv17Alternativedigit72 subtable" seven.cv17
Substitution2: "cv07Alternativedigit71 subtable" seven.cv07
EndChar

StartChar: four
Encoding: 52 52 60
GlifName: four
Width: 1232
VWidth: 0
GlyphClass: 2
Flags: HW
LayerCount: 2
Fore
SplineSet
125 488 m 257
 609 1480 l 257
 809 1480 l 257
 321 488 l 257
 707 488 l 257
 707 808 l 257
 897 808 l 257
 897 488 l 257
 1107 488 l 257
 1107 320 l 257
 897 320 l 257
 897 0 l 257
 707 0 l 257
 707 320 l 257
 125 320 l 257
 125 488 l 257
EndSplineSet
Substitution2: "tnumTabularNumbers subtable" four.tnum
Substitution2: "pnumProportionalNumbers subtable" four.pnum
Substitution2: "dnomDenominators subtable" four.dnom
Substitution2: "numrNumerators subtable" four.numr
Substitution2: "onumOldstyleFigures subtable" four.onum
Substitution2: "subsSubscriptnumbers subtable" four.subscript
Substitution2: "supsSupscriptnumbers subtable" four.superior
Substitution2: "ss02Alternativenumbersset2 subtable" four.cv14
Substitution2: "ss01Alternativenumbersset1 subtable" four.cv04
Substitution2: "cv14Alternativedigit42 subtable" four.cv14
Substitution2: "cv04Alternativedigit41 subtable" four.cv04
EndChar

StartChar: five
Encoding: 53 53 61
GlifName: five
Width: 1232
VWidth: 0
GlyphClass: 2
Flags: HW
LayerCount: 2
Fore
SplineSet
318 668 m 257
 205 701 l 257
 292 858 382 986 615 986 c 256
 896 986 1127 774 1127 483 c 256
 1127 192 895 -20 614 -20 c 256
 333 -20 131 158 104 396 c 257
 291 446 l 257
 291 290 414 148 614 148 c 256
 793 148 937 279 937 483 c 256
 937 687 793 818 615 818 c 256
 459 818 374 763 318 668 c 257
318 751 m 257
 205 701 l 257
 139 720 l 257
 247 1480 l 257
 304 1480 370 1480 427 1480 c 257
 318 751 l 257
311 1312 m 257
 427 1480 l 257
 1055 1480 l 257
 1055 1312 l 257
 311 1312 l 257
EndSplineSet
Substitution2: "tnumTabularNumbers subtable" five.tnum
Substitution2: "pnumProportionalNumbers subtable" five.pnum
Substitution2: "dnomDenominators subtable" five.dnom
Substitution2: "numrNumerators subtable" five.numr
Substitution2: "onumOldstyleFigures subtable" five.onum
Substitution2: "subsSubscriptnumbers subtable" five.subscript
Substitution2: "supsSupscriptnumbers subtable" five.superior
Substitution2: "ss02Alternativenumbersset2 subtable" five.cv15
Substitution2: "ss01Alternativenumbersset1 subtable" five.cv05
Substitution2: "cv15Alternativedigit52 subtable" five.cv15
Substitution2: "cv05Alternativedigit51 subtable" five.cv05
EndChar

StartChar: one
Encoding: 49 49 62
GlifName: one
Width: 1232
VWidth: 0
GlyphClass: 2
Flags: HW
LayerCount: 2
Fore
SplineSet
581 1026 m 257
 265 1026 l 257
 265 1184 l 257
 345 1184 l 258
 473 1184 593 1280 593 1408 c 258
 593 1480 l 257
 771 1480 l 257
 771 1040 l 257
 771 0 l 257
 581 0 l 257
 581 1026 l 257
EndSplineSet
Substitution2: "tnumTabularNumbers subtable" one.tnum
Substitution2: "pnumProportionalNumbers subtable" one.pnum
Substitution2: "dnomDenominators subtable" one.dnom
Substitution2: "numrNumerators subtable" one.numr
Substitution2: "onumOldstyleFigures subtable" one.onum
Substitution2: "subsSubscriptnumbers subtable" one.subscript
Substitution2: "supsSupscriptnumbers subtable" one.superior
Substitution2: "ss06StyleSet6lookups58 subtable" one.ss06
Substitution2: "ss02Alternativenumbersset2 subtable" one.cv11
Substitution2: "ss01Alternativenumbersset1 subtable" one.cv01
Substitution2: "cv11Alternativedigit12 subtable" one.cv11
Substitution2: "cv01Alternativedigit11 subtable" one.cv01
EndChar

StartChar: period
Encoding: 46 46 63
GlifName: period
Width: 532
VWidth: 0
GlyphClass: 2
Flags: HW
LayerCount: 2
Fore
SplineSet
140 107 m 256
 140 179 193 236 265 236 c 256
 337 236 392 179 392 107 c 256
 392 35 337 -20 265 -20 c 256
 193 -20 140 35 140 107 c 256
EndSplineSet
EndChar

StartChar: comma
Encoding: 44 44 64
GlifName: comma
Width: 568
VWidth: 0
GlyphClass: 2
Flags: HW
LayerCount: 2
Fore
SplineSet
140 107 m 256
 140 179 193 236 265 236 c 256
 337 236 392 179 392 107 c 256
 392 35 337 -20 265 -20 c 256
 193 -20 140 35 140 107 c 256
155 -161 m 257
 212 -148 301 -100 301 20 c 256
 301 48 266 108 266 108 c 257
 265 236 l 257
 335 236 428 190 428 20 c 256
 428 -160 262 -256 185 -276 c 257
 155 -161 l 257
EndSplineSet
EndChar

StartChar: colon
Encoding: 58 58 65
GlifName: colon
Width: 532
VWidth: 0
GlyphClass: 2
Flags: HW
LayerCount: 2
Fore
SplineSet
140 931 m 256
 140 1003 193 1060 265 1060 c 256
 337 1060 392 1003 392 931 c 256
 392 859 337 804 265 804 c 256
 193 804 140 859 140 931 c 256
140 107 m 256
 140 179 193 236 265 236 c 256
 337 236 392 179 392 107 c 256
 392 35 337 -20 265 -20 c 256
 193 -20 140 35 140 107 c 256
EndSplineSet
Substitution2: "Single Substitution lookup 61 subtable" colon.centered
EndChar

StartChar: semicolon
Encoding: 59 59 66
GlifName: semicolon
Width: 568
VWidth: 0
GlyphClass: 2
Flags: HW
LayerCount: 2
Fore
SplineSet
140 107 m 256
 140 179 193 236 265 236 c 256
 337 236 392 179 392 107 c 256
 392 35 337 -20 265 -20 c 256
 193 -20 140 35 140 107 c 256
155 -161 m 257
 212 -148 301 -100 301 20 c 256
 301 48 266 108 266 108 c 257
 265 236 l 257
 335 236 428 190 428 20 c 256
 428 -160 262 -256 185 -276 c 257
 155 -161 l 257
140 931 m 256
 140 1003 193 1060 265 1060 c 256
 337 1060 392 1003 392 931 c 256
 392 859 337 804 265 804 c 256
 193 804 140 859 140 931 c 256
EndSplineSet
EndChar

StartChar: slash
Encoding: 47 47 67
GlifName: slash
Width: 964
VWidth: 0
GlyphClass: 2
Flags: HW
LayerCount: 2
Fore
SplineSet
894 1640 m 257
 260 -200 l 257
 70 -200 l 257
 704 1640 l 257
 894 1640 l 257
EndSplineSet
EndChar

StartChar: parenleft
Encoding: 40 40 68
GlifName: parenleft
Width: 818
VWidth: 0
GlyphClass: 2
Flags: HW
LayerCount: 2
Fore
SplineSet
100 660 m 256
 100 1260 534 1605 684 1660 c 257
 768 1515 l 257
 655 1474 280 1200 280 660 c 256
 280 120 655 -154 768 -195 c 257
 684 -340 l 257
 534 -285 100 60 100 660 c 256
EndSplineSet
EndChar

StartChar: exclam
Encoding: 33 33 69
GlifName: exclam
Width: 532
VWidth: 0
GlyphClass: 2
Flags: HW
LayerCount: 2
Fore
SplineSet
140 107 m 256
 140 179 193 236 265 236 c 256
 337 236 392 179 392 107 c 256
 392 35 337 -20 265 -20 c 256
 193 -20 140 35 140 107 c 256
159 1480 m 257
 371 1480 l 257
 355 452 l 257
 175 452 l 257
 159 1480 l 257
EndSplineSet
EndChar

StartChar: question
Encoding: 63 63 70
GlifName: question
Width: 1144
VWidth: 0
GlyphClass: 2
Flags: HW
LayerCount: 2
Fore
SplineSet
572 1340 m 256
 382 1340 280 1190 280 1032 c 256
 280 1013 282 995 285 978 c 257
 100 1032 l 257
 100 1302 302 1500 572 1500 c 256
 842 1500 1044 1324 1044 1054 c 256
 1044 784 827 608 572 608 c 257
 572 776 l 257
 762 776 864 896 864 1054 c 256
 864 1212 761 1340 572 1340 c 256
442 107 m 256
 442 179 495 236 567 236 c 256
 639 236 694 179 694 107 c 256
 694 35 639 -20 567 -20 c 256
 495 -20 442 35 442 107 c 256
482 452 m 257
 482 776 l 257
 662 776 l 257
 662 452 l 257
 482 452 l 257
EndSplineSet
EndChar

StartChar: quotesingle
Encoding: 39 39 71
GlifName: quotesingle
Width: 464
VWidth: 0
GlyphClass: 2
Flags: HW
LayerCount: 2
Fore
SplineSet
152 968 m 257
 140 1480 l 257
 324 1480 l 257
 312 968 l 257
 152 968 l 257
EndSplineSet
EndChar

StartChar: quotedbl
Encoding: 34 34 72
GlifName: quotedbl
Width: 808
VWidth: 0
GlyphClass: 2
Flags: HW
LayerCount: 2
Fore
SplineSet
496 968 m 257
 484 1480 l 257
 668 1480 l 257
 656 968 l 257
 496 968 l 257
152 968 m 257
 140 1480 l 257
 324 1480 l 257
 312 968 l 257
 152 968 l 257
EndSplineSet
EndChar

StartChar: bracketleft
Encoding: 91 91 73
GlifName: bracketleft
Width: 858
VWidth: 0
GlyphClass: 2
Flags: HW
LayerCount: 2
Fore
SplineSet
788 1480 m 257
 320 1480 l 257
 320 -160 l 257
 788 -160 l 257
 788 -320 l 257
 140 -320 l 257
 140 1640 l 257
 788 1640 l 257
 788 1480 l 257
EndSplineSet
EndChar

StartChar: bracketright
Encoding: 93 93 74
GlifName: bracketright
Width: 858
VWidth: 0
GlyphClass: 2
Flags: HW
LayerCount: 2
Fore
SplineSet
70 1480 m 257
 70 1640 l 257
 718 1640 l 257
 718 -320 l 257
 70 -320 l 257
 70 -160 l 257
 538 -160 l 257
 538 1480 l 257
 70 1480 l 257
EndSplineSet
EndChar

StartChar: parenright
Encoding: 41 41 75
GlifName: parenright
Width: 818
VWidth: 0
GlyphClass: 2
Flags: HW
LayerCount: 2
Fore
SplineSet
718 660 m 256
 718 60 284 -285 134 -340 c 257
 50 -195 l 257
 163 -154 538 120 538 660 c 256
 538 1200 163 1474 50 1515 c 257
 134 1660 l 257
 284 1605 718 1260 718 660 c 256
EndSplineSet
EndChar

StartChar: braceleft
Encoding: 123 123 76
GlifName: braceleft
Width: 770
VWidth: 0
GlyphClass: 2
Flags: HW
LayerCount: 2
Fore
SplineSet
480 60 m 258
 480 -98 542 -160 700 -160 c 257
 700 -320 l 257
 445 -320 300 -195 300 60 c 258
 300 410 l 258
 300 520 210 580 100 580 c 257
 100 740 l 257
 320 740 480 630 480 410 c 258
 480 60 l 258
480 1260 m 258
 480 910 l 258
 480 690 320 580 100 580 c 257
 100 740 l 257
 210 740 300 800 300 910 c 258
 300 1260 l 258
 300 1515 445 1640 700 1640 c 257
 700 1480 l 257
 542 1480 480 1418 480 1260 c 258
EndSplineSet
EndChar

StartChar: braceright
Encoding: 125 125 77
GlifName: braceright
Width: 770
VWidth: 0
GlyphClass: 2
Flags: HW
LayerCount: 2
Fore
SplineSet
290 60 m 258
 290 410 l 258
 290 630 450 740 670 740 c 257
 670 580 l 257
 560 580 470 520 470 410 c 258
 470 60 l 258
 470 -195 325 -320 70 -320 c 257
 70 -160 l 257
 228 -160 290 -98 290 60 c 258
290 1260 m 258
 290 1418 228 1480 70 1480 c 257
 70 1640 l 257
 325 1640 470 1515 470 1260 c 258
 470 910 l 258
 470 800 560 740 670 740 c 257
 670 580 l 257
 450 580 290 690 290 910 c 258
 290 1260 l 258
EndSplineSet
EndChar

StartChar: backslash
Encoding: 92 92 78
GlifName: backslash
Width: 964
VWidth: 0
GlyphClass: 2
Flags: HW
LayerCount: 2
Fore
SplineSet
70 1640 m 257
 260 1640 l 257
 894 -200 l 257
 704 -200 l 257
 70 1640 l 257
EndSplineSet
EndChar

StartChar: bar
Encoding: 124 124 79
GlifName: bar
Width: 460
VWidth: 0
GlyphClass: 2
Flags: HW
LayerCount: 2
Fore
SplineSet
320 1640 m 257
 320 -440 l 257
 140 -440 l 257
 140 1640 l 257
 320 1640 l 257
EndSplineSet
EndChar

StartChar: numbersign
Encoding: 35 35 80
GlifName: numbersign
Width: 1498
VWidth: 0
GlyphClass: 2
Flags: HW
LayerCount: 2
Fore
SplineSet
140 440 m 257
 140 600 l 257
 1320 600 l 257
 1320 440 l 257
 140 440 l 257
178 880 m 257
 178 1040 l 257
 1358 1040 l 257
 1358 880 l 257
 178 880 l 257
986 1480 m 257
 1170 1480 l 257
 976 0 l 257
 919 0 849 0 792 0 c 257
 986 1480 l 257
522 1480 m 257
 706 1480 l 257
 512 0 l 257
 455 0 385 0 328 0 c 257
 522 1480 l 257
EndSplineSet
EndChar

StartChar: gravecomb
Encoding: 768 768 83
GlifName: gravecomb
Width: 0
VWidth: 0
GlyphClass: 4
Flags: HW
HStem: 1224 256<337 563 337 741>
VStem: 337 404<1224 1480>
AnchorPoint: "mark_anchor_left" 642 1224 mark 0
AnchorPoint: "top_center" 642 1040 mark 0
LayerCount: 2
Fore
SplineSet
563 1224 m 257
 337 1480 l 257
 563 1480 l 257
 741 1224 l 257
 563 1224 l 257
EndSplineSet
PickledDataWithLists: "(dp0
Vcom.fontlab.hintData
p1
(dp2
Vhhints
p3
(lp4
(dp5
Vposition
p6
I1224
sVwidth
p7
I256
sasVvhints
p8
(lp9
(dp10
g6
I337
sg7
I404
sass."
EndChar

StartChar: acutecomb
Encoding: 769 769 84
GlifName: acutecomb
Width: 0
VWidth: 0
GlyphClass: 4
Flags: HW
AnchorPoint: "mark_anchor_right" 642 1224 mark 0
AnchorPoint: "top_center" 642 1040 mark 0
LayerCount: 2
Fore
SplineSet
721 1224 m 257
 543 1224 l 257
 721 1480 l 257
 947 1480 l 257
 721 1224 l 257
EndSplineSet
EndChar

StartChar: uni0302
Encoding: 770 770 85
GlifName: uni0302
Width: 0
VWidth: 0
GlyphClass: 4
Flags: HW
AnchorPoint: "mark_anchor_top" 642 1506 basemark 0
AnchorPoint: "mark_anchor_right" 933 1400 basemark 0
AnchorPoint: "mark_anchor_left" 351 1400 basemark 0
AnchorPoint: "top_center" 642 1040 mark 0
LayerCount: 2
Fore
SplineSet
755 1224 m 257
 547 1480 l 257
 737 1480 l 257
 933 1224 l 257
 755 1224 l 257
529 1224 m 257
 351 1224 l 257
 547 1480 l 257
 737 1480 l 257
 529 1224 l 257
EndSplineSet
EndChar

StartChar: tildecomb
Encoding: 771 771 86
GlifName: tildecomb
Width: 0
VWidth: 0
GlyphClass: 4
Flags: HW
AnchorPoint: "mark_anchor_top" 642 1224 mark 0
AnchorPoint: "mark_anchor_center" 642 1654 basemark 0
AnchorPoint: "mark_anchor_top" 642 1641 basemark 0
AnchorPoint: "mark_anchor_left" 642 1526 basemark 0
AnchorPoint: "mark_anchor_right" 642 1526 basemark 0
AnchorPoint: "top_center" 642 1040 mark 0
LayerCount: 2
Fore
SplineSet
440 1237 m 257
 301 1274 l 257
 317 1410 407 1500 515 1500 c 256
 647 1500 681 1364 761 1364 c 256
 809 1364 831 1427 836 1487 c 257
 975 1450 l 257
 959 1314 869 1224 761 1224 c 256
 629 1224 595 1360 515 1360 c 256
 467 1360 445 1297 440 1237 c 257
EndSplineSet
EndChar

StartChar: uni0308
Encoding: 776 776 87
GlifName: uni0308
Width: 0
VWidth: 0
GlyphClass: 4
Flags: HW
AnchorPoint: "mark_anchor_center" 642 1372 mark 0
AnchorPoint: "mark_anchor_center" 642 1525 basemark 0
AnchorPoint: "mark_anchor_top" 642 1641 basemark 0
AnchorPoint: "mark_anchor_right" 642 1480 basemark 0
AnchorPoint: "mark_anchor_left" 642 1480 basemark 0
AnchorPoint: "top_center" 642 1040 mark 0
LayerCount: 2
Fore
SplineSet
737 1372 m 256
 737 1444 793 1500 865 1500 c 256
 937 1500 993 1444 993 1372 c 256
 993 1300 937 1244 865 1244 c 256
 793 1244 737 1300 737 1372 c 256
289 1372 m 256
 289 1444 345 1500 417 1500 c 256
 489 1500 545 1444 545 1372 c 256
 545 1300 489 1244 417 1244 c 256
 345 1244 289 1300 289 1372 c 256
EndSplineSet
EndChar

StartChar: uni030A
Encoding: 778 778 88
GlifName: uni030A_
Width: 0
VWidth: 0
GlyphClass: 4
Flags: HW
AnchorPoint: "mark_anchor_left" 321 1400 basemark 0
AnchorPoint: "mark_anchor_right" 964 1400 basemark 0
AnchorPoint: "top_center" 642 1040 mark 0
LayerCount: 2
Fore
SplineSet
434 1347 m 256
 434 1457 532 1544 642 1544 c 256
 752 1544 850 1457 850 1347 c 256
 850 1237 752 1150 642 1150 c 256
 532 1150 434 1237 434 1347 c 256
562 1347 m 256
 562 1301 596 1267 642 1267 c 256
 688 1267 722 1301 722 1347 c 256
 722 1393 688 1427 642 1427 c 256
 596 1427 562 1393 562 1347 c 256
EndSplineSet
EndChar

StartChar: uni0327
Encoding: 807 807 90
GlifName: uni0327
Width: 0
VWidth: 0
GlyphClass: 4
Flags: HW
AnchorPoint: "bottom_cedilla" 642 -20 mark 0
LayerCount: 2
Fore
SplineSet
485 -291 m 257
 593 -229 l 257
 611 -258 636 -263 657 -263 c 256
 689 -263 710 -240 710 -216 c 256
 710 -192 689 -169 657 -169 c 256
 635 -169 617 -178 609 -192 c 257
 501 -130 l 257
 533 -84 592 -52 657 -52 c 256
 757 -52 837 -126 837 -216 c 256
 837 -306 757 -380 657 -380 c 256
 591 -380 523 -352 485 -291 c 257
578 0 m 257
 706 0 l 257
 610 -165 l 257
 609 -192 l 257
 502 -131 l 257
 578 0 l 257
EndSplineSet
EndChar

StartChar: dotlessi
Encoding: 305 305 141
GlifName: dotlessi
Width: 460
VWidth: 0
GlyphClass: 3
Flags: HW
AnchorPoint: "top_center" 230 1040 basechar 0
AnchorPoint: "bottom_center" 230 0 basechar 0
AnchorPoint: "bottom_right" 320 0 basechar 0
LayerCount: 2
Fore
SplineSet
140 0 m 257
 140 1040 l 257
 320 1040 l 257
 320 0 l 257
 140 0 l 257
EndSplineSet
Ligature2: "ligaStandardLigatureslookup0 subtable" i uni030A
EndChar

StartChar: dollar
Encoding: 36 36 142
GlifName: dollar
Width: 1220
VWidth: 0
GlyphClass: 2
Flags: HW
LayerCount: 2
Fore
SplineSet
610 1332 m 256
 400 1332 335 1212 335 1084 c 256
 335 956 465 876 610 837 c 256
 900 759 1120 656 1120 396 c 256
 1120 136 916 -20 610 -20 c 256
 329 -20 127 158 100 396 c 257
 286 446 l 257
 286 289 409 148 610 148 c 256
 830 148 930 255 930 396 c 256
 930 537 803 601 610 653 c 256
 320 731 145 854 145 1084 c 256
 145 1314 319 1500 610 1500 c 256
 891 1500 1073 1332 1100 1094 c 257
 913 1044 l 257
 913 1201 811 1332 610 1332 c 256
686 1660 m 257
 686 -180 l 257
 534 -180 l 257
 534 1660 l 257
 686 1660 l 257
EndSplineSet
Substitution2: "ss05StyleSet5lookups57 subtable" dollar.ss05
EndChar

StartChar: plus
Encoding: 43 43 143
GlifName: plus
Width: 1232
VWidth: 0
GlyphClass: 2
Flags: HW
LayerCount: 2
Fore
SplineSet
526 1136 m 257
 706 1136 l 257
 706 184 l 257
 526 184 l 257
 526 1136 l 257
140 580 m 257
 140 740 l 257
 1092 740 l 257
 1092 580 l 257
 140 580 l 257
EndSplineSet
EndChar

StartChar: hyphen
Encoding: 45 45 144
GlifName: hyphen
Width: 1028
VWidth: 0
GlyphClass: 2
Flags: HW
LayerCount: 2
Fore
SplineSet
140 580 m 257
 140 740 l 257
 888 740 l 257
 888 580 l 257
 140 580 l 257
EndSplineSet
EndChar

StartChar: equal
Encoding: 61 61 145
GlifName: equal
Width: 1232
VWidth: 0
GlyphClass: 2
Flags: HW
LayerCount: 2
Fore
SplineSet
1092 920 m 257
 1092 760 l 257
 140 760 l 257
 140 920 l 257
 1092 920 l 257
140 400 m 257
 140 560 l 257
 1092 560 l 257
 1092 400 l 257
 140 400 l 257
EndSplineSet
EndChar

StartChar: percent
Encoding: 37 37 146
GlifName: percent
Width: 1634
VWidth: 0
GlyphClass: 2
Flags: HW
LayerCount: 2
Fore
SplineSet
280 1180 m 256
 280 1090 330 1020 420 1020 c 256
 510 1020 560 1090 560 1180 c 256
 560 1270 510 1340 420 1340 c 256
 330 1340 280 1270 280 1180 c 256
100 1180 m 256
 100 1358 242 1500 420 1500 c 256
 598 1500 740 1358 740 1180 c 256
 740 1002 598 860 420 860 c 256
 242 860 100 1002 100 1180 c 256
1074 300 m 256
 1074 210 1124 140 1214 140 c 256
 1304 140 1354 210 1354 300 c 256
 1354 390 1304 460 1214 460 c 256
 1124 460 1074 390 1074 300 c 256
894 300 m 256
 894 478 1036 620 1214 620 c 256
 1392 620 1534 478 1534 300 c 256
 1534 122 1392 -20 1214 -20 c 256
 1036 -20 894 122 894 300 c 256
1335 1395 m 257
 438 0 l 257
 291 85 l 257
 1188 1480 l 257
 1335 1395 l 257
EndSplineSet
EndChar

StartChar: degree
Encoding: 176 176 147
GlifName: degree
Width: 840
VWidth: 0
GlyphClass: 2
Flags: HW
LayerCount: 2
Fore
SplineSet
280 1180 m 256
 280 1090 330 1020 420 1020 c 256
 510 1020 560 1090 560 1180 c 256
 560 1270 510 1340 420 1340 c 256
 330 1340 280 1270 280 1180 c 256
100 1180 m 256
 100 1358 242 1500 420 1500 c 256
 598 1500 740 1358 740 1180 c 256
 740 1002 598 860 420 860 c 256
 242 860 100 1002 100 1180 c 256
EndSplineSet
EndChar

StartChar: ampersand
Encoding: 38 38 148
GlifName: ampersand
Width: 1355
VWidth: 0
GlyphClass: 2
Flags: HW
LayerCount: 2
Fore
SplineSet
316 885 m 257
 260 960 228 1026 228 1128 c 256
 228 1347 400 1500 600 1500 c 256
 800 1500 972 1372 972 1172 c 257
 792 1152 l 257
 792 1252 720 1340 600 1340 c 256
 492 1340 408 1268 408 1128 c 256
 408 1068 422 1023 459 976 c 257
 1255 0 l 257
 1184 0 1112 0 1041 0 c 257
 316 885 l 257
281 418 m 257
 281 262 400 140 600 140 c 256
 900 140 1020 420 1020 620 c 257
 1191 573 l 257
 1171 288 1020 -20 600 -20 c 256
 300 -20 100 175 100 418 c 256
 100 661 340 776 600 926 c 256
 730 1001 792 1052 792 1152 c 257
 972 1172 l 257
 972 972 799 855 600 740 c 256
 427 640 281 561 281 418 c 257
EndSplineSet
Substitution2: "cv26CharacterVariants26lookups67 subtable" ampersand.cv26
EndChar

StartChar: asterisk
Encoding: 42 42 149
GlifName: asterisk
Width: 1036
VWidth: 0
GlyphClass: 2
Flags: HW
LayerCount: 2
Fore
SplineSet
100 1109 m 257
 156 1284 l 257
 543 1146 l 257
 518 1070 l 257
 493 994 l 257
 100 1109 l 257
351 684 m 257
 203 792 l 257
 453 1117 l 257
 518 1070 l 257
 583 1023 l 257
 351 684 l 257
833 792 m 257
 685 684 l 257
 453 1023 l 257
 518 1070 l 257
 583 1117 l 257
 833 792 l 257
880 1284 m 257
 936 1109 l 257
 543 994 l 257
 518 1070 l 257
 493 1146 l 257
 880 1284 l 257
426 1480 m 257
 610 1480 l 257
 598 1070 l 257
 518 1070 l 257
 438 1070 l 257
 426 1480 l 257
EndSplineSet
Substitution2: "Single Substitution lookup 60 subtable" asterisk.centered
EndChar

StartChar: less
Encoding: 60 60 150
GlifName: less
Width: 1232
VWidth: 0
GlyphClass: 2
Flags: HW
LayerCount: 2
Fore
SplineSet
140 576 m 257
 140 744 l 257
 1092 1122 l 257
 1092 950 l 257
 350 660 l 257
 1092 370 l 257
 1092 198 l 257
 140 576 l 257
EndSplineSet
EndChar

StartChar: greater
Encoding: 62 62 151
GlifName: greater
Width: 1232
VWidth: 0
GlyphClass: 2
Flags: HW
LayerCount: 2
Fore
SplineSet
1092 576 m 257
 140 198 l 257
 140 370 l 257
 882 660 l 257
 140 950 l 257
 140 1122 l 257
 1092 744 l 257
 1092 576 l 257
EndSplineSet
EndChar

StartChar: at
Encoding: 64 64 152
GlifName: at
Width: 2000
VWidth: 0
GlyphClass: 2
Flags: HW
LayerCount: 2
Fore
SplineSet
1000 1500 m 256
 1520 1500 1900 1180 1900 660 c 257
 1720 660 l 257
 1720 1080 1420 1340 1000 1340 c 256
 580 1340 280 1000 280 580 c 256
 280 160 580 -180 1000 -180 c 256
 1187 -180 1423 -112 1547 0 c 257
 1635 -149 l 257
 1484 -268 1218 -340 1000 -340 c 256
 480 -340 100 60 100 580 c 256
 100 1100 480 1500 1000 1500 c 256
1023 852 m 256
 873 852 771 757 746 580 c 256
 743 558 741 537 741 517 c 256
 741 381 815 307 946 307 c 256
 1096 307 1199 403 1224 580 c 256
 1227 602 1229 623 1229 643 c 256
 1229 779 1154 852 1023 852 c 256
1045 1012 m 256
 1145 1012 1215 957 1264 900 c 257
 1278 996 l 257
 1444 996 l 257
 1386 580 l 258
 1344 283 1174 148 924 148 c 256
 699 148 561 308 561 522 c 256
 561 546 562 571 566 596 c 256
 601 846 795 1012 1045 1012 c 256
1474 148 m 256
 1299 148 1213 241 1213 443 c 256
 1213 484 1217 530 1224 580 c 257
 1386 580 l 257
 1378 525 1372 477 1372 438 c 256
 1372 352 1411 307 1507 307 c 256
 1647 307 1720 441 1720 660 c 257
 1900 660 l 257
 1900 360 1714 148 1474 148 c 256
EndSplineSet
EndChar

StartChar: asciicircum
Encoding: 94 94 153
GlifName: asciicircum
Width: 1096
VWidth: 0
GlyphClass: 2
Flags: HW
LayerCount: 2
Fore
SplineSet
810 656 m 257
 549 1270 l 257
 286 656 l 257
 100 656 l 257
 460 1480 l 257
 636 1480 l 257
 996 656 l 257
 810 656 l 257
EndSplineSet
EndChar

StartChar: underscore
Encoding: 95 95 154
GlifName: underscore
Width: 1232
VWidth: 0
GlyphClass: 2
Flags: HW
LayerCount: 2
Fore
SplineSet
0 0 m 257
 1232 0 l 257
 1232 -160 l 257
 0 -160 l 257
 0 0 l 257
EndSplineSet
EndChar

StartChar: grave
Encoding: 96 96 155
GlifName: grave
Width: 544
VWidth: 0
GlyphClass: 2
Flags: HW
LayerCount: 2
Fore
SplineSet
296 1224 m 257
 70 1480 l 257
 296 1480 l 257
 474 1224 l 257
 296 1224 l 257
EndSplineSet
EndChar

StartChar: asciitilde
Encoding: 126 126 156
GlifName: asciitilde
Width: 1232
VWidth: 0
GlyphClass: 2
Flags: HW
LayerCount: 2
Fore
SplineSet
318 472 m 257
 140 520 l 257
 163 715 287 840 442 840 c 256
 642 840 675 652 790 652 c 256
 859 652 906 740 914 840 c 257
 1092 792 l 257
 1069 597 945 472 790 472 c 256
 590 472 557 660 442 660 c 256
 373 660 326 572 318 472 c 257
EndSplineSet
EndChar

StartChar: exclamdown
Encoding: 161 161 157
GlifName: exclamdown
Width: 532
VWidth: 0
GlyphClass: 2
Flags: HW
LayerCount: 2
Fore
SplineSet
392 933 m 256
 392 861 339 804 267 804 c 256
 195 804 140 861 140 933 c 256
 140 1005 195 1060 267 1060 c 256
 339 1060 392 1005 392 933 c 256
373 -440 m 257
 161 -440 l 257
 177 588 l 257
 357 588 l 257
 373 -440 l 257
EndSplineSet
EndChar

StartChar: cent
Encoding: 162 162 158
GlifName: cent
Width: 1142
VWidth: 0
GlyphClass: 2
Flags: HW
LayerCount: 2
Fore
SplineSet
862 1220 m 257
 482 -180 l 257
 334 -180 l 257
 714 1220 l 257
 862 1220 l 257
280 520 m 256
 280 300 407 140 598 140 c 256
 739 140 840 207 889 340 c 257
 1042 252 l 257
 959 74 797 -20 598 -20 c 256
 317 -20 100 208 100 520 c 256
 100 832 317 1060 598 1060 c 256
 797 1060 959 966 1042 788 c 257
 889 700 l 257
 840 833 739 900 598 900 c 256
 407 900 280 740 280 520 c 256
EndSplineSet
Substitution2: "ss05StyleSet5lookups57 subtable" cent.ss05
EndChar

StartChar: sterling
Encoding: 163 163 159
GlifName: sterling
Width: 1300
VWidth: 0
GlyphClass: 2
Flags: HW
LayerCount: 2
Fore
SplineSet
320 660 m 257
 738 660 l 257
 738 820 l 257
 320 820 l 257
 68 820 l 257
 68 774 68 706 68 660 c 257
 320 660 l 257
352 1040 m 256
 352 1220 480 1340 660 1340 c 256
 840 1340 977 1200 977 1000 c 256
 977 982 976 966 974 949 c 257
 1148 1000 l 257
 1148 1300 940 1500 660 1500 c 256
 380 1500 172 1320 172 1040 c 256
 172 768 300 654 300 474 c 256
 300 354 193 216 100 141 c 257
 277 81 l 257
 320 141 480 290 480 490 c 256
 480 690 352 800 352 1040 c 256
1160 211 m 257
 1130 191 1013 140 933 140 c 256
 777 140 698 248 498 248 c 256
 358 248 190 176 100 141 c 257
 139 -20 l 257
 250 34 380 88 498 88 c 256
 654 88 733 -20 933 -20 c 256
 1053 -20 1154 23 1200 50 c 257
 1160 211 l 257
EndSplineSet
EndChar

StartChar: currency
Encoding: 164 164 160
GlifName: currency
Width: 1320
VWidth: 0
GlyphClass: 2
Flags: HW
LayerCount: 2
Fore
SplineSet
930 798 m 257
 802 926 l 257
 1092 1216 l 257
 1220 1088 l 257
 930 798 l 257
390 514 m 257
 518 386 l 257
 228 96 l 257
 100 224 l 257
 390 514 l 257
802 386 m 257
 930 514 l 257
 1220 224 l 257
 1092 96 l 257
 802 386 l 257
518 926 m 257
 390 798 l 257
 100 1088 l 257
 228 1216 l 257
 518 926 l 257
220 656 m 256
 220 907 397 1096 660 1096 c 256
 923 1096 1100 907 1100 656 c 256
 1100 405 923 216 660 216 c 256
 397 216 220 405 220 656 c 256
400 656 m 256
 400 496 500 376 660 376 c 256
 820 376 920 496 920 656 c 256
 920 816 820 936 660 936 c 256
 500 936 400 816 400 656 c 256
EndSplineSet
EndChar

StartChar: yen
Encoding: 165 165 161
GlifName: yen
Width: 1392
VWidth: 0
GlyphClass: 2
Flags: HW
LayerCount: 2
Fore
SplineSet
232 608 m 257
 232 760 l 257
 1160 760 l 257
 1160 608 l 257
 232 608 l 257
232 320 m 257
 232 472 l 257
 1160 472 l 257
 1160 320 l 257
 232 320 l 257
601 0 m 257
 601 740 l 257
 791 740 l 257
 791 0 l 257
 601 0 l 257
755 628 m 257
 621 666 l 257
 70 1480 l 257
 284 1480 l 257
 696 858 l 257
 1108 1480 l 257
 1322 1480 l 257
 755 628 l 257
EndSplineSet
EndChar

StartChar: brokenbar
Encoding: 166 166 162
GlifName: brokenbar
Width: 460
VWidth: 0
GlyphClass: 2
Flags: HW
LayerCount: 2
Fore
SplineSet
140 570 m 257
 320 570 l 257
 320 -320 l 257
 140 -320 l 257
 140 570 l 257
320 750 m 257
 140 750 l 257
 140 1640 l 257
 320 1640 l 257
 320 750 l 257
EndSplineSet
EndChar

StartChar: section
Encoding: 167 167 163
GlifName: section
Width: 1122
VWidth: 0
GlyphClass: 2
Flags: HW
LayerCount: 2
Fore
SplineSet
559 778 m 257
 376 778 279 630 279 522 c 256
 279 414 385 344 557 303 c 256
 814 241 1020 123 1020 -90 c 256
 1020 -303 822 -460 555 -460 c 256
 310 -460 124 -308 100 -104 c 257
 276 -44 l 257
 276 -188 388 -300 555 -300 c 256
 738 -300 845 -198 845 -90 c 256
 845 18 731 88 557 129 c 256
 302 191 101 309 101 522 c 256
 101 735 292 908 559 908 c 257
 559 778 l 257
557 259 m 257
 740 259 847 396 847 504 c 256
 847 612 731 692 559 734 c 256
 304 797 145 933 145 1125 c 256
 145 1317 306 1500 558 1500 c 256
 801 1500 963 1329 986 1125 c 257
 809 1075 l 257
 809 1209 722 1340 559 1340 c 256
 388 1340 325 1223 325 1125 c 256
 325 1027 391 948 559 908 c 256
 814 846 1022 713 1022 500 c 256
 1022 287 824 129 557 129 c 257
 557 259 l 257
EndSplineSet
EndChar

StartChar: dieresis
Encoding: 168 168 164
GlifName: dieresis
Width: 844
VWidth: 0
GlyphClass: 2
Flags: HW
LayerCount: 2
Fore
SplineSet
518 1318 m 256
 518 1390 574 1446 646 1446 c 256
 718 1446 774 1390 774 1318 c 256
 774 1246 718 1190 646 1190 c 256
 574 1190 518 1246 518 1318 c 256
70 1318 m 256
 70 1390 126 1446 198 1446 c 256
 270 1446 326 1390 326 1318 c 256
 326 1246 270 1190 198 1190 c 256
 126 1190 70 1246 70 1318 c 256
EndSplineSet
EndChar

StartChar: copyright
Encoding: 169 169 165
GlifName: copyright
Width: 1720
VWidth: 0
GlyphClass: 2
Flags: HW
LayerCount: 2
Fore
SplineSet
220 740 m 256
 220 380 500 100 860 100 c 256
 1220 100 1500 380 1500 740 c 256
 1500 1100 1220 1380 860 1380 c 256
 500 1380 220 1100 220 740 c 256
100 740 m 256
 100 1160 440 1500 860 1500 c 256
 1280 1500 1620 1160 1620 740 c 256
 1620 320 1280 -20 860 -20 c 256
 440 -20 100 320 100 740 c 256
576 740 m 256
 576 930 705 1061 874 1061 c 256
 991 1061 1083 999 1131 899 c 257
 1251 948 l 257
 1178 1090 1039 1181 874 1181 c 256
 630 1181 441 995 441 740 c 256
 441 485 630 299 874 299 c 256
 1039 299 1178 390 1251 532 c 257
 1131 581 l 257
 1083 481 991 419 874 419 c 256
 705 419 576 550 576 740 c 256
EndSplineSet
EndChar

StartChar: registered
Encoding: 174 174 166
GlifName: registered
Width: 1720
VWidth: 0
GlyphClass: 2
Flags: HW
LayerCount: 2
Fore
SplineSet
220 740 m 256
 220 380 500 100 860 100 c 256
 1220 100 1500 380 1500 740 c 256
 1500 1100 1220 1380 860 1380 c 256
 500 1380 220 1100 220 740 c 256
100 740 m 256
 100 1160 440 1500 860 1500 c 256
 1280 1500 1620 1160 1620 740 c 256
 1620 320 1280 -20 860 -20 c 256
 440 -20 100 320 100 740 c 256
573 311 m 257
 573 1169 l 257
 871 1169 l 258
 1032 1169 1172 1050 1172 897 c 256
 1172 744 1037 624 881 624 c 258
 708 624 l 257
 708 311 l 257
 573 311 l 257
708 1049 m 257
 708 744 l 257
 872 744 l 258
 968 744 1037 809 1037 897 c 256
 1037 985 968 1049 872 1049 c 258
 708 1049 l 257
855 634 m 257
 982 673 l 257
 1192 311 l 257
 1036 311 l 257
 855 634 l 257
EndSplineSet
EndChar

StartChar: questiondown
Encoding: 191 191 167
GlifName: questiondown
Width: 1144
VWidth: 0
GlyphClass: 2
Flags: HW
LayerCount: 2
Fore
SplineSet
572 -300 m 256
 383 -300 280 -172 280 -14 c 256
 280 144 382 264 572 264 c 257
 572 432 l 257
 317 432 100 256 100 -14 c 256
 100 -284 302 -460 572 -460 c 256
 842 -460 1044 -262 1044 8 c 257
 859 62 l 257
 862 45 864 27 864 8 c 256
 864 -150 762 -300 572 -300 c 256
702 933 m 256
 702 861 649 804 577 804 c 256
 505 804 450 861 450 933 c 256
 450 1005 505 1060 577 1060 c 256
 649 1060 702 1005 702 933 c 256
662 588 m 257
 482 588 l 257
 482 264 l 257
 662 264 l 257
 662 588 l 257
EndSplineSet
EndChar

StartChar: acute
Encoding: 180 180 169
GlifName: acute
Width: 544
VWidth: 0
GlyphClass: 2
Flags: HW
LayerCount: 2
Fore
SplineSet
248 1224 m 257
 70 1224 l 257
 248 1480 l 257
 474 1480 l 257
 248 1224 l 257
EndSplineSet
EndChar

StartChar: two.superior
Encoding: 178 178 170
GlifName: uni00B_2
Width: 796
VWidth: 0
GlyphClass: 2
Flags: HW
LayerCount: 2
Fore
SplineSet
85 810 m 257
 141 810 l 257
 205 810 l 257
 711 810 l 257
 711 930 l 257
 245 930 l 257
 265 982 343 1027 447 1087 c 256
 612 1182 706 1257 706 1421 c 256
 706 1579 575 1680 398 1680 c 256
 221 1680 90 1560 90 1380 c 257
 227 1343 l 257
 226 1352 225 1370 225 1380 c 256
 225 1477 294 1560 398 1560 c 256
 502 1560 571 1497 571 1396 c 256
 571 1295 481 1254 388 1200 c 256
 97 1032 85 920 85 810 c 257
EndSplineSet
Substitution2: "tnumTabularNumbers subtable" two.superior.tnum
Substitution2: "pnumProportionalNumbers subtable" two.superior.pnum
EndChar

StartChar: three.superior
Encoding: 179 179 171
GlifName: uni00B_3
Width: 796
VWidth: 0
GlyphClass: 2
Flags: HW
LayerCount: 2
Fore
SplineSet
398 1317 m 258
 340 1317 l 257
 340 1202 l 257
 399 1202 l 258
 523 1202 598 1144 598 1060 c 256
 598 976 522 919 398 919 c 256
 274 919 197 999 197 1083 c 257
 63 1047 l 257
 81 901 214 798 398 798 c 256
 594 798 733 908 733 1053 c 256
 733 1144 675 1216 579 1263 c 257
 656 1306 701 1370 701 1447 c 256
 701 1579 577 1680 398 1680 c 256
 219 1680 111 1576 94 1452 c 257
 228 1416 l 257
 228 1489 292 1559 398 1559 c 256
 504 1559 566 1512 566 1439 c 256
 566 1366 504 1317 398 1317 c 258
EndSplineSet
Substitution2: "tnumTabularNumbers subtable" three.superior.tnum
Substitution2: "pnumProportionalNumbers subtable" three.superior.pnum
EndChar

StartChar: one.superior
Encoding: 185 185 172
GlifName: uni00B_9
Width: 796
VWidth: 0
GlyphClass: 2
Flags: HW
LayerCount: 2
Fore
SplineSet
363 1389 m 257
 363 810 l 257
 498 810 l 257
 498 1413 l 257
 498 1668 l 257
 371 1668 l 257
 371 1628 l 258
 371 1557 301 1503 226 1503 c 258
 180 1503 l 257
 180 1389 l 257
 363 1389 l 257
EndSplineSet
Substitution2: "tnumTabularNumbers subtable" one.superior.tnum
Substitution2: "pnumProportionalNumbers subtable" one.superior.pnum
EndChar

StartChar: zero.superior
Encoding: 8304 8304 173
GlifName: uni2070
Width: 796
VWidth: 0
GlyphClass: 2
Flags: HW
LayerCount: 2
Fore
SplineSet
210 1239 m 256
 210 1473 287 1560 398 1560 c 256
 509 1560 586 1453 586 1239 c 256
 586 1025 509 918 398 918 c 256
 287 918 210 1025 210 1239 c 256
75 1239 m 256
 75 951 210 798 398 798 c 256
 586 798 721 951 721 1239 c 256
 721 1527 586 1680 398 1680 c 256
 210 1680 75 1527 75 1239 c 256
EndSplineSet
Substitution2: "tnumTabularNumbers subtable" zero.superior.tnum
Substitution2: "pnumProportionalNumbers subtable" zero.superior.pnum
EndChar

StartChar: four.superior
Encoding: 8308 8308 174
GlifName: uni2074
Width: 796
VWidth: 0
GlyphClass: 2
Flags: HW
LayerCount: 2
Fore
SplineSet
516 1668 m 257
 369 1668 l 257
 75 1105 l 257
 75 985 l 257
 470 985 l 257
 470 810 l 257
 605 810 l 257
 605 985 l 257
 721 985 l 257
 721 1105 l 257
 605 1105 l 257
 605 1278 l 257
 470 1278 l 257
 470 1105 l 257
 219 1105 l 257
 516 1668 l 257
EndSplineSet
Substitution2: "tnumTabularNumbers subtable" four.superior.tnum
Substitution2: "pnumProportionalNumbers subtable" four.superior.pnum
EndChar

StartChar: five.superior
Encoding: 8309 8309 175
GlifName: uni2075
Width: 796
VWidth: 0
GlyphClass: 2
Flags: HW
LayerCount: 2
Fore
SplineSet
199 1668 m 257
 160 1668 l 257
 104 1230 l 257
 221 1186 l 257
 257 1239 293 1270 394 1270 c 256
 509 1270 582 1201 582 1094 c 256
 582 987 511 918 397 918 c 256
 270 918 212 1002 212 1082 c 257
 79 1046 l 257
 97 904 211 798 397 798 c 256
 583 798 717 923 717 1094 c 256
 717 1265 587 1390 404 1390 c 256
 321 1390 279 1363 237 1320 c 257
 268 1548 l 257
 643 1548 l 257
 643 1668 l 257
 268 1668 l 257
 199 1668 l 257
EndSplineSet
Substitution2: "tnumTabularNumbers subtable" five.superior.tnum
Substitution2: "pnumProportionalNumbers subtable" five.superior.pnum
EndChar

StartChar: six.superior
Encoding: 8310 8310 176
GlifName: uni2076
Width: 796
VWidth: 0
GlyphClass: 2
Flags: HW
LayerCount: 2
Fore
SplineSet
208 1265 m 257
 228 1458 341 1559 462 1559 c 256
 578 1559 630 1487 630 1487 c 257
 692 1594 l 257
 692 1594 616 1680 484 1680 c 256
 258 1680 75 1522 75 1212 c 256
 75 1063 119 981 141 945 c 256
 189 855 282 798 406 798 c 256
 590 798 721 922 721 1097 c 256
 721 1272 594 1397 415 1397 c 256
 313 1397 246 1345 208 1265 c 257
229 1098 m 256
 229 1209 304 1277 407 1277 c 256
 510 1277 586 1209 586 1098 c 256
 586 987 510 919 407 919 c 256
 304 919 229 987 229 1098 c 256
EndSplineSet
Substitution2: "tnumTabularNumbers subtable" six.superior.tnum
Substitution2: "pnumProportionalNumbers subtable" six.superior.pnum
EndChar

StartChar: seven.superior
Encoding: 8311 8311 177
GlifName: uni2077
Width: 796
VWidth: 0
GlyphClass: 2
Flags: HW
LayerCount: 2
Fore
SplineSet
75 1548 m 257
 566 1548 l 257
 566 1548 287 1282 243 810 c 257
 285 810 337 810 379 810 c 257
 421 1282 721 1559 721 1559 c 257
 721 1668 l 257
 75 1668 l 257
 75 1548 l 257
EndSplineSet
Substitution2: "tnumTabularNumbers subtable" seven.superior.tnum
Substitution2: "pnumProportionalNumbers subtable" seven.superior.pnum
EndChar

StartChar: eight.superior
Encoding: 8312 8312 178
GlifName: uni2078
Width: 796
VWidth: 0
GlyphClass: 2
Flags: HW
LayerCount: 2
Fore
SplineSet
63 1053 m 256
 63 908 202 798 398 798 c 256
 594 798 733 908 733 1053 c 256
 733 1144 675 1216 579 1263 c 257
 656 1306 701 1366 701 1443 c 256
 701 1576 576 1680 398 1680 c 256
 220 1680 94 1576 94 1443 c 256
 94 1366 139 1306 216 1263 c 257
 121 1216 63 1143 63 1053 c 256
229 1435 m 256
 229 1508 292 1559 398 1559 c 256
 504 1559 566 1508 566 1435 c 256
 566 1362 504 1317 398 1317 c 256
 292 1317 229 1362 229 1435 c 256
398 1202 m 256
 522 1202 598 1144 598 1060 c 256
 598 976 522 919 398 919 c 256
 274 919 198 976 198 1060 c 256
 198 1144 274 1202 398 1202 c 256
EndSplineSet
Substitution2: "tnumTabularNumbers subtable" eight.superior.tnum
Substitution2: "pnumProportionalNumbers subtable" eight.superior.pnum
EndChar

StartChar: nine.superior
Encoding: 8313 8313 179
GlifName: uni2079
Width: 796
VWidth: 0
GlyphClass: 2
Flags: HW
LayerCount: 2
Fore
SplineSet
588 1213 m 257
 568 1020 455 919 334 919 c 256
 218 919 166 991 166 991 c 257
 104 884 l 257
 104 884 180 798 312 798 c 256
 538 798 721 956 721 1266 c 256
 721 1415 677 1497 655 1533 c 256
 607 1623 514 1680 390 1680 c 256
 206 1680 75 1556 75 1381 c 256
 75 1206 202 1081 381 1081 c 256
 483 1081 550 1133 588 1213 c 257
567 1380 m 256
 567 1269 492 1201 389 1201 c 256
 286 1201 210 1269 210 1380 c 256
 210 1491 286 1559 389 1559 c 256
 492 1559 567 1491 567 1380 c 256
EndSplineSet
Substitution2: "tnumTabularNumbers subtable" nine.superior.tnum
Substitution2: "pnumProportionalNumbers subtable" nine.superior.pnum
EndChar

StartChar: ordfeminine
Encoding: 170 170 180
GlifName: ordfeminine
Width: 852
VWidth: 0
GlyphClass: 2
Flags: HW
LayerCount: 2
Fore
SplineSet
100 741 m 257
 100 861 l 257
 752 861 l 257
 752 741 l 257
 100 741 l 257
565 1049 m 257
 513 1001 448 980 376 980 c 256
 210 980 116 1077 116 1191 c 256
 116 1305 213 1402 376 1402 c 256
 448 1402 510 1379 553 1341 c 257
 552 1438 485 1480 376 1480 c 256
 268 1480 198 1433 198 1433 c 257
 146 1546 l 257
 146 1546 219 1607 384 1607 c 256
 543 1607 688 1557 688 1341 c 258
 688 1273 l 257
 688 1260 l 257
 688 1131 l 258
 688 1100 705 1086 740 1086 c 257
 716 966 l 257
 640 972 587 999 565 1049 c 257
553 1192 m 257
 551 1250 505 1281 402 1281 c 256
 297 1281 251 1248 251 1191 c 256
 251 1134 297 1101 402 1101 c 256
 487 1101 551 1130 553 1192 c 257
EndSplineSet
Substitution2: "ss04StyleSet4lookups56 subtable" ordfeminine.cv23
Substitution2: "cv23CharacterVariants23lookups64 subtable" ordfeminine.cv23
EndChar

StartChar: ordmasculine
Encoding: 186 186 181
GlifName: ordmasculine
Width: 868
VWidth: 0
GlyphClass: 2
Flags: HW
LayerCount: 2
Fore
SplineSet
439 1607 m 256
 267 1607 130 1473 130 1293 c 256
 130 1113 267 980 439 980 c 256
 611 980 748 1113 748 1293 c 256
 748 1473 611 1607 439 1607 c 256
439 1101 m 256
 331 1101 265 1178 265 1293 c 256
 265 1408 331 1486 439 1486 c 256
 547 1486 613 1408 613 1293 c 256
 613 1178 547 1101 439 1101 c 256
108 741 m 257
 108 861 l 257
 760 861 l 257
 760 741 l 257
 108 741 l 257
EndSplineSet
EndChar

StartChar: guillemotleft
Encoding: 171 171 182
GlifName: guillemotleft
Width: 1122
VWidth: 0
GlyphClass: 2
Flags: HW
LayerCount: 2
Fore
SplineSet
848 196 m 257
 498 660 l 257
 848 1126 l 257
 1052 1126 l 257
 698 660 l 257
 1052 196 l 257
 848 196 l 257
420 196 m 257
 70 660 l 257
 420 1126 l 257
 624 1126 l 257
 270 660 l 257
 624 196 l 257
 420 196 l 257
EndSplineSet
EndChar

StartChar: logicalnot
Encoding: 172 172 183
GlifName: logicalnot
Width: 1232
VWidth: 0
GlyphClass: 2
Flags: HW
LayerCount: 2
Fore
SplineSet
912 650 m 257
 912 340 l 257
 1092 340 l 257
 1092 740 l 257
 912 650 l 257
140 580 m 257
 1002 580 l 257
 1092 740 l 257
 140 740 l 257
 140 580 l 257
EndSplineSet
EndChar

StartChar: guillemotright
Encoding: 187 187 184
GlifName: guillemotright
Width: 1122
VWidth: 0
GlyphClass: 2
Flags: HW
LayerCount: 2
Fore
SplineSet
274 196 m 257
 624 660 l 257
 274 1126 l 257
 70 1126 l 257
 424 660 l 257
 70 196 l 257
 274 196 l 257
702 196 m 257
 1052 660 l 257
 702 1126 l 257
 498 1126 l 257
 852 660 l 257
 498 196 l 257
 702 196 l 257
EndSplineSet
EndChar

StartChar: plusminus
Encoding: 177 177 185
GlifName: plusminus
Width: 1232
VWidth: 0
GlyphClass: 2
Flags: HW
LayerCount: 2
Fore
SplineSet
140 0 m 257
 1092 0 l 257
 1092 -160 l 257
 140 -160 l 257
 140 0 l 257
526 1136 m 257
 526 184 l 257
 706 184 l 257
 706 1136 l 257
 526 1136 l 257
140 580 m 257
 1092 580 l 257
 1092 740 l 257
 140 740 l 257
 140 580 l 257
EndSplineSet
EndChar

StartChar: paragraph
Encoding: 182 182 186
GlifName: paragraph
Width: 1318
VWidth: 0
GlyphClass: 2
Flags: HW
LayerCount: 2
Fore
SplineSet
1178 1500 m 257
 567 1500 l 257
 567 1340 l 257
 1178 1340 l 257
 1178 1500 l 257
866 1439 m 257
 866 -440 l 257
 1018 -440 l 257
 1018 1439 l 257
 866 1439 l 257
506 1440 m 257
 506 -440 l 257
 658 -440 l 257
 658 1440 l 257
 577 1440 l 257
 506 1440 l 257
100 1058 m 256
 100 788 297 616 567 616 c 257
 567 1500 l 257
 297 1500 100 1328 100 1058 c 256
EndSplineSet
EndChar

StartChar: periodcentered
Encoding: 183 183 187
GlifName: periodcentered
Width: 532
VWidth: 0
GlyphClass: 2
Flags: HW
LayerCount: 2
Fore
SplineSet
140 660 m 256
 140 732 193 789 265 789 c 256
 337 789 392 732 392 660 c 256
 392 588 337 533 265 533 c 256
 193 533 140 588 140 660 c 256
EndSplineSet
EndChar

StartChar: cedilla
Encoding: 184 184 188
GlifName: cedilla
Width: 552
VWidth: 0
GlyphClass: 2
Flags: HW
LayerCount: 2
Fore
SplineSet
100 -291 m 257
 208 -229 l 257
 226 -258 251 -263 272 -263 c 256
 304 -263 325 -240 325 -216 c 256
 325 -192 304 -169 272 -169 c 256
 250 -169 232 -178 224 -192 c 257
 116 -130 l 257
 148 -84 207 -52 272 -52 c 256
 372 -52 452 -126 452 -216 c 256
 452 -306 372 -380 272 -380 c 256
 206 -380 138 -352 100 -291 c 257
193 0 m 257
 321 0 l 257
 225 -165 l 257
 224 -192 l 257
 117 -131 l 257
 193 0 l 257
EndSplineSet
EndChar

StartChar: threequarters
Encoding: 190 190 189
GlifName: threequarters
Width: 2000
VWidth: 0
GlyphClass: 2
Flags: HW
LayerCount: 2
Fore
SplineSet
452 1129 m 258
 558 1129 620 1178 620 1251 c 256
 620 1324 558 1371 452 1371 c 256
 346 1371 282 1301 282 1228 c 257
 148 1264 l 257
 165 1388 273 1492 452 1492 c 256
 631 1492 755 1391 755 1259 c 256
 755 1182 710 1118 633 1075 c 257
 729 1028 787 956 787 865 c 256
 787 720 648 610 452 610 c 256
 268 610 135 713 117 859 c 257
 251 895 l 257
 251 811 328 731 452 731 c 256
 576 731 652 788 652 872 c 256
 652 956 577 1014 453 1014 c 258
 394 1014 l 257
 394 1129 l 257
 452 1129 l 258
1655 858 m 257
 1508 858 l 257
 1214 295 l 257
 1214 175 l 257
 1609 175 l 257
 1609 0 l 257
 1744 0 l 257
 1744 175 l 257
 1860 175 l 257
 1860 295 l 257
 1744 295 l 257
 1744 468 l 257
 1609 468 l 257
 1609 295 l 257
 1358 295 l 257
 1655 858 l 257
700 98 m 257
 592 160 l 257
 1300 1382 l 257
 1408 1320 l 257
 700 98 l 257
EndSplineSet
Substitution2: "ss02Alternativenumbersset2 subtable" threequarters.cv13
Substitution2: "ss01Alternativenumbersset1 subtable" threequarters.cv03
Substitution2: "cv14Alternativedigit42 subtable" threequarters.cv14
Substitution2: "cv13Alternativedigit32 subtable" threequarters.cv13
Substitution2: "cv04Alternativedigit41 subtable" threequarters.cv04
Substitution2: "cv03Alternativedigit31 subtable" threequarters.cv03
EndChar

StartChar: onequarter
Encoding: 188 188 190
GlifName: onequarter
Width: 2000
VWidth: 0
GlyphClass: 2
Flags: HW
LayerCount: 2
Fore
SplineSet
1655 858 m 257
 1508 858 l 257
 1214 295 l 257
 1214 175 l 257
 1609 175 l 257
 1609 0 l 257
 1744 0 l 257
 1744 175 l 257
 1860 175 l 257
 1860 295 l 257
 1744 295 l 257
 1744 468 l 257
 1609 468 l 257
 1609 295 l 257
 1358 295 l 257
 1655 858 l 257
417 1201 m 257
 234 1201 l 257
 234 1315 l 257
 280 1315 l 258
 355 1315 425 1369 425 1440 c 258
 425 1480 l 257
 552 1480 l 257
 552 1225 l 257
 552 622 l 257
 417 622 l 257
 417 1201 l 257
700 98 m 257
 592 160 l 257
 1300 1382 l 257
 1408 1320 l 257
 700 98 l 257
EndSplineSet
Substitution2: "ss06StyleSet6lookups58 subtable" onequarter.ss06
Substitution2: "ss02Alternativenumbersset2 subtable" onequarter.cv11
Substitution2: "ss01Alternativenumbersset1 subtable" onequarter.cv01
Substitution2: "cv14Alternativedigit42 subtable" onequarter.cv14
Substitution2: "cv11Alternativedigit12 subtable" onequarter.cv11
Substitution2: "cv04Alternativedigit41 subtable" onequarter.cv04
Substitution2: "cv01Alternativedigit11 subtable" onequarter.cv01
EndChar

StartChar: onehalf
Encoding: 189 189 191
GlifName: onehalf
Width: 2000
VWidth: 0
GlyphClass: 2
Flags: HW
LayerCount: 2
Fore
SplineSet
1235 0 m 257
 1235 110 1247 222 1538 390 c 256
 1631 444 1721 485 1721 586 c 256
 1721 687 1652 750 1548 750 c 256
 1444 750 1375 667 1375 570 c 256
 1375 560 1376 542 1377 533 c 257
 1240 570 l 257
 1240 750 1371 870 1548 870 c 256
 1725 870 1856 769 1856 611 c 256
 1856 447 1762 372 1597 277 c 256
 1493 217 1415 172 1395 120 c 257
 1861 120 l 257
 1861 0 l 257
 1355 0 l 257
 1291 0 l 257
 1235 0 l 257
417 1201 m 257
 234 1201 l 257
 234 1315 l 257
 280 1315 l 258
 355 1315 425 1369 425 1440 c 258
 425 1480 l 257
 552 1480 l 257
 552 1225 l 257
 552 622 l 257
 417 622 l 257
 417 1201 l 257
700 98 m 257
 592 160 l 257
 1300 1382 l 257
 1408 1320 l 257
 700 98 l 257
EndSplineSet
Substitution2: "ss06StyleSet6lookups58 subtable" onehalf.ss06
Substitution2: "ss02Alternativenumbersset2 subtable" onehalf.cv11
Substitution2: "ss01Alternativenumbersset1 subtable" onehalf.cv01
Substitution2: "cv12Alternativedigit22 subtable" onehalf.cv12
Substitution2: "cv11Alternativedigit12 subtable" onehalf.cv11
Substitution2: "cv02Alternativedigit21 subtable" onehalf.cv02
Substitution2: "cv01Alternativedigit11 subtable" onehalf.cv01
EndChar

StartChar: uni2156
Encoding: 8534 8534 192
GlifName: uni2156
Width: 2000
VWidth: 0
GlyphClass: 2
Flags: HW
LayerCount: 2
Fore
SplineSet
1255 420 m 257
 1311 858 l 257
 1350 858 l 257
 1419 858 l 257
 1794 858 l 257
 1794 738 l 257
 1419 738 l 257
 1388 510 l 257
 1430 553 1472 580 1555 580 c 256
 1738 580 1868 455 1868 284 c 256
 1868 113 1734 -12 1548 -12 c 256
 1362 -12 1248 94 1230 236 c 257
 1363 272 l 257
 1363 192 1421 108 1548 108 c 256
 1662 108 1733 177 1733 284 c 256
 1733 391 1660 460 1545 460 c 256
 1444 460 1408 429 1372 376 c 257
 1255 420 l 257
139 622 m 257
 139 732 151 844 442 1012 c 256
 535 1066 625 1107 625 1208 c 256
 625 1309 556 1372 452 1372 c 256
 348 1372 279 1289 279 1192 c 256
 279 1182 280 1164 281 1155 c 257
 144 1192 l 257
 144 1372 275 1492 452 1492 c 256
 629 1492 760 1391 760 1233 c 256
 760 1069 666 994 501 899 c 256
 397 839 319 794 299 742 c 257
 765 742 l 257
 765 622 l 257
 259 622 l 257
 195 622 l 257
 139 622 l 257
700 98 m 257
 592 160 l 257
 1300 1382 l 257
 1408 1320 l 257
 700 98 l 257
EndSplineSet
Substitution2: "ss02Alternativenumbersset2 subtable" uni2156.cv12
Substitution2: "ss01Alternativenumbersset1 subtable" uni2156.cv02
Substitution2: "cv15Alternativedigit52 subtable" uni2156.cv15
Substitution2: "cv12Alternativedigit22 subtable" uni2156.cv12
Substitution2: "cv05Alternativedigit51 subtable" uni2156.cv05
Substitution2: "cv02Alternativedigit21 subtable" uni2156.cv02
EndChar

StartChar: twothirds
Encoding: 8532 8532 193
GlifName: twothirds
Width: 2000
VWidth: 0
GlyphClass: 2
Flags: HW
LayerCount: 2
Fore
SplineSet
1548 507 m 258
 1654 507 1716 556 1716 629 c 256
 1716 702 1654 749 1548 749 c 256
 1442 749 1378 679 1378 606 c 257
 1244 642 l 257
 1261 766 1369 870 1548 870 c 256
 1727 870 1851 769 1851 637 c 256
 1851 560 1806 496 1729 453 c 257
 1825 406 1883 334 1883 243 c 256
 1883 98 1744 -12 1548 -12 c 256
 1364 -12 1231 91 1213 237 c 257
 1347 273 l 257
 1347 189 1424 109 1548 109 c 256
 1672 109 1748 166 1748 250 c 256
 1748 334 1673 392 1549 392 c 258
 1490 392 l 257
 1490 507 l 257
 1548 507 l 258
139 622 m 257
 139 732 151 844 442 1012 c 256
 535 1066 625 1107 625 1208 c 256
 625 1309 556 1372 452 1372 c 256
 348 1372 279 1289 279 1192 c 256
 279 1182 280 1164 281 1155 c 257
 144 1192 l 257
 144 1372 275 1492 452 1492 c 256
 629 1492 760 1391 760 1233 c 256
 760 1069 666 994 501 899 c 256
 397 839 319 794 299 742 c 257
 765 742 l 257
 765 622 l 257
 259 622 l 257
 195 622 l 257
 139 622 l 257
700 98 m 257
 592 160 l 257
 1300 1382 l 257
 1408 1320 l 257
 700 98 l 257
EndSplineSet
Substitution2: "ss02Alternativenumbersset2 subtable" twothirds.cv12
Substitution2: "ss01Alternativenumbersset1 subtable" twothirds.cv02
Substitution2: "cv13Alternativedigit32 subtable" twothirds.cv13
Substitution2: "cv12Alternativedigit22 subtable" twothirds.cv12
Substitution2: "cv03Alternativedigit31 subtable" twothirds.cv03
Substitution2: "cv02Alternativedigit21 subtable" twothirds.cv02
EndChar

StartChar: uni215F
Encoding: 8543 8543 194
GlifName: uni215F_
Width: 2000
VWidth: 0
GlyphClass: 2
Flags: HW
LayerCount: 2
Fore
SplineSet
417 1201 m 257
 234 1201 l 257
 234 1315 l 257
 280 1315 l 258
 355 1315 425 1369 425 1440 c 258
 425 1480 l 257
 552 1480 l 257
 552 1225 l 257
 552 622 l 257
 417 622 l 257
 417 1201 l 257
700 98 m 257
 592 160 l 257
 1300 1382 l 257
 1408 1320 l 257
 700 98 l 257
EndSplineSet
Substitution2: "ss06StyleSet6lookups58 subtable" uni215F.ss06
Substitution2: "ss02Alternativenumbersset2 subtable" uni215F.cv11
Substitution2: "ss01Alternativenumbersset1 subtable" uni215F.cv01
Substitution2: "cv11Alternativedigit12 subtable" uni215F.cv11
Substitution2: "cv01Alternativedigit11 subtable" uni215F.cv01
EndChar

StartChar: uni2150
Encoding: 8528 8528 195
GlifName: uni2150
Width: 2000
VWidth: 0
GlyphClass: 2
Flags: HW
LayerCount: 2
Fore
SplineSet
1225 738 m 257
 1225 858 l 257
 1871 858 l 257
 1871 749 l 257
 1871 749 1571 472 1529 0 c 257
 1487 0 1435 0 1393 0 c 257
 1437 472 1716 738 1716 738 c 257
 1225 738 l 257
417 1201 m 257
 234 1201 l 257
 234 1315 l 257
 280 1315 l 258
 355 1315 425 1369 425 1440 c 258
 425 1480 l 257
 552 1480 l 257
 552 1225 l 257
 552 622 l 257
 417 622 l 257
 417 1201 l 257
700 98 m 257
 592 160 l 257
 1300 1382 l 257
 1408 1320 l 257
 700 98 l 257
EndSplineSet
Substitution2: "ss07StyleSet7lookups59 subtable" uni2150.ss07
Substitution2: "ss06StyleSet6lookups58 subtable" uni2150.ss06
Substitution2: "ss02Alternativenumbersset2 subtable" uni2150.cv11
Substitution2: "ss01Alternativenumbersset1 subtable" uni2150.cv01
Substitution2: "cv17Alternativedigit72 subtable" uni2150.cv17
Substitution2: "cv11Alternativedigit12 subtable" uni2150.cv11
Substitution2: "cv07Alternativedigit71 subtable" uni2150.cv07
Substitution2: "cv01Alternativedigit11 subtable" uni2150.cv01
EndChar

StartChar: uni2151
Encoding: 8529 8529 196
GlifName: uni2151
Width: 2000
VWidth: 0
GlyphClass: 2
Flags: HW
LayerCount: 2
Fore
SplineSet
1746 403 m 257
 1708 323 1641 271 1539 271 c 256
 1360 271 1233 396 1233 571 c 256
 1233 746 1364 870 1548 870 c 256
 1672 870 1765 813 1813 723 c 256
 1835 687 1879 605 1879 456 c 256
 1879 146 1696 -12 1470 -12 c 256
 1338 -12 1262 74 1262 74 c 257
 1324 181 l 257
 1324 181 1376 109 1492 109 c 256
 1613 109 1726 210 1746 403 c 257
1725 570 m 256
 1725 681 1650 749 1547 749 c 256
 1444 749 1368 681 1368 570 c 256
 1368 459 1444 391 1547 391 c 256
 1650 391 1725 459 1725 570 c 256
417 1201 m 257
 234 1201 l 257
 234 1315 l 257
 280 1315 l 258
 355 1315 425 1369 425 1440 c 258
 425 1480 l 257
 552 1480 l 257
 552 1225 l 257
 552 622 l 257
 417 622 l 257
 417 1201 l 257
700 98 m 257
 592 160 l 257
 1300 1382 l 257
 1408 1320 l 257
 700 98 l 257
EndSplineSet
Substitution2: "ss06StyleSet6lookups58 subtable" uni2151.ss06
Substitution2: "ss02Alternativenumbersset2 subtable" uni2151.cv11
Substitution2: "ss01Alternativenumbersset1 subtable" uni2151.cv01
Substitution2: "cv19Alternativedigit92 subtable" uni2151.cv19
Substitution2: "cv11Alternativedigit12 subtable" uni2151.cv11
Substitution2: "cv09Alternativedigit91 subtable" uni2151.cv09
Substitution2: "cv01Alternativedigit11 subtable" uni2151.cv01
EndChar

StartChar: uni2152
Encoding: 8530 8530 197
GlifName: uni2152
Width: 2376
VWidth: 0
GlyphClass: 2
Flags: HW
LayerCount: 2
Fore
SplineSet
1725 429 m 256
 1725 215 1802 108 1913 108 c 256
 2024 108 2101 215 2101 429 c 256
 2101 643 2024 750 1913 750 c 256
 1802 750 1725 663 1725 429 c 256
1590 429 m 256
 1590 717 1725 870 1913 870 c 256
 2101 870 2236 717 2236 429 c 256
 2236 141 2101 -12 1913 -12 c 256
 1725 -12 1590 141 1590 429 c 256
1310 579 m 257
 1127 579 l 257
 1127 693 l 257
 1173 693 l 258
 1248 693 1318 747 1318 818 c 258
 1318 858 l 257
 1445 858 l 257
 1445 603 l 257
 1445 0 l 257
 1310 0 l 257
 1310 579 l 257
417 1201 m 257
 234 1201 l 257
 234 1315 l 257
 280 1315 l 258
 355 1315 425 1369 425 1440 c 258
 425 1480 l 257
 552 1480 l 257
 552 1225 l 257
 552 622 l 257
 417 622 l 257
 417 1201 l 257
700 98 m 257
 592 160 l 257
 1300 1382 l 257
 1408 1320 l 257
 700 98 l 257
EndSplineSet
Substitution2: "zeroSlashedZerolookups61 subtable" uni2152.zero
Substitution2: "ss06StyleSet6lookups58 subtable" uni2152.ss06
Substitution2: "ss02Alternativenumbersset2 subtable" uni2152.cv11
Substitution2: "ss01Alternativenumbersset1 subtable" uni2152.cv01
Substitution2: "cv20Alternativedigit02 subtable" uni2152.cv20
Substitution2: "cv11Alternativedigit12 subtable" uni2152.cv11
Substitution2: "cv10Alternativedigit01 subtable" uni2152.cv10
Substitution2: "cv01Alternativedigit11 subtable" uni2152.cv01
EndChar

StartChar: onethird
Encoding: 8531 8531 198
GlifName: onethird
Width: 2000
VWidth: 0
GlyphClass: 2
Flags: HW
LayerCount: 2
Fore
SplineSet
1548 507 m 258
 1654 507 1716 556 1716 629 c 256
 1716 702 1654 749 1548 749 c 256
 1442 749 1378 679 1378 606 c 257
 1244 642 l 257
 1261 766 1369 870 1548 870 c 256
 1727 870 1851 769 1851 637 c 256
 1851 560 1806 496 1729 453 c 257
 1825 406 1883 334 1883 243 c 256
 1883 98 1744 -12 1548 -12 c 256
 1364 -12 1231 91 1213 237 c 257
 1347 273 l 257
 1347 189 1424 109 1548 109 c 256
 1672 109 1748 166 1748 250 c 256
 1748 334 1673 392 1549 392 c 258
 1490 392 l 257
 1490 507 l 257
 1548 507 l 258
417 1201 m 257
 234 1201 l 257
 234 1315 l 257
 280 1315 l 258
 355 1315 425 1369 425 1440 c 258
 425 1480 l 257
 552 1480 l 257
 552 1225 l 257
 552 622 l 257
 417 622 l 257
 417 1201 l 257
700 98 m 257
 592 160 l 257
 1300 1382 l 257
 1408 1320 l 257
 700 98 l 257
EndSplineSet
Substitution2: "ss06StyleSet6lookups58 subtable" onethird.ss06
Substitution2: "ss02Alternativenumbersset2 subtable" onethird.cv11
Substitution2: "ss01Alternativenumbersset1 subtable" onethird.cv01
Substitution2: "cv13Alternativedigit32 subtable" onethird.cv13
Substitution2: "cv11Alternativedigit12 subtable" onethird.cv11
Substitution2: "cv03Alternativedigit31 subtable" onethird.cv03
Substitution2: "cv01Alternativedigit11 subtable" onethird.cv01
EndChar

StartChar: uni2159
Encoding: 8537 8537 199
GlifName: uni2159
Width: 2000
VWidth: 0
GlyphClass: 2
Flags: HW
LayerCount: 2
Fore
SplineSet
1350 455 m 257
 1388 535 1455 587 1557 587 c 256
 1736 587 1863 462 1863 287 c 256
 1863 112 1732 -12 1548 -12 c 256
 1424 -12 1331 45 1283 135 c 256
 1261 171 1217 253 1217 402 c 256
 1217 712 1400 870 1626 870 c 256
 1758 870 1834 784 1834 784 c 257
 1772 677 l 257
 1772 677 1720 749 1604 749 c 256
 1483 749 1370 648 1350 455 c 257
1371 288 m 256
 1371 177 1446 109 1549 109 c 256
 1652 109 1728 177 1728 288 c 256
 1728 399 1652 467 1549 467 c 256
 1446 467 1371 399 1371 288 c 256
417 1201 m 257
 234 1201 l 257
 234 1315 l 257
 280 1315 l 258
 355 1315 425 1369 425 1440 c 258
 425 1480 l 257
 552 1480 l 257
 552 1225 l 257
 552 622 l 257
 417 622 l 257
 417 1201 l 257
700 98 m 257
 592 160 l 257
 1300 1382 l 257
 1408 1320 l 257
 700 98 l 257
EndSplineSet
Substitution2: "ss06StyleSet6lookups58 subtable" uni2159.ss06
Substitution2: "ss02Alternativenumbersset2 subtable" uni2159.cv11
Substitution2: "ss01Alternativenumbersset1 subtable" uni2159.cv01
Substitution2: "cv16Alternativedigit62 subtable" uni2159.cv16
Substitution2: "cv11Alternativedigit12 subtable" uni2159.cv11
Substitution2: "cv06Alternativedigit61 subtable" uni2159.cv06
Substitution2: "cv01Alternativedigit11 subtable" uni2159.cv01
EndChar

StartChar: oneeighth
Encoding: 8539 8539 200
GlifName: oneeighth
Width: 2000
VWidth: 0
GlyphClass: 2
Flags: HW
LayerCount: 2
Fore
SplineSet
1213 243 m 256
 1213 333 1271 406 1366 453 c 257
 1289 496 1244 556 1244 633 c 256
 1244 766 1370 870 1548 870 c 256
 1726 870 1851 766 1851 633 c 256
 1851 556 1806 496 1729 453 c 257
 1825 406 1883 334 1883 243 c 256
 1883 98 1744 -12 1548 -12 c 256
 1352 -12 1213 98 1213 243 c 256
1379 625 m 256
 1379 552 1442 507 1548 507 c 256
 1654 507 1716 552 1716 625 c 256
 1716 698 1654 749 1548 749 c 256
 1442 749 1379 698 1379 625 c 256
1548 392 m 256
 1424 392 1348 334 1348 250 c 256
 1348 166 1424 109 1548 109 c 256
 1672 109 1748 166 1748 250 c 256
 1748 334 1672 392 1548 392 c 256
417 1201 m 257
 234 1201 l 257
 234 1315 l 257
 280 1315 l 258
 355 1315 425 1369 425 1440 c 258
 425 1480 l 257
 552 1480 l 257
 552 1225 l 257
 552 622 l 257
 417 622 l 257
 417 1201 l 257
700 98 m 257
 592 160 l 257
 1300 1382 l 257
 1408 1320 l 257
 700 98 l 257
EndSplineSet
Substitution2: "ss06StyleSet6lookups58 subtable" oneeighth.ss06
Substitution2: "ss02Alternativenumbersset2 subtable" oneeighth.cv11
Substitution2: "ss01Alternativenumbersset1 subtable" oneeighth.cv01
Substitution2: "cv18Alternativedigit82 subtable" oneeighth.cv18
Substitution2: "cv11Alternativedigit12 subtable" oneeighth.cv11
Substitution2: "cv08Alternativedigit81 subtable" oneeighth.cv08
Substitution2: "cv01Alternativedigit11 subtable" oneeighth.cv01
EndChar

StartChar: uni2155
Encoding: 8533 8533 201
GlifName: uni2155
Width: 2000
VWidth: 0
GlyphClass: 2
Flags: HW
LayerCount: 2
Fore
SplineSet
1255 420 m 257
 1311 858 l 257
 1350 858 l 257
 1419 858 l 257
 1794 858 l 257
 1794 738 l 257
 1419 738 l 257
 1388 510 l 257
 1430 553 1472 580 1555 580 c 256
 1738 580 1868 455 1868 284 c 256
 1868 113 1734 -12 1548 -12 c 256
 1362 -12 1248 94 1230 236 c 257
 1363 272 l 257
 1363 192 1421 108 1548 108 c 256
 1662 108 1733 177 1733 284 c 256
 1733 391 1660 460 1545 460 c 256
 1444 460 1408 429 1372 376 c 257
 1255 420 l 257
417 1201 m 257
 234 1201 l 257
 234 1315 l 257
 280 1315 l 258
 355 1315 425 1369 425 1440 c 258
 425 1480 l 257
 552 1480 l 257
 552 1225 l 257
 552 622 l 257
 417 622 l 257
 417 1201 l 257
700 98 m 257
 592 160 l 257
 1300 1382 l 257
 1408 1320 l 257
 700 98 l 257
EndSplineSet
Substitution2: "ss06StyleSet6lookups58 subtable" uni2155.ss06
Substitution2: "ss02Alternativenumbersset2 subtable" uni2155.cv11
Substitution2: "ss01Alternativenumbersset1 subtable" uni2155.cv01
Substitution2: "cv15Alternativedigit52 subtable" uni2155.cv15
Substitution2: "cv11Alternativedigit12 subtable" uni2155.cv11
Substitution2: "cv05Alternativedigit51 subtable" uni2155.cv05
Substitution2: "cv01Alternativedigit11 subtable" uni2155.cv01
EndChar

StartChar: uni2157
Encoding: 8535 8535 202
GlifName: uni2157
Width: 2000
VWidth: 0
GlyphClass: 2
Flags: HW
LayerCount: 2
Fore
SplineSet
1255 420 m 257
 1311 858 l 257
 1350 858 l 257
 1419 858 l 257
 1794 858 l 257
 1794 738 l 257
 1419 738 l 257
 1388 510 l 257
 1430 553 1472 580 1555 580 c 256
 1738 580 1868 455 1868 284 c 256
 1868 113 1734 -12 1548 -12 c 256
 1362 -12 1248 94 1230 236 c 257
 1363 272 l 257
 1363 192 1421 108 1548 108 c 256
 1662 108 1733 177 1733 284 c 256
 1733 391 1660 460 1545 460 c 256
 1444 460 1408 429 1372 376 c 257
 1255 420 l 257
452 1129 m 258
 558 1129 620 1178 620 1251 c 256
 620 1324 558 1371 452 1371 c 256
 346 1371 282 1301 282 1228 c 257
 148 1264 l 257
 165 1388 273 1492 452 1492 c 256
 631 1492 755 1391 755 1259 c 256
 755 1182 710 1118 633 1075 c 257
 729 1028 787 956 787 865 c 256
 787 720 648 610 452 610 c 256
 268 610 135 713 117 859 c 257
 251 895 l 257
 251 811 328 731 452 731 c 256
 576 731 652 788 652 872 c 256
 652 956 577 1014 453 1014 c 258
 394 1014 l 257
 394 1129 l 257
 452 1129 l 258
700 98 m 257
 592 160 l 257
 1300 1382 l 257
 1408 1320 l 257
 700 98 l 257
EndSplineSet
Substitution2: "ss02Alternativenumbersset2 subtable" uni2157.cv13
Substitution2: "ss01Alternativenumbersset1 subtable" uni2157.cv03
Substitution2: "cv15Alternativedigit52 subtable" uni2157.cv15
Substitution2: "cv13Alternativedigit32 subtable" uni2157.cv13
Substitution2: "cv05Alternativedigit51 subtable" uni2157.cv05
Substitution2: "cv03Alternativedigit31 subtable" uni2157.cv03
EndChar

StartChar: uni2158
Encoding: 8536 8536 203
GlifName: uni2158
Width: 2000
VWidth: 0
GlyphClass: 2
Flags: HW
LayerCount: 2
Fore
SplineSet
1255 420 m 257
 1311 858 l 257
 1350 858 l 257
 1419 858 l 257
 1794 858 l 257
 1794 738 l 257
 1419 738 l 257
 1388 510 l 257
 1430 553 1472 580 1555 580 c 256
 1738 580 1868 455 1868 284 c 256
 1868 113 1734 -12 1548 -12 c 256
 1362 -12 1248 94 1230 236 c 257
 1363 272 l 257
 1363 192 1421 108 1548 108 c 256
 1662 108 1733 177 1733 284 c 256
 1733 391 1660 460 1545 460 c 256
 1444 460 1408 429 1372 376 c 257
 1255 420 l 257
559 1480 m 257
 412 1480 l 257
 118 917 l 257
 118 797 l 257
 513 797 l 257
 513 622 l 257
 648 622 l 257
 648 797 l 257
 764 797 l 257
 764 917 l 257
 648 917 l 257
 648 1090 l 257
 517 1090 l 257
 517 917 l 257
 262 917 l 257
 559 1480 l 257
700 98 m 257
 592 160 l 257
 1300 1382 l 257
 1408 1320 l 257
 700 98 l 257
EndSplineSet
Substitution2: "ss02Alternativenumbersset2 subtable" uni2158.cv14
Substitution2: "ss01Alternativenumbersset1 subtable" uni2158.cv04
Substitution2: "cv15Alternativedigit52 subtable" uni2158.cv15
Substitution2: "cv14Alternativedigit42 subtable" uni2158.cv14
Substitution2: "cv05Alternativedigit51 subtable" uni2158.cv05
Substitution2: "cv04Alternativedigit41 subtable" uni2158.cv04
EndChar

StartChar: uni215A
Encoding: 8538 8538 204
GlifName: uni215A_
Width: 2000
VWidth: 0
GlyphClass: 2
Flags: HW
LayerCount: 2
Fore
SplineSet
1350 455 m 257
 1388 535 1455 587 1557 587 c 256
 1736 587 1863 462 1863 287 c 256
 1863 112 1732 -12 1548 -12 c 256
 1424 -12 1331 45 1283 135 c 256
 1261 171 1217 253 1217 402 c 256
 1217 712 1400 870 1626 870 c 256
 1758 870 1834 784 1834 784 c 257
 1772 677 l 257
 1772 677 1720 749 1604 749 c 256
 1483 749 1370 648 1350 455 c 257
1371 288 m 256
 1371 177 1446 109 1549 109 c 256
 1652 109 1728 177 1728 288 c 256
 1728 399 1652 467 1549 467 c 256
 1446 467 1371 399 1371 288 c 256
159 1042 m 257
 215 1480 l 257
 254 1480 l 257
 323 1480 l 257
 698 1480 l 257
 698 1360 l 257
 323 1360 l 257
 292 1132 l 257
 334 1175 376 1202 459 1202 c 256
 642 1202 772 1077 772 906 c 256
 772 735 638 610 452 610 c 256
 266 610 152 716 134 858 c 257
 267 894 l 257
 267 814 325 730 452 730 c 256
 566 730 637 799 637 906 c 256
 637 1013 564 1082 449 1082 c 256
 348 1082 312 1051 276 998 c 257
 159 1042 l 257
700 98 m 257
 592 160 l 257
 1300 1382 l 257
 1408 1320 l 257
 700 98 l 257
EndSplineSet
Substitution2: "ss02Alternativenumbersset2 subtable" uni215A.cv15
Substitution2: "ss01Alternativenumbersset1 subtable" uni215A.cv05
Substitution2: "cv16Alternativedigit62 subtable" uni215A.cv16
Substitution2: "cv15Alternativedigit52 subtable" uni215A.cv15
Substitution2: "cv06Alternativedigit61 subtable" uni215A.cv06
Substitution2: "cv05Alternativedigit51 subtable" uni215A.cv05
EndChar

StartChar: threeeighths
Encoding: 8540 8540 205
GlifName: threeeighths
Width: 2000
VWidth: 0
GlyphClass: 2
Flags: HW
LayerCount: 2
Fore
SplineSet
1213 243 m 256
 1213 333 1271 406 1366 453 c 257
 1289 496 1244 556 1244 633 c 256
 1244 766 1370 870 1548 870 c 256
 1726 870 1851 766 1851 633 c 256
 1851 556 1806 496 1729 453 c 257
 1825 406 1883 334 1883 243 c 256
 1883 98 1744 -12 1548 -12 c 256
 1352 -12 1213 98 1213 243 c 256
1379 625 m 256
 1379 552 1442 507 1548 507 c 256
 1654 507 1716 552 1716 625 c 256
 1716 698 1654 749 1548 749 c 256
 1442 749 1379 698 1379 625 c 256
1548 392 m 256
 1424 392 1348 334 1348 250 c 256
 1348 166 1424 109 1548 109 c 256
 1672 109 1748 166 1748 250 c 256
 1748 334 1672 392 1548 392 c 256
452 1129 m 258
 558 1129 620 1178 620 1251 c 256
 620 1324 558 1371 452 1371 c 256
 346 1371 282 1301 282 1228 c 257
 148 1264 l 257
 165 1388 273 1492 452 1492 c 256
 631 1492 755 1391 755 1259 c 256
 755 1182 710 1118 633 1075 c 257
 729 1028 787 956 787 865 c 256
 787 720 648 610 452 610 c 256
 268 610 135 713 117 859 c 257
 251 895 l 257
 251 811 328 731 452 731 c 256
 576 731 652 788 652 872 c 256
 652 956 577 1014 453 1014 c 258
 394 1014 l 257
 394 1129 l 257
 452 1129 l 258
700 98 m 257
 592 160 l 257
 1300 1382 l 257
 1408 1320 l 257
 700 98 l 257
EndSplineSet
Substitution2: "ss02Alternativenumbersset2 subtable" threeeighths.cv13
Substitution2: "ss01Alternativenumbersset1 subtable" threeeighths.cv03
Substitution2: "cv18Alternativedigit82 subtable" threeeighths.cv18
Substitution2: "cv13Alternativedigit32 subtable" threeeighths.cv13
Substitution2: "cv08Alternativedigit81 subtable" threeeighths.cv08
Substitution2: "cv03Alternativedigit31 subtable" threeeighths.cv03
EndChar

StartChar: fiveeighths
Encoding: 8541 8541 206
GlifName: fiveeighths
Width: 2000
VWidth: 0
GlyphClass: 2
Flags: HW
LayerCount: 2
Fore
SplineSet
1213 243 m 256
 1213 333 1271 406 1366 453 c 257
 1289 496 1244 556 1244 633 c 256
 1244 766 1370 870 1548 870 c 256
 1726 870 1851 766 1851 633 c 256
 1851 556 1806 496 1729 453 c 257
 1825 406 1883 334 1883 243 c 256
 1883 98 1744 -12 1548 -12 c 256
 1352 -12 1213 98 1213 243 c 256
1379 625 m 256
 1379 552 1442 507 1548 507 c 256
 1654 507 1716 552 1716 625 c 256
 1716 698 1654 749 1548 749 c 256
 1442 749 1379 698 1379 625 c 256
1548 392 m 256
 1424 392 1348 334 1348 250 c 256
 1348 166 1424 109 1548 109 c 256
 1672 109 1748 166 1748 250 c 256
 1748 334 1672 392 1548 392 c 256
159 1042 m 257
 215 1480 l 257
 254 1480 l 257
 323 1480 l 257
 698 1480 l 257
 698 1360 l 257
 323 1360 l 257
 292 1132 l 257
 334 1175 376 1202 459 1202 c 256
 642 1202 772 1077 772 906 c 256
 772 735 638 610 452 610 c 256
 266 610 152 716 134 858 c 257
 267 894 l 257
 267 814 325 730 452 730 c 256
 566 730 637 799 637 906 c 256
 637 1013 564 1082 449 1082 c 256
 348 1082 312 1051 276 998 c 257
 159 1042 l 257
700 98 m 257
 592 160 l 257
 1300 1382 l 257
 1408 1320 l 257
 700 98 l 257
EndSplineSet
Substitution2: "ss02Alternativenumbersset2 subtable" fiveeighths.cv15
Substitution2: "ss01Alternativenumbersset1 subtable" fiveeighths.cv05
Substitution2: "cv18Alternativedigit82 subtable" fiveeighths.cv18
Substitution2: "cv15Alternativedigit52 subtable" fiveeighths.cv15
Substitution2: "cv08Alternativedigit81 subtable" fiveeighths.cv08
Substitution2: "cv05Alternativedigit51 subtable" fiveeighths.cv05
EndChar

StartChar: seveneighths
Encoding: 8542 8542 207
GlifName: seveneighths
Width: 2000
VWidth: 0
GlyphClass: 2
Flags: HW
LayerCount: 2
Fore
SplineSet
1213 243 m 256
 1213 333 1271 406 1366 453 c 257
 1289 496 1244 556 1244 633 c 256
 1244 766 1370 870 1548 870 c 256
 1726 870 1851 766 1851 633 c 256
 1851 556 1806 496 1729 453 c 257
 1825 406 1883 334 1883 243 c 256
 1883 98 1744 -12 1548 -12 c 256
 1352 -12 1213 98 1213 243 c 256
1379 625 m 256
 1379 552 1442 507 1548 507 c 256
 1654 507 1716 552 1716 625 c 256
 1716 698 1654 749 1548 749 c 256
 1442 749 1379 698 1379 625 c 256
1548 392 m 256
 1424 392 1348 334 1348 250 c 256
 1348 166 1424 109 1548 109 c 256
 1672 109 1748 166 1748 250 c 256
 1748 334 1672 392 1548 392 c 256
129 1360 m 257
 129 1480 l 257
 775 1480 l 257
 775 1371 l 257
 775 1371 475 1094 433 622 c 257
 391 622 339 622 297 622 c 257
 341 1094 620 1360 620 1360 c 257
 129 1360 l 257
700 98 m 257
 592 160 l 257
 1300 1382 l 257
 1408 1320 l 257
 700 98 l 257
EndSplineSet
Substitution2: "ss07StyleSet7lookups59 subtable" seveneighths.ss07
Substitution2: "ss02Alternativenumbersset2 subtable" seveneighths.cv17
Substitution2: "ss01Alternativenumbersset1 subtable" seveneighths.cv07
Substitution2: "cv18Alternativedigit82 subtable" seveneighths.cv18
Substitution2: "cv17Alternativedigit72 subtable" seveneighths.cv17
Substitution2: "cv08Alternativedigit81 subtable" seveneighths.cv08
Substitution2: "cv07Alternativedigit71 subtable" seveneighths.cv07
EndChar

StartChar: uni2189
Encoding: 8585 8585 208
GlifName: uni2189
Width: 2000
VWidth: 0
GlyphClass: 2
Flags: HW
LayerCount: 2
Fore
SplineSet
264 1051 m 256
 264 837 341 730 452 730 c 256
 563 730 640 837 640 1051 c 256
 640 1265 563 1372 452 1372 c 256
 341 1372 264 1285 264 1051 c 256
129 1051 m 256
 129 1339 264 1492 452 1492 c 256
 640 1492 775 1339 775 1051 c 256
 775 763 640 610 452 610 c 256
 264 610 129 763 129 1051 c 256
1548 507 m 258
 1654 507 1716 556 1716 629 c 256
 1716 702 1654 749 1548 749 c 256
 1442 749 1378 679 1378 606 c 257
 1244 642 l 257
 1261 766 1369 870 1548 870 c 256
 1727 870 1851 769 1851 637 c 256
 1851 560 1806 496 1729 453 c 257
 1825 406 1883 334 1883 243 c 256
 1883 98 1744 -12 1548 -12 c 256
 1364 -12 1231 91 1213 237 c 257
 1347 273 l 257
 1347 189 1424 109 1548 109 c 256
 1672 109 1748 166 1748 250 c 256
 1748 334 1673 392 1549 392 c 258
 1490 392 l 257
 1490 507 l 257
 1548 507 l 258
700 98 m 257
 592 160 l 257
 1300 1382 l 257
 1408 1320 l 257
 700 98 l 257
EndSplineSet
Substitution2: "zeroSlashedZerolookups61 subtable" uni2189.zero
Substitution2: "ss02Alternativenumbersset2 subtable" uni2189.cv13
Substitution2: "ss01Alternativenumbersset1 subtable" uni2189.cv03
Substitution2: "cv20Alternativedigit02 subtable" uni2189.cv20
Substitution2: "cv13Alternativedigit32 subtable" uni2189.cv13
Substitution2: "cv10Alternativedigit01 subtable" uni2189.cv10
Substitution2: "cv03Alternativedigit31 subtable" uni2189.cv03
EndChar

StartChar: AE
Encoding: 198 198 209
GlifName: A_E_
Width: 2184
VWidth: 0
GlyphClass: 2
Flags: HW
AnchorPoint: "bottom_center" 1117 0 basechar 0
AnchorPoint: "top_center" 1477 1380 basechar 0
LayerCount: 2
Fore
SplineSet
910 1312 m 257
 910 1480 l 257
 1116 1480 l 257
 1116 1312 l 257
 910 1312 l 257
474 604 m 257
 1116 604 l 257
 1116 436 l 257
 474 436 l 257
 474 604 l 257
70 0 m 257
 910 1480 l 257
 1116 1480 l 257
 290 0 l 257
 70 0 l 257
1949 824 m 257
 1949 656 l 257
 1306 656 l 257
 1306 168 l 257
 2044 168 l 257
 2044 0 l 257
 1116 0 l 257
 1116 1480 l 257
 2044 1480 l 257
 2044 1312 l 257
 1306 1312 l 257
 1306 824 l 257
 1949 824 l 257
EndSplineSet
EndChar

StartChar: multiply
Encoding: 215 215 210
GlifName: multiply
Width: 1232
VWidth: 0
GlyphClass: 2
Flags: HW
LayerCount: 2
Fore
SplineSet
140 1016 m 257
 972 184 l 257
 1092 304 l 257
 260 1136 l 257
 140 1016 l 257
260 184 m 257
 1092 1016 l 257
 972 1136 l 257
 140 304 l 257
 260 184 l 257
EndSplineSet
EndChar

StartChar: Eth
Encoding: 208 208 211
GlifName: E_th
Width: 1448
VWidth: 0
GlyphClass: 2
Flags: HW
LayerCount: 2
Fore
SplineSet
670 656 m 257
 670 824 l 257
 0 824 l 257
 0 778 0 702 0 656 c 257
 670 656 l 257
400 1312 m 257
 682 1312 l 257
 952 1312 1158 1073 1158 740 c 256
 1158 407 952 168 682 168 c 257
 400 168 l 257
 400 1312 l 257
682 0 m 257
 1062 0 1348 290 1348 740 c 256
 1348 1190 1062 1480 682 1480 c 257
 210 1480 l 257
 210 0 l 257
 400 0 l 257
 682 0 l 257
EndSplineSet
EndChar

StartChar: Oslash
Encoding: 216 216 212
GlifName: O_slash
Width: 1602
VWidth: 0
GlyphClass: 2
Flags: HW
AnchorPoint: "top_center" 801 1380 basechar 0
AnchorPoint: "bottom_center" 801 0 basechar 0
LayerCount: 2
Fore
SplineSet
1365 1596 m 257
 1493 1500 l 257
 236 -116 l 257
 108 -20 l 257
 1365 1596 l 257
290 740 m 256
 290 390 511 148 801 148 c 256
 1091 148 1312 390 1312 740 c 256
 1312 1090 1091 1332 801 1332 c 256
 511 1332 290 1090 290 740 c 256
100 740 m 256
 100 1179 406 1500 801 1500 c 256
 1196 1500 1502 1179 1502 740 c 256
 1502 301 1196 -20 801 -20 c 256
 406 -20 100 301 100 740 c 256
EndSplineSet
Substitution2: "c2sc_CapitalesverspetitescapitalesdansLatinlookup0 subtable" oslash.sc
EndChar

StartChar: Thorn
Encoding: 222 222 213
GlifName: T_horn
Width: 1188
VWidth: 0
GlyphClass: 2
Flags: HW
LayerCount: 2
Fore
SplineSet
330 1025 m 257
 330 453 l 257
 612 453 l 257
 777 453 898 574 898 739 c 256
 898 904 777 1025 612 1025 c 257
 330 1025 l 257
140 0 m 257
 140 1193 l 257
 140 1480 l 257
 330 1480 l 257
 330 1193 l 257
 612 1193 l 257
 867 1193 1088 994 1088 739 c 256
 1088 484 867 285 612 285 c 257
 330 285 l 257
 330 0 l 257
 140 0 l 257
EndSplineSet
Substitution2: "c2sc_CapitalesverspetitescapitalesdansLatinlookup0 subtable" thorn.sc
EndChar

StartChar: thorn
Encoding: 254 254 214
GlifName: thorn
Width: 1184
VWidth: 0
GlyphClass: 2
Flags: HW
LayerCount: 2
Fore
SplineSet
308 520 m 256
 308 290 426 140 606 140 c 256
 786 140 904 290 904 520 c 256
 904 750 786 900 606 900 c 256
 426 900 308 750 308 520 c 256
140 872 m 257
 140 1480 l 257
 320 1480 l 257
 320 1480 320 980 320 920 c 257
 405 1005 481 1060 606 1060 c 256
 887 1060 1084 832 1084 520 c 256
 1084 208 887 -20 606 -20 c 256
 481 -20 405 35 320 120 c 257
 320 -440 l 257
 140 -440 l 257
 140 872 l 257
EndSplineSet
Substitution2: "smcpBasdecasseverspetitescapitalesdansLatinlookup0 subtable" thorn.sc
EndChar

StartChar: ae
Encoding: 230 230 215
GlifName: ae
Width: 1896
VWidth: 0
GlyphClass: 2
Flags: HW
AnchorPoint: "top_center" 920 1040 basechar 0
AnchorPoint: "bottom_center" 920 0 basechar 0
LayerCount: 2
Fore
SplineSet
874 600 m 257
 1680 600 l 257
 1610 440 l 257
 874 440 l 257
 874 600 l 257
1610 340 m 257
 1763 252 l 257
 1680 74 1497 -20 1298 -20 c 256
 1017 -20 800 208 800 520 c 256
 800 832 1017 1060 1298 1060 c 256
 1579 1060 1796 832 1796 520 c 256
 1796 493 1794 466 1791 440 c 257
 1610 440 l 257
 1614 466 1616 492 1616 520 c 256
 1616 740 1489 900 1298 900 c 256
 1107 900 980 740 980 520 c 256
 980 300 1107 140 1298 140 c 256
 1439 140 1561 207 1610 340 c 257
500 -20 m 256
 245 -20 100 140 100 340 c 256
 100 540 285 700 540 700 c 256
 755 700 950 540 950 340 c 256
 950 140 785 -20 500 -20 c 256
800 340 m 257
 800 460 720 540 540 540 c 256
 360 540 280 460 280 340 c 256
 280 220 360 140 540 140 c 256
 690 140 800 220 800 340 c 257
980 227 m 257
 800 468 l 257
 800 640 l 258
 800 820 707 901 539 901 c 256
 359 901 222 795 222 795 c 257
 140 936 l 257
 140 936 285 1060 540 1060 c 256
 786 1060 980 958 980 608 c 257
 980 227 l 257
EndSplineSet
Substitution2: "ss04StyleSet4lookups56 subtable" ae.cv23
Substitution2: "cv23CharacterVariants23lookups64 subtable" ae.cv23
Substitution2: "smcpBasdecasseverspetitescapitalesdansLatinlookup0 subtable" ae.sc
EndChar

StartChar: oslash
Encoding: 248 248 216
GlifName: oslash
Width: 1196
VWidth: 0
GlyphClass: 2
Flags: HW
AnchorPoint: "top_center" 598 1040 basechar 0
AnchorPoint: "bottom_center" 598 0 basechar 0
LayerCount: 2
Fore
SplineSet
992 1156 m 257
 1120 1060 l 257
 204 -116 l 257
 76 -20 l 257
 992 1156 l 257
280 520 m 256
 280 300 407 140 598 140 c 256
 789 140 916 300 916 520 c 256
 916 740 789 900 598 900 c 256
 407 900 280 740 280 520 c 256
100 520 m 256
 100 832 317 1060 598 1060 c 256
 879 1060 1096 832 1096 520 c 256
 1096 208 879 -20 598 -20 c 256
 317 -20 100 208 100 520 c 256
EndSplineSet
Substitution2: "smcpBasdecasseverspetitescapitalesdansLatinlookup0 subtable" oslash.sc
EndChar

StartChar: divide
Encoding: 247 247 217
GlifName: divide
Width: 1232
VWidth: 0
GlyphClass: 2
Flags: HW
LayerCount: 2
Fore
SplineSet
491 291 m 256
 491 363 544 420 616 420 c 256
 688 420 743 363 743 291 c 256
 743 219 688 164 616 164 c 256
 544 164 491 219 491 291 c 256
491 1027 m 256
 491 1099 544 1156 616 1156 c 256
 688 1156 743 1099 743 1027 c 256
 743 955 688 900 616 900 c 256
 544 900 491 955 491 1027 c 256
140 580 m 257
 140 740 l 257
 1092 740 l 257
 1092 580 l 257
 140 580 l 257
EndSplineSet
EndChar

StartChar: germandbls
Encoding: 223 223 218
GlifName: germandbls
Width: 1224
VWidth: 0
GlyphClass: 2
Flags: HW
LayerCount: 2
Fore
SplineSet
650 140 m 256
 580 140 491 153 442 179 c 257
 396 20 l 257
 462 -6 568 -20 650 -20 c 256
 949 -20 1124 161 1124 416 c 256
 1124 671 897 852 597 852 c 257
 597 692 l 257
 797 692 944 572 944 416 c 256
 944 260 850 140 650 140 c 256
320 1082 m 256
 320 1242 437 1340 587 1340 c 256
 737 1340 854 1252 854 1082 c 256
 854 932 747 852 597 852 c 257
 657 729 l 257
 852 729 1034 827 1034 1082 c 256
 1034 1337 842 1500 587 1500 c 256
 332 1500 140 1337 140 1082 c 256
 140 827 140 0 140 0 c 257
 320 0 l 257
 320 0 320 924 320 1082 c 256
EndSplineSet
Substitution2: "smcpBasdecasseverspetitescapitalesdansLatinlookup0 subtable" germandbls.sc
EndChar

StartChar: eth
Encoding: 240 240 219
GlifName: eth
Width: 1196
VWidth: 0
GlyphClass: 2
Flags: HW
LayerCount: 2
Fore
SplineSet
787 1279 m 257
 913 1352 l 257
 839 1480 l 257
 713 1407 l 257
 375 1212 l 257
 449 1084 l 257
 787 1279 l 257
375 1355 m 257
 596 1227 916 1080 916 520 c 257
 1096 520 l 257
 1096 1000 814 1310 468 1510 c 257
 375 1355 l 257
280 520 m 256
 280 740 407 900 598 900 c 256
 789 900 916 740 916 520 c 256
 916 300 789 140 598 140 c 256
 407 140 280 300 280 520 c 256
100 520 m 256
 100 208 317 -20 598 -20 c 256
 879 -20 1096 208 1096 520 c 257
 1096 520 1032 520 1013 520 c 257
 1013 832 848 1060 598 1060 c 256
 317 1060 100 832 100 520 c 256
EndSplineSet
EndChar

StartChar: macron
Encoding: 175 175 220
GlifName: macron
Width: 790
VWidth: 0
GlyphClass: 2
Flags: HW
LayerCount: 2
Fore
SplineSet
90 1340 m 257
 90 1480 l 257
 700 1480 l 257
 700 1340 l 257
 90 1340 l 257
EndSplineSet
EndChar

StartChar: uni0304
Encoding: 772 772 221
GlifName: uni0304
Width: 0
VWidth: 0
GlyphClass: 4
Flags: HW
AnchorPoint: "mark_anchor_center" 642 1654 basemark 0
AnchorPoint: "mark_anchor_left" 642 1504 basemark 0
AnchorPoint: "mark_anchor_right" 642 1504 basemark 0
AnchorPoint: "mark_anchor_top" 642 1504 basemark 0
AnchorPoint: "mark_anchor_top" 642 1224 mark 0
AnchorPoint: "top_center" 642 1040 mark 0
LayerCount: 2
Fore
SplineSet
337 1224 m 257
 337 1364 l 257
 947 1364 l 257
 947 1224 l 257
 337 1224 l 257
EndSplineSet
EndChar

StartChar: uni0306
Encoding: 774 774 224
GlifName: uni0306
Width: 0
VWidth: 0
GlyphClass: 4
Flags: HW
AnchorPoint: "mark_anchor_top" 642 1506 basemark 0
AnchorPoint: "mark_anchor_left" 642 1460 basemark 0
AnchorPoint: "mark_anchor_right" 642 1460 basemark 0
AnchorPoint: "top_center" 642 1040 mark 0
LayerCount: 2
Fore
SplineSet
642 1214 m 256
 492 1214 362 1340 362 1480 c 257
 522 1480 l 257
 522 1414 576 1354 642 1354 c 256
 708 1354 762 1414 762 1480 c 257
 922 1480 l 257
 922 1340 792 1214 642 1214 c 256
EndSplineSet
EndChar

StartChar: uni0328
Encoding: 808 808 226
GlifName: uni0328
Width: 0
VWidth: 0
GlyphClass: 4
Flags: HW
AnchorPoint: "bottom_right" 642 0 mark 0
LayerCount: 2
Fore
SplineSet
609 -225 m 257
 667 -326 l 257
 612 -364 569 -380 505 -380 c 256
 405 -380 315 -324 315 -204 c 256
 315 -84 507 44 562 80 c 257
 642 0 l 257
 534 -78 442 -137 442 -204 c 256
 442 -240 469 -263 505 -263 c 256
 541 -263 575 -250 609 -225 c 257
EndSplineSet
EndChar

StartChar: uni0307
Encoding: 775 775 229
GlifName: uni0307
Width: 0
VWidth: 0
GlyphClass: 4
Flags: HW
AnchorPoint: "mark_anchor_center" 642 1372 mark 0
AnchorPoint: "mark_anchor_top" 642 1580 basemark 0
AnchorPoint: "top_center" 642 1040 mark 0
LayerCount: 2
Fore
SplineSet
514 1372 m 256
 514 1444 570 1500 642 1500 c 256
 714 1500 770 1444 770 1372 c 256
 770 1300 714 1244 642 1244 c 256
 570 1244 514 1300 514 1372 c 256
EndSplineSet
EndChar

StartChar: uni030C
Encoding: 780 780 230
GlifName: uni030C_
Width: 0
VWidth: 0
GlyphClass: 4
Flags: HW
AnchorPoint: "mark_anchor_center" 642 1654 basemark 0
AnchorPoint: "mark_anchor_center" 642 1224 mark 0
AnchorPoint: "top_center" 642 1040 mark 0
LayerCount: 2
Fore
SplineSet
529 1480 m 257
 737 1224 l 257
 547 1224 l 257
 351 1480 l 257
 529 1480 l 257
755 1480 m 257
 933 1480 l 257
 737 1224 l 257
 547 1224 l 257
 755 1480 l 257
EndSplineSet
EndChar

StartChar: uni0237
Encoding: 567 567 317
GlifName: uni0237
Width: 509
VWidth: 0
GlyphClass: 2
Flags: HW
AnchorPoint: "top_center" 279 1040 basechar 0
AnchorPoint: "bottom_center" 219 -360 basechar 0
LayerCount: 2
Fore
SplineSet
47 -284 m 257
 59 -291 83 -300 99 -300 c 256
 159 -300 189 -270 189 -210 c 258
 189 0 l 257
 189 138 l 257
 189 1040 l 257
 369 1040 l 257
 369 138 l 257
 369 0 l 257
 369 -210 l 258
 369 -380 269 -460 99 -460 c 256
 67 -460 27 -449 5 -436 c 257
 47 -284 l 257
EndSplineSet
Substitution2: "smcpBasdecasseverspetitescapitalesdansLatinlookup0 subtable" uni0237.sc
EndChar

StartChar: oe
Encoding: 339 339 319
GlifName: oe
Width: 2012
VWidth: 0
GlyphClass: 2
Flags: HW
LayerCount: 2
Fore
SplineSet
990 600 m 257
 1796 600 l 257
 1726 440 l 257
 990 440 l 257
 990 600 l 257
1726 340 m 257
 1879 252 l 257
 1796 74 1613 -20 1414 -20 c 256
 1133 -20 916 208 916 520 c 256
 916 832 1133 1060 1414 1060 c 256
 1695 1060 1912 832 1912 520 c 256
 1912 493 1910 466 1907 440 c 257
 1726 440 l 257
 1730 466 1732 492 1732 520 c 256
 1732 740 1605 900 1414 900 c 256
 1223 900 1096 740 1096 520 c 256
 1096 300 1223 140 1414 140 c 256
 1555 140 1677 207 1726 340 c 257
280 520 m 256
 280 300 407 140 598 140 c 256
 789 140 916 300 916 520 c 256
 916 740 789 900 598 900 c 256
 407 900 280 740 280 520 c 256
100 520 m 256
 100 832 317 1060 598 1060 c 256
 879 1060 1096 832 1096 520 c 256
 1096 208 879 -20 598 -20 c 256
 317 -20 100 208 100 520 c 256
EndSplineSet
Substitution2: "smcpBasdecasseverspetitescapitalesdansLatinlookup0 subtable" oe.sc
EndChar

StartChar: OE
Encoding: 338 338 320
GlifName: O_E_
Width: 2380
VWidth: 0
GlyphClass: 2
Flags: HW
LayerCount: 2
Fore
SplineSet
290 740 m 256
 290 390 511 148 801 148 c 256
 1091 148 1312 390 1312 740 c 256
 1312 1090 1091 1332 801 1332 c 256
 511 1332 290 1090 290 740 c 256
100 740 m 256
 100 1179 406 1500 801 1500 c 256
 1196 1500 1502 1179 1502 740 c 256
 1502 301 1196 -20 801 -20 c 256
 406 -20 100 301 100 740 c 256
2145 824 m 257
 2145 656 l 257
 1502 656 l 257
 1502 168 l 257
 2240 168 l 257
 2240 0 l 257
 1312 0 l 257
 1312 1480 l 257
 2240 1480 l 257
 2240 1312 l 257
 1502 1312 l 257
 1502 824 l 257
 2145 824 l 257
EndSplineSet
EndChar

StartChar: dcaron
Encoding: 271 271 322
GlifName: dcaron
Width: 1472
VWidth: 0
GlyphClass: 2
Flags: HW
LayerCount: 2
Fore
SplineSet
1184 1371 m 256
 1184 1443 1237 1500 1309 1500 c 256
 1381 1500 1436 1443 1436 1371 c 256
 1436 1299 1381 1244 1309 1244 c 256
 1237 1244 1184 1299 1184 1371 c 256
1199 1103 m 257
 1256 1116 1345 1164 1345 1284 c 256
 1345 1312 1310 1372 1310 1372 c 257
 1309 1500 l 257
 1379 1500 1472 1454 1472 1284 c 256
 1472 1104 1306 1008 1229 988 c 257
 1199 1103 l 257
876 520 m 256
 876 750 758 900 578 900 c 256
 398 900 280 750 280 520 c 256
 280 290 398 140 578 140 c 256
 758 140 876 290 876 520 c 256
1044 168 m 257
 1044 66 1064 0 1064 0 c 257
 892 0 l 257
 892 0 876 60 876 120 c 257
 791 35 703 -20 578 -20 c 256
 297 -20 100 208 100 520 c 256
 100 832 297 1060 578 1060 c 256
 703 1060 779 1005 864 920 c 257
 864 1480 l 257
 1044 1480 l 257
 1044 168 l 257
EndSplineSet
Substitution2: "smcpBasdecasseverspetitescapitalesdansLatinlookup0 subtable" dcaron.sc
EndChar

StartChar: dcroat
Encoding: 273 273 323
GlifName: dcroat
Width: 1254
VWidth: 0
GlyphClass: 2
Flags: HW
LayerCount: 2
Fore
SplineSet
1254 1160 m 257
 584 1160 l 257
 584 1206 584 1274 584 1320 c 257
 1254 1320 l 257
 1254 1160 l 257
876 520 m 256
 876 750 758 900 578 900 c 256
 398 900 280 750 280 520 c 256
 280 290 398 140 578 140 c 256
 758 140 876 290 876 520 c 256
1044 168 m 257
 1044 66 1064 0 1064 0 c 257
 892 0 l 257
 892 0 876 60 876 120 c 257
 791 35 703 -20 578 -20 c 256
 297 -20 100 208 100 520 c 256
 100 832 297 1060 578 1060 c 256
 703 1060 779 1005 864 920 c 257
 864 1480 l 257
 1044 1480 l 257
 1044 168 l 257
EndSplineSet
Substitution2: "smcpBasdecasseverspetitescapitalesdansLatinlookup0 subtable" dcroat.sc
EndChar

StartChar: Hbar
Encoding: 294 294 324
GlifName: H_bar
Width: 1398
VWidth: 0
GlyphClass: 2
Flags: HW
LayerCount: 2
Fore
SplineSet
1398 1004 m 257
 0 1004 l 257
 0 1050 0 1110 0 1156 c 257
 1398 1156 l 257
 1398 1004 l 257
140 1480 m 257
 330 1480 l 257
 330 824 l 257
 1068 824 l 257
 1068 1480 l 257
 1258 1480 l 257
 1258 0 l 257
 1068 0 l 257
 1068 656 l 257
 330 656 l 257
 330 0 l 257
 140 0 l 257
 140 1480 l 257
EndSplineSet
Substitution2: "c2sc_CapitalesverspetitescapitalesdansLatinlookup0 subtable" hbar.sc
EndChar

StartChar: hbar
Encoding: 295 295 325
GlifName: hbar
Width: 1276
VWidth: 0
GlyphClass: 2
Flags: HW
LayerCount: 2
Fore
SplineSet
720 1160 m 257
 50 1160 l 257
 50 1206 50 1274 50 1320 c 257
 720 1320 l 257
 720 1160 l 257
956 0 m 257
 956 572 l 258
 956 791 878 900 698 900 c 256
 518 900 440 791 440 572 c 258
 440 0 l 257
 260 0 l 257
 260 1480 l 257
 432 1480 l 257
 432 920 l 257
 517 1005 613 1060 738 1060 c 256
 1008 1060 1136 892 1136 572 c 257
 1136 0 l 257
 956 0 l 257
EndSplineSet
Substitution2: "smcpBasdecasseverspetitescapitalesdansLatinlookup0 subtable" hbar.sc
EndChar

StartChar: Lcaron
Encoding: 317 317 332
GlifName: L_caron
Width: 1208
VWidth: 0
GlyphClass: 2
Flags: HW
LayerCount: 2
Fore
SplineSet
470 1371 m 256
 470 1443 523 1500 595 1500 c 256
 667 1500 722 1443 722 1371 c 256
 722 1299 667 1244 595 1244 c 256
 523 1244 470 1299 470 1371 c 256
485 1103 m 257
 542 1116 631 1164 631 1284 c 256
 631 1312 596 1372 596 1372 c 257
 595 1500 l 257
 665 1500 758 1454 758 1284 c 256
 758 1104 592 1008 515 988 c 257
 485 1103 l 257
330 1480 m 257
 330 168 l 257
 1068 168 l 257
 1068 0 l 257
 140 0 l 257
 140 1480 l 257
 330 1480 l 257
EndSplineSet
Substitution2: "c2sc_CapitalesverspetitescapitalesdansLatinlookup0 subtable" lcaron.sc
EndChar

StartChar: lcaron
Encoding: 318 318 333
GlifName: lcaron
Width: 748
VWidth: 0
GlyphClass: 2
Flags: HW
LayerCount: 2
Fore
SplineSet
460 1371 m 256
 460 1443 513 1500 585 1500 c 256
 657 1500 712 1443 712 1371 c 256
 712 1299 657 1244 585 1244 c 256
 513 1244 460 1299 460 1371 c 256
475 1103 m 257
 532 1116 621 1164 621 1284 c 256
 621 1312 586 1372 586 1372 c 257
 585 1500 l 257
 655 1500 748 1454 748 1284 c 256
 748 1104 582 1008 505 988 c 257
 475 1103 l 257
462 156 m 257
 504 4 l 257
 482 -9 442 -20 410 -20 c 256
 240 -20 140 60 140 230 c 258
 140 440 l 257
 140 578 l 257
 140 1480 l 257
 320 1480 l 257
 320 578 l 257
 320 440 l 257
 320 230 l 258
 320 170 350 140 410 140 c 256
 426 140 450 149 462 156 c 257
EndSplineSet
Substitution2: "smcpBasdecasseverspetitescapitalesdansLatinlookup0 subtable" lcaron.sc
EndChar

StartChar: Lslash
Encoding: 321 321 334
GlifName: L_slash
Width: 1208
VWidth: 0
GlyphClass: 2
Flags: HW
LayerCount: 2
Fore
SplineSet
600 1100 m 257
 600 907 l 257
 -70 520 l 257
 -70 713 l 257
 600 1100 l 257
330 1480 m 257
 330 168 l 257
 1068 168 l 257
 1068 0 l 257
 140 0 l 257
 140 1480 l 257
 330 1480 l 257
EndSplineSet
Substitution2: "c2sc_CapitalesverspetitescapitalesdansLatinlookup0 subtable" lslash.sc
EndChar

StartChar: lslash
Encoding: 322 322 335
GlifName: lslash
Width: 509
VWidth: 0
GlyphClass: 2
Flags: HW
LayerCount: 2
Fore
SplineSet
530 1060 m 257
 530 867 l 257
 -70 520 l 257
 -70 713 l 257
 530 1060 l 257
462 156 m 257
 504 4 l 257
 482 -9 442 -20 410 -20 c 256
 240 -20 140 60 140 230 c 258
 140 440 l 257
 140 578 l 257
 140 1480 l 257
 320 1480 l 257
 320 578 l 257
 320 440 l 257
 320 230 l 258
 320 170 350 140 410 140 c 256
 426 140 450 149 462 156 c 257
EndSplineSet
Substitution2: "smcpBasdecasseverspetitescapitalesdansLatinlookup0 subtable" lslash.sc
EndChar

StartChar: Eng
Encoding: 330 330 339
GlifName: E_ng
Width: 1398
VWidth: 0
GlyphClass: 2
Flags: HW
LayerCount: 2
Fore
SplineSet
1258 -202 m 258
 1258 -372 1148 -460 978 -460 c 256
 946 -460 896 -449 874 -436 c 257
 916 -284 l 257
 928 -291 962 -292 978 -292 c 256
 1038 -292 1068 -262 1068 -202 c 258
 1068 0 l 257
 1258 0 l 257
 1258 -202 l 258
330 1480 m 257
 1068 320 l 257
 1068 1480 l 257
 1258 1480 l 257
 1258 0 l 257
 1068 0 l 257
 330 1160 l 257
 330 0 l 257
 140 0 l 257
 140 1480 l 257
 330 1480 l 257
EndSplineSet
Substitution2: "c2sc_CapitalesverspetitescapitalesdansLatinlookup0 subtable" eng.sc
EndChar

StartChar: eng
Encoding: 331 331 340
GlifName: eng
Width: 1156
VWidth: 0
GlyphClass: 2
Flags: HW
LayerCount: 2
Fore
SplineSet
1016 -210 m 258
 1016 -380 916 -460 746 -460 c 256
 714 -460 674 -449 652 -436 c 257
 694 -284 l 257
 706 -291 730 -300 746 -300 c 256
 806 -300 836 -270 836 -210 c 258
 836 0 l 257
 1016 0 l 257
 1016 -210 l 258
836 572 m 258
 836 791 758 900 578 900 c 256
 398 900 320 791 320 572 c 258
 320 0 l 257
 140 0 l 257
 140 1040 l 257
 308 1040 l 257
 308 920 l 257
 393 1005 493 1060 618 1060 c 256
 888 1060 1016 892 1016 572 c 257
 1016 0 l 257
 836 0 l 257
 836 572 l 258
EndSplineSet
Substitution2: "smcpBasdecasseverspetitescapitalesdansLatinlookup0 subtable" eng.sc
EndChar

StartChar: uni02BC
Encoding: 700 700 341
GlifName: uni02B_C_
Width: 428
VWidth: 0
GlyphClass: 2
Flags: HW
LayerCount: 2
Fore
SplineSet
70 1371 m 256
 70 1443 123 1500 195 1500 c 256
 267 1500 322 1443 322 1371 c 256
 322 1299 267 1244 195 1244 c 256
 123 1244 70 1299 70 1371 c 256
85 1103 m 257
 142 1116 231 1164 231 1284 c 256
 231 1312 196 1372 196 1372 c 257
 195 1500 l 257
 265 1500 358 1454 358 1284 c 256
 358 1104 192 1008 115 988 c 257
 85 1103 l 257
EndSplineSet
EndChar

StartChar: uni030B
Encoding: 779 779 342
GlifName: uni030B_
Width: 0
VWidth: 0
GlyphClass: 4
Flags: HW
AnchorPoint: "top_center" 642 1040 mark 0
LayerCount: 2
Fore
SplineSet
883 1224 m 257
 705 1224 l 257
 883 1480 l 257
 1109 1480 l 257
 883 1224 l 257
479 1224 m 257
 301 1224 l 257
 479 1480 l 257
 705 1480 l 257
 479 1224 l 257
EndSplineSet
EndChar

StartChar: tcaron
Encoding: 357 357 349
GlifName: tcaron
Width: 1148
VWidth: 0
GlyphClass: 2
Flags: HW
LayerCount: 2
Fore
SplineSet
860 1371 m 256
 860 1443 913 1500 985 1500 c 256
 1057 1500 1112 1443 1112 1371 c 256
 1112 1299 1057 1244 985 1244 c 256
 913 1244 860 1299 860 1371 c 256
875 1103 m 257
 932 1116 1021 1164 1021 1284 c 256
 1021 1312 986 1372 986 1372 c 257
 985 1500 l 257
 1055 1500 1148 1454 1148 1284 c 256
 1148 1104 982 1008 905 988 c 257
 875 1103 l 257
122 1028 m 257
 212 1028 272 1092 272 1182 c 257
 272 1320 l 257
 440 1320 l 257
 440 1040 l 257
 720 1040 l 257
 720 880 l 257
 440 880 l 257
 440 300 l 258
 440 198 498 140 600 140 c 256
 643 140 694 156 720 175 c 257
 765 12 l 257
 720 -6 656 -20 600 -20 c 256
 400 -20 260 101 260 300 c 258
 260 880 l 257
 50 880 l 257
 50 926 50 982 50 1028 c 257
 122 1028 l 257
EndSplineSet
Substitution2: "smcpBasdecasseverspetitescapitalesdansLatinlookup0 subtable" tcaron.sc
EndChar

StartChar: tbar
Encoding: 359 359 350
GlifName: tbar
Width: 770
VWidth: 0
GlyphClass: 2
Flags: HW
LayerCount: 2
Fore
SplineSet
50 440 m 257
 50 486 50 554 50 600 c 257
 720 600 l 257
 720 440 l 257
 50 440 l 257
122 1028 m 257
 212 1028 272 1092 272 1182 c 257
 272 1320 l 257
 440 1320 l 257
 440 1040 l 257
 720 1040 l 257
 720 880 l 257
 440 880 l 257
 440 300 l 258
 440 198 498 140 600 140 c 256
 643 140 694 156 720 175 c 257
 765 12 l 257
 720 -6 656 -20 600 -20 c 256
 400 -20 260 101 260 300 c 258
 260 880 l 257
 50 880 l 257
 50 926 50 982 50 1028 c 257
 122 1028 l 257
EndSplineSet
Substitution2: "smcpBasdecasseverspetitescapitalesdansLatinlookup0 subtable" tbar.sc
EndChar

StartChar: Tbar
Encoding: 358 358 351
GlifName: T_bar
Width: 1398
VWidth: 0
GlyphClass: 2
Flags: HW
LayerCount: 2
Fore
SplineSet
1034 656 m 257
 364 656 l 257
 364 702 364 778 364 824 c 257
 1034 824 l 257
 1034 656 l 257
794 0 m 257
 604 0 l 257
 604 1312 l 257
 140 1312 l 257
 140 1480 l 257
 1258 1480 l 257
 1258 1312 l 257
 794 1312 l 257
 794 0 l 257
EndSplineSet
Substitution2: "c2sc_CapitalesverspetitescapitalesdansLatinlookup0 subtable" tbar.sc
EndChar

StartChar: zero.subscript
Encoding: 8320 8320 353
GlifName: uni2080
Width: 796
VWidth: 0
GlyphClass: 2
Flags: HW
LayerCount: 2
Fore
SplineSet
210 241 m 256
 210 27 287 -80 398 -80 c 256
 509 -80 586 27 586 241 c 256
 586 455 509 562 398 562 c 256
 287 562 210 475 210 241 c 256
75 241 m 256
 75 529 210 682 398 682 c 256
 586 682 721 529 721 241 c 256
 721 -47 586 -200 398 -200 c 256
 210 -200 75 -47 75 241 c 256
EndSplineSet
Substitution2: "tnumTabularNumbers subtable" zero.subscript.tnum
Substitution2: "pnumProportionalNumbers subtable" zero.subscript.pnum
EndChar

StartChar: four.subscript
Encoding: 8324 8324 354
GlifName: uni2084
Width: 796
VWidth: 0
GlyphClass: 2
Flags: HW
LayerCount: 2
Fore
SplineSet
516 670 m 257
 369 670 l 257
 75 107 l 257
 75 -13 l 257
 470 -13 l 257
 470 -188 l 257
 605 -188 l 257
 605 -13 l 257
 721 -13 l 257
 721 107 l 257
 605 107 l 257
 605 280 l 257
 470 280 l 257
 470 107 l 257
 219 107 l 257
 516 670 l 257
EndSplineSet
Substitution2: "tnumTabularNumbers subtable" four.subscript.tnum
Substitution2: "pnumProportionalNumbers subtable" four.subscript.pnum
EndChar

StartChar: five.subscript
Encoding: 8325 8325 355
GlifName: uni2085
Width: 796
VWidth: 0
GlyphClass: 2
Flags: HW
LayerCount: 2
Fore
SplineSet
199 670 m 257
 268 670 l 257
 643 670 l 257
 643 550 l 257
 268 550 l 257
 237 322 l 257
 279 365 321 392 404 392 c 256
 587 392 717 267 717 96 c 256
 717 -75 583 -200 397 -200 c 256
 211 -200 97 -94 79 48 c 257
 212 84 l 257
 212 4 270 -80 397 -80 c 256
 511 -80 582 -11 582 96 c 256
 582 203 509 272 394 272 c 256
 293 272 257 241 221 188 c 257
 104 232 l 257
 160 670 l 257
 199 670 l 257
EndSplineSet
Substitution2: "tnumTabularNumbers subtable" five.subscript.tnum
Substitution2: "pnumProportionalNumbers subtable" five.subscript.pnum
EndChar

StartChar: six.subscript
Encoding: 8326 8326 356
GlifName: uni2086
Width: 796
VWidth: 0
GlyphClass: 2
Flags: HW
LayerCount: 2
Fore
SplineSet
208 267 m 257
 246 347 313 399 415 399 c 256
 594 399 721 274 721 99 c 256
 721 -76 590 -200 406 -200 c 256
 282 -200 189 -143 141 -53 c 256
 119 -17 75 65 75 214 c 256
 75 524 258 682 484 682 c 256
 616 682 692 596 692 596 c 257
 630 489 l 257
 630 489 578 561 462 561 c 256
 341 561 228 460 208 267 c 257
229 100 m 256
 229 -11 304 -79 407 -79 c 256
 510 -79 586 -11 586 100 c 256
 586 211 510 279 407 279 c 256
 304 279 229 211 229 100 c 256
EndSplineSet
Substitution2: "tnumTabularNumbers subtable" six.subscript.tnum
Substitution2: "pnumProportionalNumbers subtable" six.subscript.pnum
EndChar

StartChar: seven.subscript
Encoding: 8327 8327 357
GlifName: uni2087
Width: 796
VWidth: 0
GlyphClass: 2
Flags: HW
LayerCount: 2
Fore
SplineSet
75 550 m 257
 75 670 l 257
 721 670 l 257
 721 561 l 257
 721 561 421 284 379 -188 c 257
 337 -188 285 -188 243 -188 c 257
 287 284 566 550 566 550 c 257
 75 550 l 257
EndSplineSet
Substitution2: "tnumTabularNumbers subtable" seven.subscript.tnum
Substitution2: "pnumProportionalNumbers subtable" seven.subscript.pnum
EndChar

StartChar: eight.subscript
Encoding: 8328 8328 358
GlifName: uni2088
Width: 796
VWidth: 0
GlyphClass: 2
Flags: HW
LayerCount: 2
Fore
SplineSet
63 55 m 256
 63 145 121 218 216 265 c 257
 139 308 94 368 94 445 c 256
 94 578 220 682 398 682 c 256
 576 682 701 578 701 445 c 256
 701 368 656 308 579 265 c 257
 675 218 733 146 733 55 c 256
 733 -90 594 -200 398 -200 c 256
 202 -200 63 -90 63 55 c 256
229 437 m 256
 229 364 292 319 398 319 c 256
 504 319 566 364 566 437 c 256
 566 510 504 561 398 561 c 256
 292 561 229 510 229 437 c 256
398 204 m 256
 274 204 198 146 198 62 c 256
 198 -22 274 -79 398 -79 c 256
 522 -79 598 -22 598 62 c 256
 598 146 522 204 398 204 c 256
EndSplineSet
Substitution2: "tnumTabularNumbers subtable" eight.subscript.tnum
Substitution2: "pnumProportionalNumbers subtable" eight.subscript.pnum
EndChar

StartChar: nine.subscript
Encoding: 8329 8329 359
GlifName: uni2089
Width: 796
VWidth: 0
GlyphClass: 2
Flags: HW
LayerCount: 2
Fore
SplineSet
588 215 m 257
 550 135 483 83 381 83 c 256
 202 83 75 208 75 383 c 256
 75 558 206 682 390 682 c 256
 514 682 607 625 655 535 c 256
 677 499 721 417 721 268 c 256
 721 -42 538 -200 312 -200 c 256
 180 -200 104 -114 104 -114 c 257
 166 -7 l 257
 166 -7 218 -79 334 -79 c 256
 455 -79 568 22 588 215 c 257
567 382 m 256
 567 493 492 561 389 561 c 256
 286 561 210 493 210 382 c 256
 210 271 286 203 389 203 c 256
 492 203 567 271 567 382 c 256
EndSplineSet
Substitution2: "tnumTabularNumbers subtable" nine.subscript.tnum
Substitution2: "pnumProportionalNumbers subtable" nine.subscript.pnum
EndChar

StartChar: two.subscript
Encoding: 8322 8322 360
GlifName: uni2082
Width: 796
VWidth: 0
GlyphClass: 2
Flags: HW
LayerCount: 2
Fore
SplineSet
85 -188 m 257
 85 -78 97 34 388 202 c 256
 481 256 571 297 571 398 c 256
 571 499 502 562 398 562 c 256
 294 562 225 479 225 382 c 256
 225 372 226 354 227 345 c 257
 90 382 l 257
 90 562 221 682 398 682 c 256
 575 682 706 581 706 423 c 256
 706 259 612 184 447 89 c 256
 343 29 265 -16 245 -68 c 257
 711 -68 l 257
 711 -188 l 257
 205 -188 l 257
 141 -188 l 257
 85 -188 l 257
EndSplineSet
Substitution2: "tnumTabularNumbers subtable" two.subscript.tnum
Substitution2: "pnumProportionalNumbers subtable" two.subscript.pnum
EndChar

StartChar: three.subscript
Encoding: 8323 8323 361
GlifName: uni2083
Width: 796
VWidth: 0
GlyphClass: 2
Flags: HW
LayerCount: 2
Fore
SplineSet
398 319 m 258
 504 319 566 368 566 441 c 256
 566 514 504 561 398 561 c 256
 292 561 228 491 228 418 c 257
 94 454 l 257
 111 578 219 682 398 682 c 256
 577 682 701 581 701 449 c 256
 701 372 656 308 579 265 c 257
 675 218 733 146 733 55 c 256
 733 -90 594 -200 398 -200 c 256
 214 -200 81 -97 63 49 c 257
 197 85 l 257
 197 1 274 -79 398 -79 c 256
 522 -79 598 -22 598 62 c 256
 598 146 523 204 399 204 c 258
 340 204 l 257
 340 319 l 257
 398 319 l 258
EndSplineSet
Substitution2: "tnumTabularNumbers subtable" three.subscript.tnum
Substitution2: "pnumProportionalNumbers subtable" three.subscript.pnum
EndChar

StartChar: one.subscript
Encoding: 8321 8321 362
GlifName: uni2081
Width: 796
VWidth: 0
GlyphClass: 2
Flags: HW
LayerCount: 2
Fore
SplineSet
363 391 m 257
 180 391 l 257
 180 505 l 257
 226 505 l 258
 301 505 371 559 371 630 c 258
 371 670 l 257
 498 670 l 257
 498 415 l 257
 498 -188 l 257
 363 -188 l 257
 363 391 l 257
EndSplineSet
Substitution2: "tnumTabularNumbers subtable" one.subscript.tnum
Substitution2: "pnumProportionalNumbers subtable" one.subscript.pnum
EndChar

StartChar: longs
Encoding: 383 383 363
GlifName: longs
Width: 695
VWidth: 0
GlyphClass: 2
Flags: HW
AnchorPoint: "top_center" 390 1400 basechar 0
AnchorPoint: "bottom_center" 230 0 basechar 0
LayerCount: 2
Fore
SplineSet
320 1040 m 257
 320 1180 l 258
 320 1282 378 1340 480 1340 c 256
 523 1340 574 1324 600 1305 c 257
 645 1468 l 257
 600 1486 536 1500 480 1500 c 256
 280 1500 140 1380 140 1180 c 258
 140 1040 l 257
 140 0 l 257
 320 0 l 257
 320 1040 l 257
EndSplineSet
EndChar

StartChar: uni0180
Encoding: 384 384 364
GlifName: uni0180
Width: 1254
VWidth: 0
GlyphClass: 2
Flags: HW
LayerCount: 2
Fore
SplineSet
670 1160 m 257
 0 1160 l 257
 0 1206 0 1274 0 1320 c 257
 670 1320 l 257
 670 1160 l 257
378 520 m 256
 378 290 496 140 676 140 c 256
 856 140 974 290 974 520 c 256
 974 750 856 900 676 900 c 256
 496 900 378 750 378 520 c 256
210 168 m 257
 210 1480 l 257
 390 1480 l 257
 390 920 l 257
 475 1005 551 1060 676 1060 c 256
 957 1060 1154 832 1154 520 c 256
 1154 208 957 -20 676 -20 c 256
 551 -20 467 35 382 120 c 257
 382 0 l 257
 210 0 l 257
 210 0 210 66 210 168 c 257
EndSplineSet
Substitution2: "smcpBasdecasseverspetitescapitalesdansLatinlookup0 subtable" uni0180.sc
EndChar

StartChar: uni0181
Encoding: 385 385 365
GlifName: uni0181
Width: 1473
VWidth: 0
GlyphClass: 2
Flags: HW
LayerCount: 2
Fore
SplineSet
196 1110 m 257
 4 1110 l 257
 1 1126 0 1143 0 1160 c 256
 0 1338 152 1480 330 1480 c 256
 345 1480 360 1479 374 1477 c 257
 374 1306 l 257
 361 1310 346 1312 330 1312 c 256
 240 1312 190 1250 190 1160 c 256
 190 1142 191 1125 196 1110 c 257
897 1480 m 257
 1117 1480 1309 1330 1309 1110 c 256
 1309 890 1117 740 897 740 c 257
 897 908 l 257
 1022 908 1119 987 1119 1112 c 256
 1119 1237 1022 1312 897 1312 c 257
 520 1312 l 257
 520 1480 l 257
 897 1480 l 257
520 168 m 257
 897 168 l 257
 1062 168 1183 289 1183 454 c 256
 1183 619 1062 740 897 740 c 257
 520 740 l 257
 520 168 l 257
330 0 m 257
 330 1480 l 257
 520 1480 l 257
 520 908 l 257
 897 908 l 257
 1152 908 1373 709 1373 454 c 256
 1373 199 1152 0 897 0 c 257
 330 0 l 257
EndSplineSet
Substitution2: "c2sc_CapitalesverspetitescapitalesdansLatinlookup0 subtable" uni0253.sc
EndChar

StartChar: uni0182
Encoding: 386 386 366
GlifName: uni0182
Width: 1283
VWidth: 0
GlyphClass: 2
Flags: HW
LayerCount: 2
Fore
SplineSet
1068 1312 m 257
 330 1312 l 257
 330 1480 l 257
 1068 1480 l 257
 1068 1312 l 257
330 168 m 257
 707 168 l 257
 872 168 993 289 993 454 c 256
 993 619 872 740 707 740 c 257
 330 740 l 257
 330 168 l 257
140 1480 m 257
 330 1480 l 257
 330 908 l 257
 707 908 l 257
 962 908 1183 709 1183 454 c 256
 1183 199 962 0 707 0 c 257
 140 0 l 257
 140 1480 l 257
EndSplineSet
Substitution2: "c2sc_CapitalesverspetitescapitalesdansLatinlookup0 subtable" uni0183.sc
EndChar

StartChar: uni0183
Encoding: 387 387 367
GlifName: uni0183
Width: 1184
VWidth: 0
GlyphClass: 2
Flags: HW
LayerCount: 2
Fore
SplineSet
979 1320 m 257
 320 1320 l 257
 320 1480 l 257
 979 1480 l 257
 979 1320 l 257
308 520 m 256
 308 290 426 140 606 140 c 256
 786 140 904 290 904 520 c 256
 904 750 786 900 606 900 c 256
 426 900 308 750 308 520 c 256
140 168 m 257
 140 1480 l 257
 320 1480 l 257
 320 920 l 257
 405 1005 481 1060 606 1060 c 256
 887 1060 1084 832 1084 520 c 256
 1084 208 887 -20 606 -20 c 256
 481 -20 397 35 312 120 c 257
 312 0 l 257
 140 0 l 257
 140 0 140 66 140 168 c 257
EndSplineSet
Substitution2: "smcpBasdecasseverspetitescapitalesdansLatinlookup0 subtable" uni0183.sc
EndChar

StartChar: uni0184
Encoding: 388 388 368
GlifName: uni0184
Width: 1283
VWidth: 0
GlyphClass: 2
Flags: HW
LayerCount: 2
Fore
SplineSet
330 168 m 257
 707 168 l 257
 872 168 993 289 993 454 c 256
 993 619 872 740 707 740 c 257
 330 740 l 257
 330 168 l 257
223 1480 m 257
 330 1480 l 257
 330 908 l 257
 707 908 l 257
 962 908 1183 709 1183 454 c 256
 1183 199 962 0 707 0 c 257
 140 0 l 257
 140 1160 l 257
 -50 1270 l 257
 223 1480 l 257
EndSplineSet
Substitution2: "c2sc_CapitalesverspetitescapitalesdansLatinlookup0 subtable" uni0185.sc
EndChar

StartChar: uni0185
Encoding: 389 389 369
GlifName: uni0185
Width: 1184
VWidth: 0
GlyphClass: 2
Flags: HW
LayerCount: 2
Fore
SplineSet
308 520 m 256
 308 290 426 140 606 140 c 256
 786 140 904 290 904 520 c 256
 904 750 786 900 606 900 c 256
 426 900 308 750 308 520 c 256
320 1480 m 257
 320 920 l 257
 405 1005 481 1060 606 1060 c 256
 887 1060 1084 832 1084 520 c 256
 1084 208 887 -20 606 -20 c 256
 481 -20 397 35 312 120 c 257
 312 0 l 257
 140 0 l 257
 140 0 140 66 140 168 c 257
 140 1160 l 257
 -50 1270 l 257
 223 1480 l 257
 320 1480 l 257
EndSplineSet
Substitution2: "smcpBasdecasseverspetitescapitalesdansLatinlookup0 subtable" uni0185.sc
EndChar

StartChar: uni0186
Encoding: 390 390 370
GlifName: uni0186
Width: 1514
VWidth: 0
GlyphClass: 2
Flags: HW
AnchorPoint: "top_center" 713 1380 basechar 0
AnchorPoint: "bottom_center" 713 0 basechar 0
AnchorPoint: "bottom_cedilla" 713 -20 basechar 0
LayerCount: 2
Fore
SplineSet
261 1028 m 257
 344 1215 512 1332 713 1332 c 256
 1003 1332 1224 1090 1224 740 c 256
 1224 390 1003 148 713 148 c 256
 512 148 344 265 261 452 c 257
 100 360 l 257
 218 128 445 -20 713 -20 c 256
 1108 -20 1414 301 1414 740 c 256
 1414 1179 1108 1500 713 1500 c 256
 445 1500 218 1352 100 1120 c 257
 261 1028 l 257
EndSplineSet
Substitution2: "c2sc_CapitalesverspetitescapitalesdansLatinlookup0 subtable" uni0254.sc
EndChar

StartChar: uni0187
Encoding: 391 391 371
GlifName: uni0187
Width: 1586
VWidth: 0
GlyphClass: 2
Flags: HW
LayerCount: 2
Fore
SplineSet
1542 1500 m 256
 1557 1500 1572 1499 1586 1497 c 257
 1586 1326 l 257
 1573 1330 1558 1332 1542 1332 c 256
 1452 1332 1402 1270 1402 1180 c 256
 1402 1162 1403 1145 1408 1130 c 257
 1216 1130 l 257
 1213 1146 1212 1163 1212 1180 c 256
 1212 1358 1364 1500 1542 1500 c 256
1253 1028 m 257
 1170 1215 1002 1332 801 1332 c 256
 511 1332 290 1090 290 740 c 256
 290 390 511 148 801 148 c 256
 1002 148 1170 265 1253 452 c 257
 1414 360 l 257
 1296 128 1069 -20 801 -20 c 256
 406 -20 100 301 100 740 c 256
 100 1179 406 1500 801 1500 c 256
 1069 1500 1296 1352 1414 1120 c 257
 1253 1028 l 257
EndSplineSet
Substitution2: "c2sc_CapitalesverspetitescapitalesdansLatinlookup0 subtable" uni0188.sc
EndChar

StartChar: uni0188
Encoding: 392 392 372
GlifName: uni0188
Width: 1228
VWidth: 0
GlyphClass: 2
Flags: HW
LayerCount: 2
Fore
SplineSet
1184 1160 m 256
 1199 1160 1214 1159 1228 1157 c 257
 1228 994 l 257
 1215 998 1200 1000 1184 1000 c 256
 1094 1000 1034 930 1034 840 c 256
 1034 822 1035 805 1040 790 c 257
 858 790 l 257
 855 806 854 823 854 840 c 256
 854 1018 1006 1160 1184 1160 c 256
280 520 m 256
 280 300 407 140 598 140 c 256
 739 140 840 207 889 340 c 257
 1042 252 l 257
 959 74 797 -20 598 -20 c 256
 317 -20 100 208 100 520 c 256
 100 832 317 1060 598 1060 c 256
 797 1060 959 966 1042 788 c 257
 889 700 l 257
 840 833 739 900 598 900 c 256
 407 900 280 740 280 520 c 256
EndSplineSet
Substitution2: "smcpBasdecasseverspetitescapitalesdansLatinlookup0 subtable" uni0188.sc
EndChar

StartChar: uni018A
Encoding: 394 394 374
GlifName: uni018A_
Width: 1568
VWidth: 0
GlyphClass: 2
Flags: HW
LayerCount: 2
Fore
SplineSet
196 1110 m 257
 4 1110 l 257
 1 1126 0 1143 0 1160 c 256
 0 1338 152 1480 330 1480 c 256
 345 1480 360 1479 374 1477 c 257
 374 1306 l 257
 361 1310 346 1312 330 1312 c 256
 240 1312 190 1250 190 1160 c 256
 190 1142 191 1125 196 1110 c 257
520 1312 m 257
 520 168 l 257
 802 168 l 257
 1072 168 1278 407 1278 740 c 256
 1278 1073 1072 1312 802 1312 c 257
 520 1312 l 257
802 0 m 257
 520 0 l 257
 330 0 l 257
 330 1480 l 257
 802 1480 l 257
 1182 1480 1468 1190 1468 740 c 256
 1468 290 1182 0 802 0 c 257
EndSplineSet
Substitution2: "c2sc_CapitalesverspetitescapitalesdansLatinlookup0 subtable" uni0257.sc
EndChar

StartChar: uni018B
Encoding: 395 395 375
GlifName: uni018B_
Width: 1283
VWidth: 0
GlyphClass: 2
Flags: HW
LayerCount: 2
Fore
SplineSet
215 1312 m 257
 953 1312 l 257
 953 1480 l 257
 215 1480 l 257
 215 1312 l 257
953 168 m 257
 576 168 l 257
 411 168 290 289 290 454 c 256
 290 619 411 740 576 740 c 257
 953 740 l 257
 953 168 l 257
1143 1480 m 257
 953 1480 l 257
 953 908 l 257
 576 908 l 257
 321 908 100 709 100 454 c 256
 100 199 321 0 576 0 c 257
 1143 0 l 257
 1143 1480 l 257
EndSplineSet
Substitution2: "c2sc_CapitalesverspetitescapitalesdansLatinlookup0 subtable" uni018C.sc
EndChar

StartChar: uni018C
Encoding: 396 396 376
GlifName: uni018C_
Width: 1184
VWidth: 0
GlyphClass: 2
Flags: HW
LayerCount: 2
Fore
SplineSet
205 1320 m 257
 864 1320 l 257
 864 1480 l 257
 205 1480 l 257
 205 1320 l 257
876 520 m 256
 876 290 758 140 578 140 c 256
 398 140 280 290 280 520 c 256
 280 750 398 900 578 900 c 256
 758 900 876 750 876 520 c 256
1044 168 m 257
 1044 1480 l 257
 864 1480 l 257
 864 920 l 257
 779 1005 703 1060 578 1060 c 256
 297 1060 100 832 100 520 c 256
 100 208 297 -20 578 -20 c 256
 703 -20 787 35 872 120 c 257
 872 60 888 0 888 0 c 257
 1064 0 l 257
 1064 0 1044 66 1044 168 c 257
EndSplineSet
Substitution2: "smcpBasdecasseverspetitescapitalesdansLatinlookup0 subtable" uni018C.sc
EndChar

StartChar: uni018D
Encoding: 397 397 377
GlifName: uni018D_
Width: 1196
VWidth: 0
GlyphClass: 2
Flags: HW
LayerCount: 2
Fore
SplineSet
1096 520 m 256
 1096 208 879 20 598 20 c 257
 598 140 l 257
 789 140 916 300 916 520 c 256
 916 740 789 900 598 900 c 256
 407 900 280 740 280 520 c 256
 280 300 407 140 598 140 c 257
 598 -20 l 257
 317 -20 100 208 100 520 c 256
 100 832 317 1060 598 1060 c 256
 879 1060 1096 832 1096 520 c 256
519 -460 m 256
 349 -460 199 -346 199 -346 c 257
 281 -205 l 257
 281 -205 408 -311 558 -311 c 256
 808 -311 848 -217 848 -157 c 256
 848 -97 818 -20 598 -20 c 257
 598 140 l 257
 898 140 1028 -7 1028 -157 c 256
 1028 -307 899 -460 519 -460 c 256
EndSplineSet
EndChar

StartChar: uni018E
Encoding: 398 398 378
GlifName: uni018E_
Width: 1208
VWidth: 0
GlyphClass: 2
Flags: HW
LayerCount: 2
Fore
SplineSet
235 656 m 257
 235 824 l 257
 878 824 l 257
 878 1312 l 257
 140 1312 l 257
 140 1480 l 257
 1068 1480 l 257
 1068 0 l 257
 140 0 l 257
 140 168 l 257
 878 168 l 257
 878 656 l 257
 235 656 l 257
EndSplineSet
Substitution2: "c2sc_CapitalesverspetitescapitalesdansLatinlookup0 subtable" uni01DD.sc
EndChar

StartChar: uni018F
Encoding: 399 399 379
GlifName: uni018F_
Width: 1602
VWidth: 0
GlyphClass: 2
Flags: HW
LayerCount: 2
Fore
SplineSet
104 824 m 257
 102 797 100 769 100 740 c 256
 100 301 406 -20 801 -20 c 256
 1196 -20 1502 291 1502 730 c 256
 1502 1169 1196 1500 801 1500 c 256
 533 1500 282 1351 164 1119 c 257
 325 1027 l 257
 408 1214 600 1332 801 1332 c 256
 1091 1332 1312 1090 1312 740 c 256
 1312 390 1091 148 801 148 c 256
 511 148 290 390 290 740 c 256
 290 769 291 797 294 824 c 257
 104 824 l 257
1406 656 m 257
 1406 824 l 257
 294 824 l 257
 198 656 l 257
 1406 656 l 257
EndSplineSet
Substitution2: "c2sc_CapitalesverspetitescapitalesdansLatinlookup0 subtable" uni0259.sc
EndChar

StartChar: uni0190
Encoding: 400 400 380
GlifName: uni0190
Width: 1222
VWidth: 0
GlyphClass: 2
Flags: HW
AnchorPoint: "bottom_center" 612 0 basechar 0
AnchorPoint: "top_center" 612 1380 basechar 0
LayerCount: 2
Fore
SplineSet
612 856 m 258
 437 856 335 957 335 1094 c 256
 335 1231 437 1332 612 1332 c 256
 787 1332 891 1207 891 1070 c 257
 1078 1120 l 257
 1052 1321 887 1500 612 1500 c 256
 337 1500 145 1321 145 1098 c 256
 145 969 209 854 317 781 c 257
 182 702 100 570 100 418 c 256
 100 175 312 -20 612 -20 c 256
 893 -20 1095 158 1122 396 c 257
 935 446 l 257
 935 290 812 148 612 148 c 256
 412 148 290 266 290 422 c 256
 290 578 412 696 612 696 c 258
 707 696 l 257
 707 856 l 257
 612 856 l 258
EndSplineSet
Substitution2: "c2sc_CapitalesverspetitescapitalesdansLatinlookup0 subtable" uni025B.sc
EndChar

StartChar: uni0191
Encoding: 401 401 381
GlifName: uni0191
Width: 1208
VWidth: 0
GlyphClass: 2
Flags: HW
LayerCount: 2
Fore
SplineSet
-44 -146 m 257
 -31 -150 -16 -152 -0 -152 c 256
 90 -152 140 -90 140 0 c 257
 330 0 l 257
 330 -178 178 -320 0 -320 c 256
 -15 -320 -30 -319 -44 -317 c 257
 -44 -146 l 257
330 168 m 257
 330 0 l 257
 140 0 l 257
 140 1480 l 257
 1068 1480 l 257
 1068 1312 l 257
 330 1312 l 257
 330 824 l 257
 973 824 l 257
 973 656 l 257
 330 656 l 257
 330 168 l 257
EndSplineSet
EndChar

StartChar: florin
Encoding: 402 402 382
GlifName: florin
Width: 770
VWidth: 0
GlyphClass: 2
Flags: HW
LayerCount: 2
Fore
SplineSet
67 -146 m 257
 80 -150 95 -152 111 -152 c 256
 201 -152 260 -90 260 0 c 257
 440 0 l 257
 440 -178 289 -312 111 -312 c 256
 96 -312 81 -311 67 -309 c 257
 67 -146 l 257
720 1305 m 257
 694 1324 643 1340 600 1340 c 256
 498 1340 440 1282 440 1180 c 258
 440 1040 l 257
 720 1040 l 257
 720 880 l 257
 440 880 l 257
 440 0 l 257
 260 0 l 257
 260 880 l 257
 50 880 l 257
 50 1040 l 257
 260 1040 l 257
 260 1180 l 258
 260 1380 400 1500 600 1500 c 256
 656 1500 720 1486 765 1468 c 257
 720 1305 l 257
EndSplineSet
Substitution2: "smcpBasdecasseverspetitescapitalesdansLatinlookup0 subtable" florin.sc
EndChar

StartChar: uni0193
Encoding: 403 403 383
GlifName: uni0193
Width: 1586
VWidth: 0
GlyphClass: 2
Flags: HW
LayerCount: 2
Fore
SplineSet
1542 1500 m 256
 1557 1500 1572 1499 1586 1497 c 257
 1586 1326 l 257
 1573 1330 1558 1332 1542 1332 c 256
 1452 1332 1402 1270 1402 1180 c 256
 1402 1162 1403 1145 1408 1130 c 257
 1216 1130 l 257
 1213 1146 1212 1163 1212 1180 c 256
 1212 1358 1364 1500 1542 1500 c 256
1253 1029 m 257
 1170 1216 1002 1332 801 1332 c 256
 511 1332 290 1090 290 740 c 256
 290 390 511 148 801 148 c 256
 1002 148 1170 264 1253 451 c 257
 1414 360 l 257
 1296 128 1069 -20 801 -20 c 256
 406 -20 100 301 100 740 c 256
 100 1179 406 1500 801 1500 c 256
 1069 1500 1296 1352 1414 1120 c 257
 1253 1029 l 257
801 740 m 257
 1422 740 l 257
 1422 0 l 257
 1240 0 l 257
 1240 227 l 257
 1232 253 l 257
 1232 572 l 257
 801 572 l 257
 801 740 l 257
EndSplineSet
Substitution2: "ss03StyleSet3lookups55 subtable" uni0193.cv21
Substitution2: "cv21CharacterVariants21lookups62 subtable" uni0193.cv21
Substitution2: "c2sc_CapitalesverspetitescapitalesdansLatinlookup0 subtable" uni0260.sc
EndChar

StartChar: uni0194
Encoding: 404 404 384
GlifName: uni0194
Width: 1356
VWidth: 0
GlyphClass: 2
Flags: HW
LayerCount: 2
Fore
SplineSet
976 0 m 257
 996 -42 1008 -90 1008 -140 c 256
 1008 -318 856 -460 678 -460 c 256
 500 -460 348 -318 348 -140 c 256
 348 -90 360 -42 380 0 c 257
 580 402 l 257
 70 1480 l 257
 266 1480 l 257
 678 599 l 257
 1090 1480 l 257
 1286 1480 l 257
 776 402 l 257
 976 0 l 257
784 0 m 257
 678 195 l 257
 582 0 l 257
 559 -45 538 -100 538 -140 c 256
 538 -230 588 -292 678 -292 c 256
 768 -292 828 -230 828 -140 c 256
 828 -100 807 -45 784 0 c 257
EndSplineSet
Substitution2: "c2sc_CapitalesverspetitescapitalesdansLatinlookup0 subtable" uni0263.sc
EndChar

StartChar: uni0195
Encoding: 405 405 385
GlifName: uni0195
Width: 1812
VWidth: 0
GlyphClass: 2
Flags: HW
LayerCount: 2
Fore
SplineSet
1712 468 m 256
 1712 197 1544 -20 1274 -20 c 256
 1004 -20 836 118 836 468 c 257
 836 572 l 257
 836 791 758 900 578 900 c 256
 398 900 320 791 320 572 c 258
 320 0 l 257
 140 0 l 257
 140 1480 l 257
 312 1480 l 257
 312 920 l 257
 397 1005 493 1060 618 1060 c 256
 888 1060 1016 892 1016 572 c 257
 1016 468 l 258
 1016 249 1094 140 1274 140 c 256
 1454 140 1532 289 1532 468 c 256
 1532 738 1454 863 1372 972 c 257
 1525 1060 l 257
 1598 969 1712 818 1712 468 c 256
EndSplineSet
Substitution2: "smcpBasdecasseverspetitescapitalesdansLatinlookup0 subtable" uni0195.sc
EndChar

StartChar: uni0196
Encoding: 406 406 386
GlifName: uni0196
Width: 695
VWidth: 0
GlyphClass: 2
Flags: HW
LayerCount: 2
Fore
SplineSet
480 -20 m 256
 280 -20 140 100 140 300 c 258
 140 440 l 257
 140 1480 l 257
 320 1480 l 257
 320 440 l 257
 320 300 l 258
 320 198 378 140 480 140 c 256
 523 140 574 156 600 175 c 257
 645 12 l 257
 600 -6 536 -20 480 -20 c 256
EndSplineSet
Substitution2: "c2sc_CapitalesverspetitescapitalesdansLatinlookup0 subtable" uni0269.sc
EndChar

StartChar: uni0197
Encoding: 407 407 387
GlifName: uni0197
Width: 770
VWidth: 0
GlyphClass: 2
Flags: HW
LayerCount: 2
Fore
SplineSet
720 656 m 257
 50 656 l 257
 50 702 50 778 50 824 c 257
 720 824 l 257
 720 656 l 257
122 1480 m 257
 648 1480 l 257
 648 1312 l 257
 480 1312 l 257
 480 168 l 257
 648 168 l 257
 648 0 l 257
 122 0 l 257
 122 168 l 257
 290 168 l 257
 290 1312 l 257
 122 1312 l 257
 122 1480 l 257
EndSplineSet
Substitution2: "ss03StyleSet3lookups55 subtable" uni0197.cv22
Substitution2: "cv22CharacterVariants22lookups63 subtable" uni0197.cv22
Substitution2: "c2sc_CapitalesverspetitescapitalesdansLatinlookup0 subtable" uni0268.sc
EndChar

StartChar: uni0198
Encoding: 408 408 388
GlifName: uni0198
Width: 1366
VWidth: 0
GlyphClass: 2
Flags: HW
LayerCount: 2
Fore
SplineSet
549 794 m 257
 679 917 l 257
 1296 0 l 257
 1082 0 l 257
 549 794 l 257
140 1180 m 257
 140 1358 292 1500 470 1500 c 256
 485 1500 500 1499 514 1497 c 257
 514 1326 l 257
 501 1330 486 1332 470 1332 c 256
 380 1332 330 1270 330 1180 c 257
 330 730 l 257
 1056 1480 l 257
 1116 1480 1236 1480 1296 1480 c 257
 330 490 l 257
 330 0 l 257
 140 0 l 257
 140 1180 l 257
EndSplineSet
Substitution2: "c2sc_CapitalesverspetitescapitalesdansLatinlookup0 subtable" uni0199.sc
EndChar

StartChar: uni0199
Encoding: 409 409 389
GlifName: uni0199
Width: 1059
VWidth: 0
GlyphClass: 2
Flags: HW
LayerCount: 2
Fore
SplineSet
417 562 m 257
 526 702 l 257
 1024 0 l 257
 816 0 l 257
 417 562 l 257
140 1177 m 257
 140 1358 292 1500 470 1500 c 256
 485 1500 500 1499 514 1497 c 257
 514 1334 l 257
 501 1338 486 1340 470 1340 c 256
 380 1340 320 1270 320 1177 c 257
 320 572 l 257
 788 1040 l 257
 848 1040 960 1040 1020 1040 c 257
 320 340 l 257
 320 0 l 257
 140 0 l 257
 140 1177 l 257
EndSplineSet
Substitution2: "smcpBasdecasseverspetitescapitalesdansLatinlookup0 subtable" uni0199.sc
EndChar

StartChar: uni019A
Encoding: 410 410 390
GlifName: uni019A_
Width: 509
VWidth: 0
GlyphClass: 2
Flags: HW
LayerCount: 2
Fore
SplineSet
570 660 m 257
 -100 660 l 257
 -100 706 -100 774 -100 820 c 257
 570 820 l 257
 570 660 l 257
462 156 m 257
 504 4 l 257
 482 -9 442 -20 410 -20 c 256
 240 -20 140 60 140 230 c 258
 140 440 l 257
 140 578 l 257
 140 1480 l 257
 320 1480 l 257
 320 578 l 257
 320 440 l 257
 320 230 l 258
 320 170 350 140 410 140 c 256
 426 140 450 149 462 156 c 257
EndSplineSet
Substitution2: "smcpBasdecasseverspetitescapitalesdansLatinlookup0 subtable" uni019A.sc
EndChar

StartChar: uni019B
Encoding: 411 411 391
GlifName: uni019B_
Width: 1172
VWidth: 0
GlyphClass: 2
Flags: HW
LayerCount: 2
Fore
SplineSet
587 1279 m 257
 713 1352 l 257
 639 1480 l 257
 513 1407 l 257
 175 1212 l 257
 249 1084 l 257
 587 1279 l 257
629 1040 m 257
 525 1357 l 258
 488 1461 403 1502 273 1502 c 256
 241 1502 201 1493 179 1480 c 257
 221 1328 l 257
 233 1335 257 1342 273 1342 c 256
 317 1342 345 1325 357 1292 c 258
 451 1016 l 257
 70 0 l 257
 262 0 l 257
 542 773 l 257
 756 125 l 258
 793 21 878 -20 1008 -20 c 256
 1040 -20 1080 -13 1102 0 c 257
 1060 152 l 257
 1048 145 1024 140 1008 140 c 256
 964 140 936 157 924 190 c 258
 629 1040 l 257
EndSplineSet
Substitution2: "smcpBasdecasseverspetitescapitalesdansLatinlookup0 subtable" uni019B.sc
EndChar

StartChar: uni019C
Encoding: 412 412 392
GlifName: uni019C_
Width: 1721
VWidth: 0
GlyphClass: 2
Flags: HW
LayerCount: 2
Fore
SplineSet
1581 168 m 257
 1581 66 1601 0 1601 0 c 257
 1419 0 l 257
 1419 0 1403 60 1403 120 c 257
 1330 33 1266 -20 1141 -20 c 256
 911 -20 765 128 765 468 c 257
 765 1500 l 257
 955 1500 l 257
 955 468 l 257
 955 249 1013 148 1173 148 c 256
 1333 148 1391 249 1391 468 c 258
 1391 1500 l 257
 1581 1500 l 257
 1581 168 l 257
911 468 m 257
 911 148 746 -20 516 -20 c 256
 286 -20 140 128 140 468 c 257
 140 1500 l 257
 330 1500 l 257
 330 468 l 257
 330 249 388 148 548 148 c 256
 708 148 765 249 765 468 c 257
 911 468 l 257
EndSplineSet
Substitution2: "c2sc_CapitalesverspetitescapitalesdansLatinlookup0 subtable" uni026F.sc
EndChar

StartChar: uni019D
Encoding: 413 413 393
GlifName: uni019D_
Width: 1442
VWidth: 0
GlyphClass: 2
Flags: HW
LayerCount: 2
Fore
SplineSet
0 -146 m 257
 13 -150 28 -152 44 -152 c 256
 134 -152 184 -90 184 0 c 257
 374 0 l 257
 374 -178 222 -320 44 -320 c 256
 29 -320 14 -319 0 -317 c 257
 0 -146 l 257
374 1480 m 257
 1112 320 l 257
 1112 1480 l 257
 1302 1480 l 257
 1302 0 l 257
 1112 0 l 257
 374 1160 l 257
 374 0 l 257
 184 0 l 257
 184 1480 l 257
 374 1480 l 257
EndSplineSet
Substitution2: "c2sc_CapitalesverspetitescapitalesdansLatinlookup0 subtable" uni0272.sc
EndChar

StartChar: uni019E
Encoding: 414 414 394
GlifName: uni019E_
Width: 1156
VWidth: 0
GlyphClass: 2
Flags: HW
LayerCount: 2
Fore
SplineSet
836 -440 m 257
 836 572 l 258
 836 791 758 900 578 900 c 256
 398 900 320 791 320 572 c 258
 320 0 l 257
 140 0 l 257
 140 1040 l 257
 308 1040 l 257
 308 920 l 257
 393 1005 493 1060 618 1060 c 256
 888 1060 1016 892 1016 572 c 257
 1016 -440 l 257
 836 -440 l 257
EndSplineSet
Substitution2: "smcpBasdecasseverspetitescapitalesdansLatinlookup0 subtable" uni019E.sc
EndChar

StartChar: uni019F
Encoding: 415 415 395
GlifName: uni019F_
Width: 1602
VWidth: 0
GlyphClass: 2
Flags: HW
LayerCount: 2
Fore
SplineSet
1406 656 m 257
 198 656 l 257
 198 824 l 257
 1406 824 l 257
 1406 656 l 257
290 740 m 256
 290 390 511 148 801 148 c 256
 1091 148 1312 390 1312 740 c 256
 1312 1090 1091 1332 801 1332 c 256
 511 1332 290 1090 290 740 c 256
100 740 m 256
 100 1179 406 1500 801 1500 c 256
 1196 1500 1502 1179 1502 740 c 256
 1502 301 1196 -20 801 -20 c 256
 406 -20 100 301 100 740 c 256
EndSplineSet
Substitution2: "c2sc_CapitalesverspetitescapitalesdansLatinlookup0 subtable" uni0275.sc
EndChar

StartChar: uni031B
Encoding: 795 795 398
GlifName: uni031B_
Width: 0
VWidth: 0
GlyphClass: 4
Flags: HW
AnchorPoint: "top_right" 0 1480 mark 0
LayerCount: 2
Fore
SplineSet
169 1319 m 257
 162 1316 157 1315 149 1315 c 256
 97 1315 53 1355 53 1407 c 256
 53 1459 97 1500 149 1500 c 256
 199 1500 272 1466 272 1344 c 256
 272 1214 172 1100 0 1063 c 257
 0 1175 l 257
 127 1207 169 1270 169 1319 c 257
EndSplineSet
EndChar

StartChar: uni01A2
Encoding: 418 418 399
GlifName: uni01A_2
Width: 1869
VWidth: 0
GlyphClass: 2
Flags: HW
LayerCount: 2
Fore
SplineSet
1235 1338 m 257
 1235 1170 l 257
 1398 1170 1518 1226 1635 1321 c 257
 1539 1470 l 257
 1451 1386 1364 1338 1235 1338 c 257
1539 -410 m 257
 1729 -410 l 257
 1729 1470 l 257
 1539 1470 l 257
 1539 -410 l 257
1159 253 m 257
 1349 253 l 257
 1349 1227 l 257
 1159 1227 l 257
 1159 253 l 257
1253 452 m 257
 1170 265 1002 148 801 148 c 256
 511 148 290 390 290 740 c 256
 290 1090 511 1332 801 1332 c 256
 1002 1332 1170 1215 1253 1028 c 257
 1349 1227 l 257
 1222 1397 1025 1500 801 1500 c 256
 406 1500 100 1179 100 740 c 256
 100 301 406 -20 801 -20 c 256
 1025 -20 1222 83 1349 253 c 257
 1253 452 l 257
EndSplineSet
Substitution2: "c2sc_CapitalesverspetitescapitalesdansLatinlookup0 subtable" uni01A3.sc
EndChar

StartChar: uni01A3
Encoding: 419 419 400
GlifName: uni01A_3
Width: 1496
VWidth: 0
GlyphClass: 2
Flags: HW
LayerCount: 2
Fore
SplineSet
1335 969 m 257
 1176 1040 l 257
 1120 966 1037 922 937 922 c 257
 937 762 l 257
 1102 762 1244 841 1335 969 c 257
1176 -440 m 257
 1356 -440 l 257
 1356 1040 l 257
 1176 1040 l 257
 1176 -440 l 257
816 187 m 257
 996 187 l 257
 996 853 l 257
 816 853 l 257
 816 187 l 257
865 302 m 257
 811 202 717 140 598 140 c 256
 407 140 280 300 280 520 c 256
 280 740 407 900 598 900 c 256
 731 900 833 822 883 700 c 257
 996 853 l 257
 905 981 763 1060 598 1060 c 256
 317 1060 100 832 100 520 c 256
 100 208 317 -20 598 -20 c 256
 763 -20 906 59 996 187 c 257
 865 302 l 257
EndSplineSet
Substitution2: "smcpBasdecasseverspetitescapitalesdansLatinlookup0 subtable" uni01A3.sc
EndChar

StartChar: uni01A4
Encoding: 420 420 401
GlifName: uni01A_4
Width: 1378
VWidth: 0
GlyphClass: 2
Flags: HW
LayerCount: 2
Fore
SplineSet
196 1110 m 257
 4 1110 l 257
 1 1126 0 1143 0 1160 c 256
 0 1338 152 1480 330 1480 c 256
 345 1480 360 1479 374 1477 c 257
 374 1306 l 257
 361 1310 346 1312 330 1312 c 256
 240 1312 190 1250 190 1160 c 256
 190 1142 191 1125 196 1110 c 257
520 1312 m 257
 520 740 l 257
 802 740 l 257
 967 740 1088 861 1088 1026 c 256
 1088 1191 967 1312 802 1312 c 257
 520 1312 l 257
330 0 m 257
 330 1480 l 257
 802 1480 l 257
 1057 1480 1278 1281 1278 1026 c 256
 1278 771 1057 572 802 572 c 257
 520 572 l 257
 520 0 l 257
 330 0 l 257
EndSplineSet
Substitution2: "c2sc_CapitalesverspetitescapitalesdansLatinlookup0 subtable" uni01A5.sc
EndChar

StartChar: uni01A5
Encoding: 421 421 402
GlifName: uni01A_5
Width: 1184
VWidth: 0
GlyphClass: 2
Flags: HW
LayerCount: 2
Fore
SplineSet
308 520 m 256
 308 290 426 140 606 140 c 256
 786 140 904 290 904 520 c 256
 904 750 786 900 606 900 c 256
 426 900 308 750 308 520 c 256
140 1177 m 257
 140 1358 292 1500 470 1500 c 256
 485 1500 500 1499 514 1497 c 257
 514 1334 l 257
 501 1338 486 1340 470 1340 c 256
 380 1340 320 1270 320 1177 c 257
 320 1177 320 980 320 920 c 257
 405 1005 481 1060 606 1060 c 256
 887 1060 1084 832 1084 520 c 256
 1084 208 887 -20 606 -20 c 256
 481 -20 405 35 320 120 c 257
 320 -440 l 257
 140 -440 l 257
 140 872 l 257
 140 1177 l 257
EndSplineSet
Substitution2: "smcpBasdecasseverspetitescapitalesdansLatinlookup0 subtable" uni01A5.sc
EndChar

StartChar: uni01A6
Encoding: 422 422 403
GlifName: uni01A_6
Width: 1188
VWidth: 0
GlyphClass: 2
Flags: HW
LayerCount: 2
Fore
SplineSet
500 449 m 257
 630 572 l 257
 1128 -168 l 257
 914 -168 l 257
 500 449 l 257
330 1144 m 257
 330 572 l 257
 612 572 l 257
 777 572 898 693 898 858 c 256
 898 1023 777 1144 612 1144 c 257
 330 1144 l 257
140 0 m 257
 140 1480 l 257
 330 1480 l 257
 330 1312 l 257
 612 1312 l 257
 867 1312 1088 1113 1088 858 c 256
 1088 603 867 404 612 404 c 257
 330 404 l 257
 330 0 l 257
 140 0 l 257
EndSplineSet
EndChar

StartChar: uni01A7
Encoding: 423 423 404
GlifName: uni01A_7
Width: 1220
VWidth: 0
GlyphClass: 2
Flags: HW
AnchorPoint: "bottom_center" 610 0 basechar 0
AnchorPoint: "top_center" 610 1380 basechar 0
LayerCount: 2
Fore
SplineSet
610 1332 m 256
 820 1332 885 1212 885 1084 c 256
 885 956 755 876 610 837 c 256
 320 759 100 656 100 396 c 256
 100 136 304 -20 610 -20 c 256
 891 -20 1093 158 1120 396 c 257
 934 446 l 257
 934 289 811 148 610 148 c 256
 390 148 290 255 290 396 c 256
 290 537 417 601 610 653 c 256
 900 731 1075 854 1075 1084 c 256
 1075 1314 901 1500 610 1500 c 256
 329 1500 147 1332 120 1094 c 257
 307 1044 l 257
 307 1201 409 1332 610 1332 c 256
EndSplineSet
Substitution2: "c2sc_CapitalesverspetitescapitalesdansLatinlookup0 subtable" uni01A8.sc
EndChar

StartChar: uni01A8
Encoding: 424 424 405
GlifName: uni01A_8
Width: 1020
VWidth: 0
GlyphClass: 2
Flags: HW
AnchorPoint: "top_center" 506 1040 basechar 0
AnchorPoint: "bottom_center" 506 0 basechar 0
AnchorPoint: "bottom_right" 344 0 basechar 0
LayerCount: 2
Fore
SplineSet
506 1060 m 256
 287 1060 159 953 120 808 c 257
 277 720 l 257
 308 836 374 900 506 900 c 256
 638 900 700 840 700 760 c 256
 700 680 652 642 506 608 c 256
 272 554 100 477 100 281 c 256
 100 85 276 -20 506 -20 c 256
 736 -20 881 108 920 253 c 257
 763 341 l 257
 732 225 656 141 506 141 c 256
 356 141 280 191 280 281 c 256
 280 371 360 404 506 438 c 256
 740 492 880 585 880 760 c 256
 880 935 725 1060 506 1060 c 256
EndSplineSet
Substitution2: "smcpBasdecasseverspetitescapitalesdansLatinlookup0 subtable" uni01A8.sc
EndChar

StartChar: uni01AA
Encoding: 426 426 407
GlifName: uni01A_A_
Width: 919
VWidth: 0
GlyphClass: 2
Flags: HW
LayerCount: 2
Fore
SplineSet
100 1266 m 256
 100 1408 220 1500 350 1500 c 256
 480 1500 599 1408 599 1266 c 256
 599 1124 480 1032 350 1032 c 256
 220 1032 100 1124 100 1266 c 256
291 1266 m 256
 291 1230 314 1201 350 1201 c 256
 386 1201 409 1230 409 1266 c 256
 409 1302 386 1331 350 1331 c 256
 314 1331 291 1302 291 1266 c 256
599 308 m 258
 599 206 647 148 749 148 c 256
 792 148 843 164 869 183 c 257
 914 12 l 257
 869 -6 805 -20 749 -20 c 256
 549 -20 409 109 409 308 c 258
 409 1116 l 257
 599 1266 l 257
 599 308 l 258
EndSplineSet
EndChar

StartChar: uni01AB
Encoding: 427 427 408
GlifName: uni01A_B_
Width: 770
VWidth: 0
GlyphClass: 2
Flags: HW
LayerCount: 2
Fore
SplineSet
690 0 m 257
 690 -181 538 -323 360 -323 c 256
 345 -323 330 -322 316 -320 c 257
 316 -157 l 257
 329 -161 344 -163 360 -163 c 256
 450 -163 510 -93 510 0 c 257
 690 0 l 257
122 1028 m 257
 212 1028 272 1092 272 1182 c 257
 272 1320 l 257
 440 1320 l 257
 440 1040 l 257
 720 1040 l 257
 720 880 l 257
 440 880 l 257
 440 300 l 258
 440 198 498 140 600 140 c 256
 643 140 694 156 720 175 c 257
 765 12 l 257
 720 -6 656 -20 600 -20 c 256
 400 -20 260 101 260 300 c 258
 260 880 l 257
 50 880 l 257
 50 1028 l 257
 122 1028 l 257
EndSplineSet
Substitution2: "smcpBasdecasseverspetitescapitalesdansLatinlookup0 subtable" uni01AB.sc
EndChar

StartChar: uni01AC
Encoding: 428 428 409
GlifName: uni01A_C_
Width: 1398
VWidth: 0
GlyphClass: 2
Flags: HW
LayerCount: 2
Fore
SplineSet
196 1110 m 257
 4 1110 l 257
 1 1126 0 1143 0 1160 c 256
 0 1338 152 1480 330 1480 c 257
 330 1312 l 257
 240 1312 190 1250 190 1160 c 256
 190 1142 191 1125 196 1110 c 257
794 0 m 257
 604 0 l 257
 604 1312 l 257
 330 1312 l 257
 330 1480 l 257
 1258 1480 l 257
 1258 1312 l 257
 794 1312 l 257
 794 0 l 257
EndSplineSet
Substitution2: "c2sc_CapitalesverspetitescapitalesdansLatinlookup0 subtable" uni01AD.sc
EndChar

StartChar: uni01AE
Encoding: 430 430 410
GlifName: uni01A_E_
Width: 1398
VWidth: 0
GlyphClass: 2
Flags: HW
LayerCount: 2
Fore
SplineSet
978 -146 m 257
 965 -150 950 -152 934 -152 c 256
 844 -152 794 -90 794 0 c 257
 604 0 l 257
 604 -178 756 -320 934 -320 c 256
 949 -320 964 -319 978 -317 c 257
 978 -146 l 257
604 1312 m 257
 140 1312 l 257
 140 1480 l 257
 1258 1480 l 257
 1258 1312 l 257
 794 1312 l 257
 794 0 l 257
 604 0 l 257
 604 1312 l 257
EndSplineSet
Substitution2: "c2sc_CapitalesverspetitescapitalesdansLatinlookup0 subtable" uni0288.sc
EndChar

StartChar: uni01AD
Encoding: 429 429 411
GlifName: uni01A_D_
Width: 770
VWidth: 0
GlyphClass: 2
Flags: HW
LayerCount: 2
Fore
SplineSet
272 1320 m 257
 272 1501 413 1653 591 1653 c 256
 606 1653 621 1652 635 1650 c 257
 635 1487 l 257
 622 1491 607 1493 591 1493 c 256
 501 1493 440 1413 440 1320 c 257
 440 1040 l 257
 720 1040 l 257
 720 880 l 257
 440 880 l 257
 440 300 l 258
 440 198 498 140 600 140 c 256
 643 140 694 156 720 175 c 257
 765 12 l 257
 720 -6 656 -20 600 -20 c 256
 400 -20 260 101 260 300 c 258
 260 880 l 257
 50 880 l 257
 50 1028 l 257
 122 1028 l 257
 212 1028 272 1092 272 1182 c 257
 272 1320 l 257
EndSplineSet
Substitution2: "smcpBasdecasseverspetitescapitalesdansLatinlookup0 subtable" uni01AD.sc
EndChar

StartChar: uni01B1
Encoding: 433 433 414
GlifName: uni01B_1
Width: 1602
VWidth: 0
GlyphClass: 2
Flags: HW
LayerCount: 2
Fore
SplineSet
1502 1480 m 257
 1502 1312 l 257
 941 1312 l 257
 941 1480 l 257
 1502 1480 l 257
100 1480 m 257
 661 1480 l 257
 661 1312 l 257
 100 1312 l 257
 100 1480 l 257
1502 740 m 256
 1502 301 1196 -20 801 -20 c 257
 801 148 l 257
 1091 148 1312 390 1312 740 c 256
 1312 1031 1159 1247 941 1312 c 257
 1263 1312 l 257
 1405 1176 1502 975 1502 740 c 256
100 740 m 256
 100 975 197 1176 339 1312 c 257
 661 1312 l 257
 443 1247 290 1031 290 740 c 256
 290 390 511 148 801 148 c 257
 801 -20 l 257
 406 -20 100 301 100 740 c 256
EndSplineSet
Substitution2: "c2sc_CapitalesverspetitescapitalesdansLatinlookup0 subtable" uni028A.sc
EndChar

StartChar: uni01B2
Encoding: 434 434 415
GlifName: uni01B_2
Width: 1398
VWidth: 0
GlyphClass: 2
Flags: HW
LayerCount: 2
Fore
SplineSet
1068 1180 m 257
 1068 600 l 257
 1068 350 949 148 699 148 c 256
 449 148 330 350 330 600 c 257
 330 1480 l 257
 140 1480 l 257
 140 600 l 257
 140 240 339 -20 699 -20 c 256
 1059 -20 1258 240 1258 600 c 257
 1258 1180 l 257
 1258 1358 1106 1500 928 1500 c 256
 913 1500 898 1499 884 1497 c 257
 884 1326 l 257
 897 1330 912 1332 928 1332 c 256
 1018 1332 1068 1270 1068 1180 c 257
EndSplineSet
Substitution2: "c2sc_CapitalesverspetitescapitalesdansLatinlookup0 subtable" uni028B.sc
EndChar

StartChar: uni01B3
Encoding: 435 435 416
GlifName: uni01B_3
Width: 1486
VWidth: 0
GlyphClass: 2
Flags: HW
LayerCount: 2
Fore
SplineSet
1401 1283 m 257
 1391 1293 1379 1302 1365 1310 c 256
 1340 1325 1316 1331 1292 1331 c 256
 1243 1331 1198 1301 1168 1248 c 257
 1014 1343 l 257
 1073 1445 1171 1500 1282 1500 c 256
 1339 1500 1397 1485 1449 1455 c 256
 1462 1448 1474 1440 1486 1431 c 257
 1401 1283 l 257
601 0 m 257
 601 740 l 257
 791 740 l 257
 791 0 l 257
 601 0 l 257
755 628 m 257
 621 666 l 257
 70 1480 l 257
 284 1480 l 257
 696 858 l 257
 1014 1343 l 257
 1168 1248 l 257
 755 628 l 257
EndSplineSet
Substitution2: "c2sc_CapitalesverspetitescapitalesdansLatinlookup0 subtable" uni01B4.sc
EndChar

StartChar: uni01B4
Encoding: 436 436 417
GlifName: uni01B_4
Width: 1184
VWidth: 0
GlyphClass: 2
Flags: HW
LayerCount: 2
Fore
SplineSet
1142 877 m 257
 1130 884 1116 890 1101 894 c 256
 1087 898 1073 900 1060 900 c 256
 991 900 934 850 914 775 c 257
 747 822 l 257
 786 968 913 1060 1056 1060 c 256
 1085 1060 1113 1057 1142 1049 c 256
 1156 1045 1171 1040 1184 1034 c 257
 1142 877 l 257
552 -255 m 257
 507 -385 393 -460 235 -460 c 256
 179 -460 115 -446 70 -428 c 257
 115 -265 l 257
 141 -284 192 -300 235 -300 c 256
 312 -300 364 -267 385 -206 c 257
 458 0 l 257
 93 1040 l 257
 282 1040 l 257
 550 224 l 257
 747 822 l 257
 914 775 l 257
 642 0 l 257
 552 -255 l 257
EndSplineSet
Substitution2: "smcpBasdecasseverspetitescapitalesdansLatinlookup0 subtable" uni01B4.sc
EndChar

StartChar: uni01B5
Encoding: 437 437 418
GlifName: uni01B_5
Width: 1308
VWidth: 0
GlyphClass: 2
Flags: HW
LayerCount: 2
Fore
SplineSet
1000 656 m 257
 300 656 l 257
 300 702 300 778 300 824 c 257
 1000 824 l 257
 1000 656 l 257
242 0 m 257
 140 152 l 257
 1038 1480 l 257
 1140 1328 l 257
 242 0 l 257
325 168 m 257
 1160 168 l 257
 1160 0 l 257
 790 0 510 0 140 0 c 257
 140 152 l 257
 325 168 l 257
954 1312 m 257
 160 1312 l 257
 160 1480 l 257
 530 1480 770 1480 1140 1480 c 257
 1140 1328 l 257
 954 1312 l 257
EndSplineSet
Substitution2: "c2sc_CapitalesverspetitescapitalesdansLatinlookup0 subtable" uni01B6.sc
EndChar

StartChar: uni01B6
Encoding: 438 438 419
GlifName: uni01B_6
Width: 1020
VWidth: 0
GlyphClass: 2
Flags: HW
LayerCount: 2
Fore
SplineSet
140 1040 m 257
 140 880 l 257
 766 880 l 257
 880 896 l 257
 880 1040 l 257
 140 1040 l 257
880 160 m 257
 264 160 l 257
 140 144 l 257
 140 0 l 257
 880 0 l 257
 880 160 l 257
344 160 m 257
 880 896 l 257
 676 880 l 257
 140 144 l 257
 344 160 l 257
175 440 m 257
 845 440 l 257
 845 600 l 257
 175 600 l 257
 175 554 175 486 175 440 c 257
EndSplineSet
Substitution2: "smcpBasdecasseverspetitescapitalesdansLatinlookup0 subtable" uni01B6.sc
EndChar

StartChar: uni01B7
Encoding: 439 439 420
GlifName: uni01B_7
Width: 1222
VWidth: 0
GlyphClass: 2
Flags: HW
LayerCount: 2
Fore
SplineSet
640 740 m 257
 515 840 l 257
 863 1312 l 257
 1077 1328 l 257
 640 740 l 257
1122 422 m 256
 1122 179 910 -20 610 -20 c 256
 329 -20 127 158 100 396 c 257
 287 446 l 257
 287 290 410 148 610 148 c 256
 810 148 932 266 932 422 c 256
 932 578 810 696 610 696 c 257
 539 696 515 696 515 696 c 257
 515 840 l 257
 515 840 540 856 610 856 c 257
 893 856 1122 662 1122 422 c 256
172 1480 m 257
 1077 1480 l 257
 1077 1328 l 257
 903 1312 l 257
 172 1312 l 257
 172 1480 l 257
EndSplineSet
Substitution2: "c2sc_CapitalesverspetitescapitalesdansLatinlookup0 subtable" uni0292.sc
EndChar

StartChar: uni01B8
Encoding: 440 440 421
GlifName: uni01B_8
Width: 1222
VWidth: 0
GlyphClass: 2
Flags: HW
LayerCount: 2
Fore
SplineSet
582 740 m 257
 707 840 l 257
 359 1312 l 257
 145 1328 l 257
 582 740 l 257
100 422 m 256
 100 179 312 -20 612 -20 c 256
 893 -20 1095 158 1122 396 c 257
 935 446 l 257
 935 290 812 148 612 148 c 256
 412 148 290 266 290 422 c 256
 290 578 412 696 612 696 c 257
 683 696 707 696 707 696 c 257
 707 840 l 257
 707 840 682 856 612 856 c 257
 329 856 100 662 100 422 c 256
1050 1480 m 257
 145 1480 l 257
 145 1328 l 257
 319 1312 l 257
 1050 1312 l 257
 1050 1480 l 257
EndSplineSet
Substitution2: "c2sc_CapitalesverspetitescapitalesdansLatinlookup0 subtable" uni01B9.sc
EndChar

StartChar: uni01B9
Encoding: 441 441 422
GlifName: uni01B_9
Width: 1222
VWidth: 0
GlyphClass: 2
Flags: HW
LayerCount: 2
Fore
SplineSet
582 300 m 257
 707 400 l 257
 359 872 l 257
 145 888 l 257
 582 300 l 257
100 -18 m 256
 100 -261 312 -460 612 -460 c 256
 893 -460 1095 -282 1122 -44 c 257
 935 6 l 257
 935 -150 812 -292 612 -292 c 256
 412 -292 290 -174 290 -18 c 256
 290 138 412 256 612 256 c 257
 683 256 707 256 707 256 c 257
 707 400 l 257
 707 400 682 416 612 416 c 257
 329 416 100 222 100 -18 c 256
1050 1040 m 257
 145 1040 l 257
 145 888 l 257
 319 872 l 257
 1050 872 l 257
 1050 1040 l 257
EndSplineSet
Substitution2: "smcpBasdecasseverspetitescapitalesdansLatinlookup0 subtable" uni01B9.sc
EndChar

StartChar: uni01BA
Encoding: 442 442 423
GlifName: uni01B_A_
Width: 1196
VWidth: 0
GlyphClass: 2
Flags: HW
LayerCount: 2
Fore
SplineSet
598 -107 m 256
 378 -107 280 -152 280 -212 c 256
 280 -272 378 -310 598 -310 c 256
 758 -310 874 -294 987 -239 c 257
 1028 -393 l 257
 919 -444 818 -470 598 -470 c 256
 298 -470 100 -412 100 -212 c 256
 100 -12 298 53 598 53 c 256
 818 53 916 91 916 151 c 256
 916 211 818 256 598 256 c 258
 515 256 l 257
 515 400 l 257
 598 416 l 257
 898 416 1096 351 1096 151 c 256
 1096 -49 898 -107 598 -107 c 256
630 300 m 257
 515 400 l 257
 873 880 l 257
 1077 896 l 257
 630 300 l 257
172 1040 m 257
 1077 1040 l 257
 1077 896 l 257
 913 880 l 257
 172 880 l 257
 172 1040 l 257
EndSplineSet
EndChar

StartChar: uni01BB
Encoding: 443 443 424
GlifName: uni01B_B_
Width: 1192
VWidth: 0
GlyphClass: 2
Flags: HW
LayerCount: 2
Fore
SplineSet
1092 492 m 257
 104 492 l 257
 104 660 l 257
 1092 660 l 257
 1092 492 l 257
301 949 m 257
 108 1000 l 257
 108 1300 316 1500 596 1500 c 256
 876 1500 1084 1320 1084 1040 c 257
 894 1040 l 257
 894 1220 776 1332 596 1332 c 256
 416 1332 298 1180 298 1000 c 256
 298 982 299 966 301 949 c 257
100 0 m 257
 100 160 111 388 596 668 c 256
 752 758 894 860 894 1040 c 257
 1084 1040 l 257
 1084 749 838 608 596 468 c 256
 293 293 290 90 290 0 c 257
 234 0 156 0 100 0 c 257
192 168 m 257
 1092 168 l 257
 1092 0 l 257
 290 0 l 257
 192 168 l 257
EndSplineSet
EndChar

StartChar: uni01BC
Encoding: 444 444 425
GlifName: uni01B_C_
Width: 1288
VWidth: 0
GlyphClass: 2
Flags: HW
LayerCount: 2
Fore
SplineSet
379 668 m 257
 266 701 l 257
 353 858 443 986 676 986 c 256
 957 986 1188 774 1188 483 c 256
 1188 192 956 -20 675 -20 c 256
 394 -20 192 158 165 396 c 257
 352 446 l 257
 352 290 475 148 675 148 c 256
 854 148 998 279 998 483 c 256
 998 687 854 818 676 818 c 256
 520 818 435 763 379 668 c 257
300 1424 m 257
 480 1424 l 257
 379 751 l 257
 266 701 l 257
 200 720 l 257
 300 1424 l 257
70 1312 m 257
 70 1480 l 257
 1116 1480 l 257
 1116 1312 l 257
 70 1312 l 257
EndSplineSet
Substitution2: "c2sc_CapitalesverspetitescapitalesdansLatinlookup0 subtable" uni01BD.sc
EndChar

StartChar: uni01BD
Encoding: 445 445 426
GlifName: uni01B_D_
Width: 1056
VWidth: 0
GlyphClass: 2
Flags: HW
LayerCount: 2
Fore
SplineSet
549 145 m 256
 675 145 776 224 776 347 c 256
 776 470 675 549 550 549 c 256
 446 549 397 527 348 454 c 257
 244 474 l 257
 282 581 351 708 556 708 c 256
 761 708 956 556 956 347 c 256
 956 138 758 -14 550 -14 c 256
 327 -14 166 118 145 295 c 257
 322 325 l 257
 322 231 408 145 549 145 c 256
257 952 m 257
 418 952 l 257
 364 587 l 257
 244 474 l 257
 181 486 l 257
 257 952 l 257
70 881 m 257
 70 1040 l 257
 896 1040 l 257
 896 881 l 257
 70 881 l 257
EndSplineSet
Substitution2: "smcpBasdecasseverspetitescapitalesdansLatinlookup0 subtable" uni01BD.sc
EndChar

StartChar: uni01BE
Encoding: 446 446 427
GlifName: uni01B_E_
Width: 1160
VWidth: 0
GlyphClass: 2
Flags: HW
LayerCount: 2
Fore
SplineSet
440 880 m 257
 440 755 l 258
 440 674 507 651 660 613 c 256
 883 557 1060 473 1060 285 c 256
 1060 97 890 -20 660 -20 c 256
 430 -20 279 63 228 252 c 257
 381 340 l 257
 406 200 520 140 660 140 c 256
 836 140 880 204 880 285 c 256
 880 366 813 391 660 431 c 256
 437 489 260 567 260 755 c 258
 260 880 l 257
 50 880 l 257
 50 1028 l 257
 122 1028 l 257
 212 1028 272 1092 272 1182 c 257
 272 1320 l 257
 440 1320 l 257
 440 1040 l 257
 720 1040 l 257
 720 880 l 257
 440 880 l 257
EndSplineSet
EndChar

StartChar: uni01BF
Encoding: 447 447 428
GlifName: uni01B_F_
Width: 1156
VWidth: 0
GlyphClass: 2
Flags: HW
LayerCount: 2
Fore
SplineSet
836 572 m 256
 836 791 780 900 578 900 c 256
 398 900 320 791 320 572 c 258
 320 -440 l 257
 140 -440 l 257
 140 1040 l 257
 308 1040 l 257
 308 920 l 257
 393 1005 493 1060 618 1060 c 256
 888 1060 1016 892 1016 572 c 256
 1016 252 745 -168 185 -168 c 257
 185 0 l 257
 665 0 836 353 836 572 c 256
EndSplineSet
Substitution2: "smcpBasdecasseverspetitescapitalesdansLatinlookup0 subtable" uni01BF.sc
EndChar

StartChar: uni01C0
Encoding: 448 448 429
GlifName: uni01C_0
Width: 460
VWidth: 0
GlyphClass: 2
Flags: HW
LayerCount: 2
Fore
SplineSet
320 1480 m 257
 320 0 l 257
 140 0 l 257
 140 1480 l 257
 320 1480 l 257
EndSplineSet
EndChar

StartChar: uni01C1
Encoding: 449 449 430
GlifName: uni01C_1
Width: 820
VWidth: 0
GlyphClass: 2
Flags: HW
LayerCount: 2
Fore
SplineSet
680 1480 m 257
 680 0 l 257
 500 0 l 257
 500 1480 l 257
 680 1480 l 257
320 1480 m 257
 320 0 l 257
 140 0 l 257
 140 1480 l 257
 320 1480 l 257
EndSplineSet
EndChar

StartChar: uni01C2
Encoding: 450 450 431
GlifName: uni01C_2
Width: 1208
VWidth: 0
GlyphClass: 2
Flags: HW
LayerCount: 2
Fore
SplineSet
140 840 m 257
 140 1000 l 257
 1068 1000 l 257
 1068 840 l 257
 140 840 l 257
140 480 m 257
 140 640 l 257
 1068 640 l 257
 1068 480 l 257
 140 480 l 257
694 1480 m 257
 694 0 l 257
 514 0 l 257
 514 1480 l 257
 694 1480 l 257
EndSplineSet
EndChar

StartChar: uni01C3
Encoding: 451 451 432
GlifName: uni01C_3
Width: 532
VWidth: 0
GlyphClass: 2
Flags: HW
LayerCount: 2
Fore
SplineSet
140 107 m 256
 140 179 193 236 265 236 c 256
 337 236 392 179 392 107 c 256
 392 35 337 -20 265 -20 c 256
 193 -20 140 35 140 107 c 256
159 1480 m 257
 371 1480 l 257
 355 452 l 257
 175 452 l 257
 159 1480 l 257
EndSplineSet
EndChar

StartChar: uni01DD
Encoding: 477 477 450
GlifName: uni01D_D_
Width: 1196
VWidth: 0
GlyphClass: 2
Flags: HW
LayerCount: 2
Fore
SplineSet
1022 440 m 257
 216 440 l 257
 286 600 l 257
 1022 600 l 257
 1022 440 l 257
286 700 m 257
 133 788 l 257
 216 966 399 1060 598 1060 c 256
 879 1060 1096 832 1096 520 c 256
 1096 208 879 -20 598 -20 c 256
 317 -20 100 208 100 520 c 256
 100 547 102 574 105 600 c 257
 286 600 l 257
 282 574 280 548 280 520 c 256
 280 300 407 140 598 140 c 256
 789 140 916 300 916 520 c 256
 916 740 789 900 598 900 c 256
 457 900 335 833 286 700 c 257
EndSplineSet
Substitution2: "smcpBasdecasseverspetitescapitalesdansLatinlookup0 subtable" uni01DD.sc
EndChar

StartChar: uni01E4
Encoding: 484 484 456
GlifName: uni01E_4
Width: 1632
VWidth: 0
GlyphClass: 2
Flags: HW
LayerCount: 2
Fore
SplineSet
1632 236 m 257
 950 236 l 257
 950 282 950 358 950 404 c 257
 1632 404 l 257
 1632 236 l 257
1253 1029 m 257
 1170 1216 1002 1332 801 1332 c 256
 511 1332 290 1090 290 740 c 256
 290 390 511 148 801 148 c 256
 1002 148 1170 264 1253 451 c 257
 1414 360 l 257
 1296 128 1069 -20 801 -20 c 256
 406 -20 100 301 100 740 c 256
 100 1179 406 1500 801 1500 c 256
 1069 1500 1296 1352 1414 1120 c 257
 1253 1029 l 257
801 740 m 257
 1422 740 l 257
 1422 0 l 257
 1240 0 l 257
 1240 227 l 257
 1232 253 l 257
 1232 572 l 257
 801 572 l 257
 801 740 l 257
EndSplineSet
Substitution2: "ss03StyleSet3lookups55 subtable" uni01E4.cv21
Substitution2: "cv21CharacterVariants21lookups62 subtable" uni01E4.cv21
Substitution2: "c2sc_CapitalesverspetitescapitalesdansLatinlookup0 subtable" uni01E5.sc
EndChar

StartChar: uni01E5
Encoding: 485 485 457
GlifName: uni01E_5
Width: 1245
VWidth: 0
GlyphClass: 2
Flags: HW
LayerCount: 2
Fore
SplineSet
571 941 m 257
 656 1026 736 1081 861 1081 c 256
 929 1081 985 1071 1035 1049 c 257
 987 870 l 257
 944 904 890 921 819 921 c 256
 763 921 739 910 702 889 c 257
 571 941 l 257
520 420 m 257
 520 300 l 257
 362 300 320 260 320 220 c 256
 320 180 412 160 520 160 c 257
 520 0 l 257
 280 0 141 80 141 210 c 256
 141 370 380 420 520 420 c 257
1035 -110 m 256
 1035 -290 881 -460 520 -460 c 256
 159 -460 50 -325 50 -164 c 256
 50 37 260 120 520 120 c 257
 520 30 l 257
 272 30 230 -89 230 -164 c 256
 230 -240 272 -300 520 -300 c 256
 768 -300 855 -220 855 -120 c 256
 855 -40 718 0 520 0 c 257
 520 160 l 257
 841 160 1035 70 1035 -110 c 256
320 680 m 256
 320 560 400 460 520 460 c 256
 640 460 720 560 720 680 c 256
 720 800 640 900 520 900 c 256
 400 900 320 800 320 680 c 256
140 680 m 256
 140 899 301 1060 520 1060 c 256
 739 1060 900 899 900 680 c 256
 900 461 739 300 520 300 c 256
 301 300 140 461 140 680 c 256
1245 -227 m 257
 575 -227 l 257
 575 -181 575 -113 575 -67 c 257
 1245 -67 l 257
 1245 -227 l 257
EndSplineSet
Substitution2: "ss04StyleSet4lookups56 subtable" uni01E5.cv24
Substitution2: "cv24CharacterVariants24lookups65 subtable" uni01E5.cv24
Substitution2: "smcpBasdecasseverspetitescapitalesdansLatinlookup0 subtable" uni01E5.sc
EndChar

StartChar: uni0292
Encoding: 658 658 471
GlifName: uni0292
Width: 1222
VWidth: 0
GlyphClass: 2
Flags: HW
LayerCount: 2
Fore
SplineSet
640 300 m 257
 515 400 l 257
 863 872 l 257
 1077 888 l 257
 640 300 l 257
1122 -18 m 256
 1122 -261 910 -460 610 -460 c 256
 329 -460 127 -282 100 -44 c 257
 287 6 l 257
 287 -150 410 -292 610 -292 c 256
 810 -292 932 -174 932 -18 c 256
 932 138 810 256 610 256 c 257
 539 256 515 256 515 256 c 257
 515 400 l 257
 515 400 540 416 610 416 c 257
 893 416 1122 222 1122 -18 c 256
172 1040 m 257
 1077 1040 l 257
 1077 888 l 257
 943 872 l 257
 172 872 l 257
 172 1040 l 257
EndSplineSet
Substitution2: "smcpBasdecasseverspetitescapitalesdansLatinlookup0 subtable" uni0292.sc
EndChar

StartChar: uni01F7
Encoding: 503 503 496
GlifName: uni01F_7
Width: 1352
VWidth: 0
GlyphClass: 2
Flags: HW
LayerCount: 2
Fore
SplineSet
1062 880 m 256
 1062 1210 956 1332 696 1332 c 256
 436 1332 330 1164 330 874 c 258
 330 -440 l 257
 140 -440 l 257
 140 1480 l 257
 318 1480 l 257
 318 1310 l 257
 420 1480 611 1500 736 1500 c 256
 1066 1500 1252 1290 1252 880 c 256
 1252 470 855 2 185 2 c 257
 185 178 l 257
 755 178 1062 550 1062 880 c 256
EndSplineSet
Substitution2: "c2sc_CapitalesverspetitescapitalesdansLatinlookup0 subtable" uni01BF.sc
EndChar

StartChar: uni01F6
Encoding: 502 502 497
GlifName: uni01F_6
Width: 2104
VWidth: 0
GlyphClass: 2
Flags: HW
LayerCount: 2
Fore
SplineSet
1964 1040 m 257
 1964 468 l 257
 1964 118 1786 -20 1516 -20 c 256
 1246 -20 1068 118 1068 468 c 257
 1068 530 l 257
 1258 530 l 257
 1258 468 l 258
 1258 254 1336 148 1516 148 c 256
 1696 148 1774 249 1774 468 c 258
 1774 1040 l 257
 1964 1040 l 257
140 1480 m 257
 330 1480 l 257
 330 824 l 257
 1068 824 l 257
 1068 1480 l 257
 1258 1480 l 257
 1258 530 l 257
 1068 530 l 257
 1068 656 l 257
 330 656 l 257
 330 0 l 257
 140 0 l 257
 140 1480 l 257
EndSplineSet
Substitution2: "c2sc_CapitalesverspetitescapitalesdansLatinlookup0 subtable" uni0195.sc
EndChar

StartChar: uni030F
Encoding: 783 783 498
GlifName: uni030F_
Width: 0
VWidth: 0
GlyphClass: 4
Flags: HW
AnchorPoint: "top_center" 642 1040 mark 0
LayerCount: 2
Fore
SplineSet
401 1224 m 257
 579 1224 l 257
 401 1480 l 257
 175 1480 l 257
 401 1224 l 257
805 1224 m 257
 983 1224 l 257
 805 1480 l 257
 579 1480 l 257
 805 1224 l 257
EndSplineSet
EndChar

StartChar: uni0311
Encoding: 785 785 511
GlifName: uni0311
Width: 0
VWidth: 0
GlyphClass: 4
Flags: HW
AnchorPoint: "top_center" 642 1040 mark 0
LayerCount: 2
Fore
SplineSet
642 1500 m 256
 492 1500 362 1374 362 1234 c 257
 522 1234 l 257
 522 1300 576 1360 642 1360 c 256
 708 1360 762 1300 762 1234 c 257
 922 1234 l 257
 922 1374 792 1500 642 1500 c 256
EndSplineSet
EndChar

StartChar: uni0326
Encoding: 806 806 528
GlifName: uni0326
Width: 0
VWidth: 0
GlyphClass: 4
Flags: HW
AnchorPoint: "bottom_center" 642 0 mark 0
LayerCount: 2
Fore
SplineSet
542 -225 m 256
 542 -167 584 -122 642 -122 c 256
 698 -122 743 -167 743 -225 c 256
 743 -283 700 -327 642 -327 c 256
 584 -327 542 -283 542 -225 c 256
554 -440 m 257
 600 -430 671 -391 671 -295 c 256
 671 -273 643 -225 643 -225 c 257
 642 -122 l 257
 698 -122 772 -159 772 -295 c 256
 772 -439 640 -516 578 -532 c 257
 554 -440 l 257
EndSplineSet
EndChar

StartChar: uni021C
Encoding: 540 540 529
GlifName: uni021C_
Width: 1189
VWidth: 0
GlyphClass: 2
Flags: HW
LayerCount: 2
Fore
SplineSet
697 548 m 257
 835 520 909 412 909 278 c 256
 909 56 695 -272 235 -272 c 257
 235 -440 l 257
 755 -440 1099 -72 1099 278 c 256
 1099 476 986 623 819 688 c 257
 697 548 l 257
572 1332 m 256
 761 1332 864 1212 864 1054 c 256
 864 832 695 504 235 504 c 257
 235 336 l 257
 755 336 1054 704 1054 1054 c 256
 1054 1324 842 1500 572 1500 c 256
 302 1500 90 1302 90 1032 c 257
 285 978 l 257
 282 995 280 1013 280 1032 c 256
 280 1190 382 1332 572 1332 c 256
EndSplineSet
Substitution2: "c2sc_CapitalesverspetitescapitalesdansLatinlookup0 subtable" uni021D.sc
EndChar

StartChar: uni021D
Encoding: 541 541 530
GlifName: uni021D_
Width: 939
VWidth: 0
GlyphClass: 2
Flags: HW
LayerCount: 2
Fore
SplineSet
536 349 m 257
 640 329 696 253 696 159 c 256
 696 3 491 -280 153 -280 c 257
 153 -440 l 257
 560 -440 876 -116 876 140 c 256
 876 285 800 424 648 471 c 257
 536 349 l 257
448 899 m 256
 581 899 653 821 653 718 c 256
 653 573 484 305 153 305 c 257
 153 145 l 257
 555 145 833 471 833 730 c 256
 833 929 664 1060 448 1060 c 256
 232 1060 63 911 63 709 c 257
 247 669 l 257
 245 680 243 692 243 704 c 256
 243 807 315 899 448 899 c 256
EndSplineSet
Substitution2: "smcpBasdecasseverspetitescapitalesdansLatinlookup0 subtable" uni021D.sc
EndChar

StartChar: uni0220
Encoding: 544 544 531
GlifName: uni0220
Width: 1392
VWidth: 0
GlyphClass: 2
Flags: HW
LayerCount: 2
Fore
SplineSet
1252 880 m 258
 1252 1260 1066 1500 736 1500 c 256
 611 1500 495 1487 318 1310 c 257
 318 1480 l 257
 140 1480 l 257
 140 0 l 257
 330 0 l 257
 330 880 l 258
 330 1110 416 1332 696 1332 c 256
 976 1332 1062 1110 1062 880 c 258
 1062 -440 l 257
 1252 -440 l 257
 1252 880 l 258
EndSplineSet
Substitution2: "c2sc_CapitalesverspetitescapitalesdansLatinlookup0 subtable" uni019E.sc
EndChar

StartChar: uni0221
Encoding: 545 545 532
GlifName: uni0221
Width: 1344
VWidth: 0
GlyphClass: 2
Flags: HW
LayerCount: 2
Fore
SplineSet
876 520 m 256
 876 750 758 900 578 900 c 256
 398 900 280 750 280 520 c 256
 280 290 398 140 578 140 c 256
 758 140 876 290 876 520 c 256
876 120 m 257
 791 35 703 -20 578 -20 c 256
 297 -20 100 208 100 520 c 256
 100 832 297 1060 578 1060 c 256
 703 1060 779 1005 864 920 c 257
 864 1480 l 257
 1044 1480 l 257
 1044 206 l 257
 1044 170 1068 140 1104 140 c 256
 1140 140 1164 170 1164 206 c 256
 1164 242 1140 272 1104 272 c 256
 884 272 793 -197 793 -197 c 257
 640 -109 l 257
 640 -109 744 432 1104 432 c 256
 1234 432 1344 348 1344 206 c 256
 1344 64 1234 -20 1104 -20 c 256
 974 -20 864 64 864 206 c 257
 876 120 l 257
EndSplineSet
Substitution2: "smcpBasdecasseverspetitescapitalesdansLatinlookup0 subtable" uni0221.sc
EndChar

StartChar: uni0223
Encoding: 547 547 533
GlifName: uni0223
Width: 1222
VWidth: 0
GlyphClass: 2
Flags: HW
LayerCount: 2
Fore
SplineSet
733 1336 m 257
 777 1500 l 257
 960 1444 1077 1285 1077 1110 c 256
 1077 981 1013 854 905 781 c 257
 1040 702 1122 570 1122 418 c 256
 1122 175 910 -20 610 -20 c 256
 310 -20 100 175 100 418 c 256
 100 569 181 702 315 781 c 257
 207 854 143 981 143 1110 c 256
 143 1285 260 1443 443 1500 c 257
 487 1336 l 257
 388 1300 333 1207 333 1106 c 256
 333 969 435 856 610 856 c 256
 785 856 887 969 887 1106 c 256
 887 1207 832 1301 733 1336 c 257
610 696 m 256
 410 696 290 578 290 422 c 256
 290 266 410 148 610 148 c 256
 810 148 932 266 932 422 c 256
 932 578 810 696 610 696 c 256
EndSplineSet
Substitution2: "smcpBasdecasseverspetitescapitalesdansLatinlookup0 subtable" uni0223.sc
EndChar

StartChar: uni0222
Encoding: 546 546 534
GlifName: uni0222
Width: 1312
VWidth: 0
GlyphClass: 2
Flags: HW
LayerCount: 2
Fore
SplineSet
143 1024 m 256
 143 934 218 824 315 781 c 257
 181 702 100 569 100 418 c 256
 100 175 295 -20 655 -20 c 256
 1015 -20 1212 175 1212 418 c 256
 1212 570 1130 702 995 781 c 257
 1103 854 1167 969 1167 1098 c 256
 1167 1338 1024 1502 700 1502 c 257
 700 1334 l 257
 922 1334 977 1244 977 1094 c 256
 977 957 877 856 655 856 c 256
 433 856 333 935 333 1030 c 256
 333 1125 430 1186 610 1186 c 257
 610 1354 l 257
 391 1354 143 1264 143 1024 c 256
655 696 m 256
 895 696 1022 578 1022 422 c 256
 1022 266 895 148 655 148 c 256
 415 148 290 266 290 422 c 256
 290 578 415 696 655 696 c 256
EndSplineSet
Substitution2: "c2sc_CapitalesverspetitescapitalesdansLatinlookup0 subtable" uni0223.sc
EndChar

StartChar: uni0224
Encoding: 548 548 535
GlifName: uni0224
Width: 1300
VWidth: 0
GlyphClass: 2
Flags: HW
LayerCount: 2
Fore
SplineSet
786 -146 m 257
 799 -150 814 -152 830 -152 c 256
 920 -152 970 -90 970 0 c 257
 1160 0 l 257
 1160 -178 1008 -320 830 -320 c 256
 815 -320 800 -319 786 -317 c 257
 786 -146 l 257
242 0 m 257
 140 152 l 257
 1038 1480 l 257
 1140 1328 l 257
 242 0 l 257
325 168 m 257
 1160 168 l 257
 1160 0 l 257
 790 0 510 0 140 0 c 257
 140 152 l 257
 325 168 l 257
974 1312 m 257
 160 1312 l 257
 160 1480 l 257
 530 1480 770 1480 1140 1480 c 257
 1140 1328 l 257
 974 1312 l 257
EndSplineSet
Substitution2: "c2sc_CapitalesverspetitescapitalesdansLatinlookup0 subtable" uni0225.sc
EndChar

StartChar: uni0225
Encoding: 549 549 536
GlifName: uni0225
Width: 1020
VWidth: 0
GlyphClass: 2
Flags: HW
LayerCount: 2
Fore
SplineSet
506 -157 m 257
 519 -161 534 -163 550 -163 c 256
 640 -163 700 -93 700 0 c 257
 880 0 l 257
 880 -181 728 -323 550 -323 c 256
 535 -323 520 -322 506 -320 c 257
 506 -157 l 257
140 1040 m 257
 140 880 l 257
 756 880 l 257
 880 896 l 257
 880 1040 l 257
 140 1040 l 257
880 160 m 257
 264 160 l 257
 140 144 l 257
 140 0 l 257
 880 0 l 257
 880 160 l 257
344 160 m 257
 880 896 l 257
 676 880 l 257
 140 144 l 257
 344 160 l 257
EndSplineSet
Substitution2: "smcpBasdecasseverspetitescapitalesdansLatinlookup0 subtable" uni0225.sc
EndChar

StartChar: uni0234
Encoding: 564 564 537
GlifName: uni0234
Width: 704
VWidth: 0
GlyphClass: 2
Flags: HW
LayerCount: 2
Fore
SplineSet
404 206 m 257
 404 170 428 140 464 140 c 256
 500 140 524 170 524 206 c 256
 524 242 500 272 464 272 c 256
 244 272 153 -197 153 -197 c 257
 0 -109 l 257
 0 -109 104 432 464 432 c 256
 594 432 704 348 704 206 c 256
 704 64 594 -20 464 -20 c 256
 334 -20 224 64 224 206 c 258
 224 273 l 257
 224 1480 l 257
 404 1480 l 257
 404 521 l 257
 404 206 l 257
EndSplineSet
Substitution2: "smcpBasdecasseverspetitescapitalesdansLatinlookup0 subtable" uni0234.sc
EndChar

StartChar: uni0235
Encoding: 565 565 538
GlifName: uni0235
Width: 1316
VWidth: 0
GlyphClass: 2
Flags: HW
LayerCount: 2
Fore
SplineSet
1016 206 m 257
 1016 170 1040 140 1076 140 c 256
 1112 140 1136 170 1136 206 c 256
 1136 242 1112 272 1076 272 c 256
 856 272 765 -197 765 -197 c 257
 612 -109 l 257
 612 -109 716 432 1076 432 c 256
 1206 432 1316 348 1316 206 c 256
 1316 64 1206 -20 1076 -20 c 256
 946 -20 836 64 836 206 c 258
 836 268 l 257
 836 572 l 257
 836 791 758 900 578 900 c 256
 398 900 320 791 320 572 c 258
 320 0 l 257
 140 0 l 257
 140 1040 l 257
 308 1040 l 257
 308 920 l 257
 393 1005 493 1060 618 1060 c 256
 888 1060 1016 892 1016 572 c 257
 1016 206 l 257
EndSplineSet
Substitution2: "smcpBasdecasseverspetitescapitalesdansLatinlookup0 subtable" uni0235.sc
EndChar

StartChar: uni0236
Encoding: 566 566 539
GlifName: uni0236
Width: 804
VWidth: 0
GlyphClass: 2
Flags: HW
LayerCount: 2
Fore
SplineSet
454 521 m 257
 454 206 l 257
 454 170 478 140 514 140 c 256
 550 140 574 170 574 206 c 256
 574 242 550 272 514 272 c 256
 294 272 203 -197 203 -197 c 257
 50 -109 l 257
 50 -109 154 432 514 432 c 256
 644 432 754 348 754 206 c 256
 754 64 644 -20 514 -20 c 256
 384 -20 274 64 274 206 c 258
 274 263 l 257
 274 880 l 257
 64 880 l 257
 64 1028 l 257
 136 1028 l 257
 226 1028 286 1092 286 1182 c 257
 286 1320 l 257
 454 1320 l 257
 454 1040 l 257
 734 1040 l 257
 734 880 l 257
 454 880 l 257
 454 521 l 257
EndSplineSet
Substitution2: "smcpBasdecasseverspetitescapitalesdansLatinlookup0 subtable" uni0236.sc
EndChar

StartChar: uni0238
Encoding: 568 568 540
GlifName: uni0238
Width: 1908
VWidth: 0
GlyphClass: 2
Flags: HW
LayerCount: 2
Fore
SplineSet
876 520 m 256
 876 750 758 900 578 900 c 256
 398 900 280 750 280 520 c 256
 280 290 398 140 578 140 c 256
 758 140 876 290 876 520 c 256
864 1480 m 257
 1044 1480 l 257
 1044 920 l 257
 1129 1005 1205 1060 1330 1060 c 256
 1611 1060 1808 832 1808 520 c 256
 1808 208 1611 -20 1330 -20 c 256
 1205 -20 1121 35 1036 120 c 257
 1036 0 l 257
 872 0 l 257
 872 120 l 257
 787 35 703 -20 578 -20 c 256
 297 -20 100 208 100 520 c 256
 100 832 297 1060 578 1060 c 256
 703 1060 779 1005 864 920 c 257
 864 1480 l 257
1032 520 m 256
 1032 290 1150 140 1330 140 c 256
 1510 140 1628 290 1628 520 c 256
 1628 750 1510 900 1330 900 c 256
 1150 900 1032 750 1032 520 c 256
EndSplineSet
EndChar

StartChar: uni0239
Encoding: 569 569 541
GlifName: uni0239
Width: 1908
VWidth: 0
GlyphClass: 2
Flags: HW
LayerCount: 2
Fore
SplineSet
876 520 m 256
 876 290 758 140 578 140 c 256
 398 140 280 290 280 520 c 256
 280 750 398 900 578 900 c 256
 758 900 876 750 876 520 c 256
864 -440 m 257
 1044 -440 l 257
 1044 120 l 257
 1129 35 1205 -20 1330 -20 c 256
 1611 -20 1808 208 1808 520 c 256
 1808 832 1611 1060 1330 1060 c 256
 1205 1060 1121 1005 1036 920 c 257
 1036 1040 l 257
 872 1040 l 257
 872 920 l 257
 787 1005 703 1060 578 1060 c 256
 297 1060 100 832 100 520 c 256
 100 208 297 -20 578 -20 c 256
 703 -20 779 35 864 120 c 257
 864 -440 l 257
1032 520 m 256
 1032 750 1150 900 1330 900 c 256
 1510 900 1628 750 1628 520 c 256
 1628 290 1510 140 1330 140 c 256
 1150 140 1032 290 1032 520 c 256
EndSplineSet
EndChar

StartChar: uni0338
Encoding: 824 824 542
GlifName: uni0338
Width: 0
VWidth: 0
GlyphClass: 2
Flags: HW
LayerCount: 2
Fore
SplineSet
1057 1596 m 257
 1185 1500 l 257
 -72 -116 l 257
 -200 -20 l 257
 1057 1596 l 257
EndSplineSet
EndChar

StartChar: uni0337
Encoding: 823 823 543
GlifName: uni0337
Width: 0
VWidth: 0
GlyphClass: 2
Flags: HW
LayerCount: 2
Fore
SplineSet
1048 1156 m 257
 1176 1060 l 257
 260 -116 l 257
 132 -20 l 257
 1048 1156 l 257
EndSplineSet
EndChar

StartChar: uni023A
Encoding: 570 570 544
GlifName: uni023A_
Width: 1416
VWidth: 0
GlyphClass: 2
Flags: HW
LayerCount: 2
Fore
SplineSet
1273 1596 m 257
 1401 1500 l 257
 144 -116 l 257
 16 -20 l 257
 1273 1596 l 257
334 604 m 257
 1060 604 l 257
 1060 436 l 257
 334 436 l 257
 334 604 l 257
708 1230 m 257
 296 0 l 257
 100 0 l 257
 610 1480 l 257
 806 1480 l 257
 1316 0 l 257
 1120 0 l 257
 708 1230 l 257
EndSplineSet
EndChar

